<?xml version="1.0" standalone="no"?>
<!DOCTYPE svg PUBLIC "-//W3C//DTD SVG 1.1//EN" "http://www.w3.org/Graphics/SVG/1.1/DTD/svg11.dtd" >
<svg xmlns="http://www.w3.org/2000/svg">
<metadata>
This is a custom SVG webfont generated by Font Squirrel.
Copyright   :  19992001 WolfBainX  Apostrophic Labs All rights reserved Email infoapostrophiclabcom or visit wwwapostrophiclabcom for more information
Designer    : WolfBainX
Foundry URL : wwwapostrophiclabcom
</metadata>
<defs>
<font id="KomikaDisplayWideRegular" horiz-adv-x="920" >
<font-face units-per-em="1000" ascent="800" descent="-200" />
<missing-glyph horiz-adv-x="436" />
<glyph unicode="&#xd;" horiz-adv-x="290" d="M210 233l14 40l15 44q9 25 18 58l24 80q0 2 1 3q0 2 1 2.5t1 2.5q0 19 -18 27.5t-41 8.5q-15 0 -30.5 -3t-28 -8.5t-21.5 -13.5t-11 -18q-20 -58 -35 -109l-35 -108q-10 -29 -17.5 -53.5t-14 -48t-12 -48t-11.5 -54.5q0 -2 -1 -2.5t-1 -2.5v-5q0 -21 17 -28t38 -7 q37 0 54 7.5t26 25t15.5 47t23.5 73.5z" />
<glyph horiz-adv-x="571" d="M440 719q0 3 0.5 6t0.5 6q0 31 -22.5 54.5t-68.5 23.5q-39 0 -69.5 -13t-52 -32.5t-34 -43.5t-13.5 -45v-5q0 -15 5 -29t16 -24.5t29.5 -16.5t44.5 -6q30 0 59 10t51.5 27t37 39.5t16.5 47.5v1zM299 674q-5 0 -5 10q1 14 13 27.5t35 13.5q5 0 5 -7v-4q-1 -16 -14.5 -28 t-33.5 -12z" />
<glyph unicode=" "  horiz-adv-x="436" />
<glyph unicode="&#x09;" horiz-adv-x="436" />
<glyph unicode="&#xa0;" horiz-adv-x="436" />
<glyph unicode="!" horiz-adv-x="549" d="M144 236q-13 13 -13 39q0 10 2 21.5t5 21.5l5 20q3 8 4 12q33 88 68 172t62 175l15 40q7 20 19.5 36.5t32 28.5t51.5 17q12 2 22 3t17 1q23 0 46.5 -7t46.5 -27l4 -2q8 -6 13.5 -14.5t5.5 -16.5q0 -9 -9 -18q-4 -5 -20 -39l-38 -84l-47 -105l-48 -104l-36 -83 q-15 -34 -17 -38q-2 -9 -10 -21.5t-20 -24.5t-28 -22.5t-32 -15.5zM72 4h-3q-17 8 -30 21.5t-17 24.5q-2 5 -4 9.5t-2 9.5q0 15 10 25q12 28 42.5 46t72.5 25q-2 1 6.5 2t19 2.5t18.5 2.5t7 2l69 -33q31 -19 31 -47q0 -7 -0.5 -11.5t-1.5 -8.5q-4 -11 -13.5 -22.5t-23 -22 t-30 -18t-33.5 -10.5q-11 -1 -25.5 -2t-34.5 -1q-31 0 -58 6z" />
<glyph unicode="&#x22;" horiz-adv-x="420" d="M186 530l50 116q1 2 1 5q0 4 2 6q3 12 5 24.5t-2 23t-15.5 17.5t-35.5 7q-42 0 -64.5 -23t-31.5 -54q-2 -3 -2 -6t-2 -7l-35 -105q-4 -6 -5 -8l-5 -13q-3 -9 -4 -20t1.5 -21t11 -17.5t25.5 -9.5h9q29 0 57 24.5t40 60.5zM425 645l5 14q3 10 6 18q7 21 0.5 36.5 t-47.5 15.5q-26 0 -43 -7.5t-27.5 -20t-17 -28t-11.5 -31.5l-39 -111l-2 -13q-5 -15 -7.5 -27.5t0 -22.5t11.5 -16t27 -7h5q37 0 63 27t38 65l-1 1z" />
<glyph unicode="#" horiz-adv-x="721" d="M775 456q0 19 -21 46q-26 29 -58 29h-82q1 4 1.5 10.5t3.5 13.5q2 11 2.5 21t0.5 15q0 71 -80 71q-36 0 -55 -22q-9 -12 -14.5 -30t-6.5 -43q-1 -20 -3.5 -32.5t-5.5 -17.5q0 1 -21 1h-89v54q0 21 -0.5 32t-0.5 13q-15 61 -72 61q-60 0 -69 -55l-2 -12q-1 -6 -1 -14v4 q-1 -2 -1 -12v-13q-3 -23 -4 -40t-1 -31q-9 -3 -22 -3q-7 0 -20 1t-29 3q-12 2 -24.5 3t-24.5 1q-72 0 -72 -58q0 -14 5.5 -26t16.5 -24q6 -8 19 -15t28 -12t31 -8.5t28 -3.5h13q13 0 22.5 1.5t14.5 1.5q-3 -5 -3 -26v-5h-15q-4 1 -10 1h-7h-12q-7 1 -11.5 1.5t-14.5 0.5 q-31 0 -55 -12h1q-35 -18 -35 -50q0 -25 25 -48q23 -23 55 -26q19 -1 36.5 -1.5t29.5 -1.5h1q5 -18 8 -33t6 -27q6 -24 29 -42q29 -23 52 -23q46 0 63 45l-1 -1q5 12 7.5 24t2.5 24q0 5 -1 10l-2 10l-2 9q31 7 121 7q12 0 12 -8q0 -2 -0.5 -5.5t-0.5 -7.5v-11 q0 -8 1.5 -17.5t6.5 -23.5q4 -14 8 -21.5t7 -12.5q4 -5 13 -11.5t19.5 -12.5t20.5 -10t15 -4q11 0 24 6t23.5 15t17.5 20t7 20v72q0 1 -1 5t-1 7q-1 1 -1 5h6h34q15 2 29.5 10t31.5 22q15 15 24 28.5t9 27.5q0 7 -5 16.5t-13.5 18t-19 14t-21.5 5.5h-89q-3 0 -3 8q0 6 3 18 v3q26 5 49.5 7t49.5 4q14 2 25.5 7.5t22.5 19.5q21 24 21 40zM450 374v-9q0 -6 -2 -12.5t-4 -14.5h-82q-2 0 -5 -0.5t-6 -0.5q-1 -1 -6 -1v34h-1q18 7 67 7q31 0 40 -3h-1zM326 194q-1 -1 -4 -1q3 0 4 1z" />
<glyph unicode="$" horiz-adv-x="629" d="M612 385q0 52 -27 85v-1q-11 16 -18.5 25.5t-14.5 13.5h2q-57 41 -173 60l-53 2q-26 1 -52 3q-55 2 -55 7q0 6 21 21q23 19 42 20q115 15 145 15h8q35 0 57 5q15 4 31 34q7 11 9.5 20t2.5 14q0 13 -8 23.5t-20.5 17.5t-28 10.5t-30.5 3.5h-13q-11 0 -13 -1h3 q-5 0 -8 -0.5t-5 -0.5q-4 -1 -15 -1h-17h-33v7q0 4 0.5 7.5t0.5 7.5q0 15 -2 32.5t-10 32t-23.5 24.5t-43.5 10q-9 0 -20 -3.5t-21 -9.5t-17 -13.5t-9 -14.5v2q-3 -5 -3.5 -22.5t-0.5 -35.5v-23q0 -30 -11 -41q-22 -12 -37 -21.5t-26 -14.5q-94 -70 -94 -121q0 -47 42 -80 q33 -31 148 -45q22 -3 44 -5.5t44 -4.5q20 -2 39.5 -4.5t42.5 -4.5q67 -14 67 -33q0 -3 -9 -13q-27 -29 -51 -36q-39 -16 -68 -16q-28 0 -49 3t-35 3q-2 0 -4.5 -0.5t-5.5 -0.5h-6q-14 0 -31 6.5t-35 15.5l-37 18q-18 9 -34 15q-6 2 -10 2q-13 0 -25.5 -9t-26.5 -21 q-28 -30 -28 -50q0 -46 52 -76q14 -8 35 -16.5t53 -19.5q37 -13 43 -19v-1h2q5 -12 5 -14v-82q0 -19 25 -44q24 -27 52 -27q27 0 53 29l-2 -1q22 27 22 44v94q0 -2 42 11l55 15l18 5q145 71 147 160q0 -2 3 9l-2 -1q2 4 3 10z" />
<glyph unicode="%" horiz-adv-x="1215" d="M1187 294q-12 22 -31 37t-44.5 24t-56 12.5t-64.5 3.5q-38 0 -74 -3t-70 -7q-38 -4 -75.5 -17.5t-70.5 -34.5t-59 -48.5t-41 -60.5q-8 -23 -11.5 -40.5t-5.5 -43.5q0 -42 29 -76.5t89 -48.5q57 -16 123 -16q83 0 153 23.5t118 59.5q19 14 38.5 32t35 39t25 45.5t9.5 51.5 q0 40 -17 68zM1051 714q-4 23 -26 33t-51 10q-19 0 -38.5 -4t-33.5 -12q-62 -34 -104 -75l-82 -83l-47 -49q-23 -25 -52 -48v1l-23 -20l-23 -20l-52 -45q-25 -21 -47 -44l2 1l-83 -81l-64 -64l-57 -59l-58 -63l-21 -22l-21 -22q-23 -26 -23 -47q0 -24 21.5 -37.5t53.5 -13.5 q24 0 50.5 10t48.5 31l141 139l142 138l148 136l158 136q12 11 22.5 17t21.5 13q17 10 34.5 22t31.5 26.5t23 33t9 41.5v10q0 9 -1 11zM586 607q-8 27 -27.5 45t-46 30t-56.5 20l-56 15q-23 5 -41.5 6.5t-36.5 1.5q-54 0 -97.5 -15.5t-78.5 -39.5t-62 -54.5t-47 -60.5 q-17 -31 -17 -56q0 -32 18 -61t47 -48q30 -20 69.5 -29t84.5 -9q32 0 65 3q57 9 96 23l76 28q8 3 14 5.5t14 4.5h-2q53 19 73 56t20 79q0 28 -8 55zM1000 227q2 -5 3 -8.5t1 -6.5q0 -26 -19 -51.5t-51 -36.5q-15 -5 -35 -10t-49 -5q-8 0 -19 1.5t-22 4t-19 5t-9 5.5 q-11 11 -15 21.5t-4 19.5q0 13 6.5 26t17.5 24.5t25 19.5t29 12q12 4 34 5t43 1h23h25q11 0 19.5 -6t15.5 -21zM406 537q-9 -14 -28 -23.5t-41.5 -15.5t-45 -8.5t-39.5 -2.5q-14 0 -23 3t-12 12q0 2 -0.5 4.5t-0.5 5.5q0 19 9 32t22.5 23t28.5 17l29 13q4 2 15 2 q12 0 27.5 -4t30 -11t24 -16.5t9.5 -19.5q0 -6 -4 -10z" />
<glyph unicode="&#x26;" horiz-adv-x="955" d="M959 418q0 49 -21.5 71.5t-66.5 22.5q-22 0 -38 -2.5t-39 -4.5q-2 -1 -7 -1t-7 -1q-14 -1 -25.5 -1.5t-22.5 -0.5q-15 0 -29.5 0.5t-31.5 0.5q-68 0 -92 -43q-8 -18 -11.5 -29t-6.5 -19q0 -1 -1 -5t-4 -12l-31 -63q-12 -24 -19 -34l-35 -37q-16 -18 -30 -30q-2 -3 -4 -3 q-54 -63 -180 -63q-23 0 -38 8.5t-15 23.5q0 21 18 54q36 46 58 64q23 18 40.5 30.5t25.5 20.5q11 8 28 17t38 19q3 1 3.5 1.5t3.5 1.5q4 1 14 5l22 10l25 10q12 6 21 9q19 11 26.5 21.5t7.5 22.5q0 91 -104 91q-9 0 -28.5 -5.5t-48.5 -16.5l1 1q-20 -6 -31 -9t-15 -5 q1 1 1 3q0 6 -3 16t-3 22q0 16 11 32.5t46 30.5q29 11 56.5 13.5t51.5 2.5h32q20 0 50 -27q59 -47 90 -47q26 0 47.5 13t21.5 37q0 44 -51 92q-70 49 -112 55q-9 1 -22 3l-26 6l-26 4t-23 2q-35 0 -68.5 -8t-64 -21t-57.5 -29l-51 -33q-88 -61 -88 -155q0 -29 5 -53t21 -49 q0 -11 -10.5 -20.5t-22.5 -18.5l-24 -17q-12 -9 -13 -17q-67 -80 -67 -163q0 -87 67 -144q73 -60 188 -60q196 0 297 76l-2 -1q19 12 38 29l41 36q21 22 35 38.5t25 27.5l33 65q14 27 22 46q0 2 -1 2.5t-1 1.5q0 8 11.5 9.5t27.5 1.5q7 0 13.5 0.5t14.5 1.5q72 0 106 20.5 t34 55.5z" />
<glyph unicode="'" horiz-adv-x="234" d="M186 530l50 116q1 2 1 5q0 4 2 6q3 12 5 24.5t-2 23t-15.5 17.5t-35.5 7q-42 0 -64.5 -23t-31.5 -54q-2 -3 -2 -6t-2 -7l-35 -105q-4 -6 -5 -8l-5 -13q-3 -9 -4 -20t1.5 -21t11 -17.5t25.5 -9.5h9q29 0 57 24.5t40 60.5z" />
<glyph unicode="(" horiz-adv-x="479" d="M465 831q0 67 -85 67q-22 0 -45.5 -9.5t-44.5 -23t-38 -29.5t-26 -29q-52 -38 -91 -99q-44 -63 -56 -114q-3 -9 -6.5 -18.5t-6.5 -18.5q-9 -22 -18 -49.5t-17 -55.5t-13.5 -54.5t-6.5 -46.5q4 -40 12 -77.5t23.5 -73t39 -68.5t58.5 -65l8 -6l8 -6q16 -15 27 -21 q36 -21 77 -21q71 0 71 56q0 31 -43 74l-39 44q-16 18 -24 29q-34 54 -34 111q0 85 51 220l-1 -1q1 1 4 8q10 15 13 25q7 12 12 21.5t13 17.5q24 32 60 68t87 72h-2q15 16 24 34.5t9 38.5z" />
<glyph unicode=")" horiz-adv-x="487" d="M426 708q-10 16 -30 41.5t-42.5 51t-45 48t-37.5 33.5q-14 11 -29.5 15t-31.5 4q-70 0 -70 -57q0 -29 17.5 -49t36.5 -37q1 -2 3 -4t7 -6q8 -11 18.5 -24t21.5 -30q10 -33 20.5 -49.5t10.5 -34.5q3 -9 3.5 -17t0.5 -19q0 -21 -8 -55.5t-22 -85.5q-5 -6 -7 -15.5 t-3.5 -18.5t-2.5 -17t-5 -11l-28 -56q-11 -22 -18.5 -34.5t-12.5 -19.5l-11 -13q-3 -7 -15 -19l-28 -27l-36 -32q-19 -17 -34.5 -33t-26 -30.5t-10.5 -24.5q0 -34 19 -50t64 -16q16 0 29.5 4t23.5 9q8 5 20.5 17t23.5 20l17 12q8 6 16 11q23 26 40 43l30 30l21 23q8 9 16 20 t15.5 29t22.5 38q21 30 36.5 69t26.5 84t17.5 94.5t10.5 99.5z" />
<glyph unicode="*" horiz-adv-x="562" d="M546 630q0 55 -72 55q-7 0 -19.5 -1t-26.5 -2l-28 -2q-13 -1 -20 -1q-35 0 -49 14q-4 9 -7 23.5t-4 36.5q-1 24 -4 39t-7 23q-15 30 -58 30q-27 -2 -44 -18.5t-17 -37.5v-8q0 -17 6 -45q-2 -8 -11 -8l-23 21l-25 20q-30 21 -62 21q-19 0 -32.5 -11t-13.5 -27 q0 -18 33 -54q14 -13 26 -25.5t26 -25.5q-14 -11 -43 -11h-2q-23 0 -24 -1q-18 -3 -31.5 -13.5t-13.5 -23.5q0 -33 31 -55q36 -24 74 -24q7 0 20 2t21 2q25 0 34 -10q6 -8 6 -31q0 -8 -0.5 -19.5t-0.5 -19.5q0 -48 52 -73q5 -4 28 -4q34 0 44 43q8 54 22 68q5 -2 19 -6.5 t37 -13.5q43 -17 48 -17q20 0 33 13t13 28q0 21 -35 41q-39 23 -46 35q26 5 49.5 8.5t46.5 8.5q50 12 50 56z" />
<glyph unicode="+" horiz-adv-x="667" d="M656 418q0 46 -56 57q-75 7 -114 9q-56 3 -61 7q-20 13 -20 41q0 7 1.5 18.5t4 24.5t4 24.5t1.5 18.5q0 73 -77 73q-53 0 -69 -48q-3 -11 -5 -31l-5 -50q-3 -23 -4.5 -39t-4.5 -27q-6 -28 -95 -28q-37 0 -61.5 -1.5t-38.5 -3.5q-56 -12 -56 -54q0 -21 14 -44 q22 -31 93 -31q8 0 24.5 1t27.5 1q46 0 46 -28q0 -8 -1 -20t-3 -27q-2 -16 -3 -27.5t-1 -19.5q0 -89 77 -89q31 0 45 12q5 5 12 19t15 37q7 19 11.5 34t7.5 26q8 35 31 60q28 30 68 30h112q36 0 60 24q20 19 20 51z" />
<glyph unicode="," horiz-adv-x="281" d="M-34 -8q0 -23 20 -37.5t50 -14.5q11 0 26.5 4.5t27.5 15.5l-1 -2q4 3 16 17l27 30l31 34l26 28h5q2 13 2.5 18t0.5 10q0 14 -9 25t-26 21q-15 4 -22.5 5t-13.5 1h-6q-8 0 -16 -0.5t-20 -4.5v-1q-11 -7 -31 -30t-39.5 -48t-33.5 -46t-14 -25z" />
<glyph unicode="-" horiz-adv-x="671" d="M56 220q11 -12 35.5 -16t60.5 -4q15 0 31.5 0.5t35.5 0.5l32 2q16 1 34 1h2h21q17 0 40 0.5t49 1.5t49 2t41 2t25 2h25q32 0 47.5 1.5t27.5 8.5q11 4 14.5 8.5t3.5 12.5q-7 11 -12.5 21t-12.5 14q-33 24 -83 30.5t-107 6.5h-54q-12 0 -25.5 -1t-25.5 -1q-31 0 -67.5 -0.5 t-69 -1.5t-56.5 -2t-31 -2h1q-25 -4 -38.5 -8.5t-13.5 -19.5v-4q0 -4 1 -6v-7l8 -21q4 -13 12 -21z" />
<glyph unicode="." horiz-adv-x="197" d="M-20 72v-8q0 -11 4 -19t11 -15q26 -15 47.5 -20.5t32.5 -5.5q18 0 34 3.5t28 8.5q24 10 39.5 26t17.5 35q0 34 -47 49q-12 5 -25.5 8.5t-27.5 3.5q-9 0 -14 -0.5t-13 -1.5q-34 -5 -58.5 -23t-28.5 -41z" />
<glyph unicode="/" horiz-adv-x="915" d="M837 748h8q23 -4 36.5 -9.5t27.5 -21.5v1q5 -6 5.5 -11t0.5 -10q0 -18 -13 -29t-32 -25v2q-10 -11 -18 -16l-641 -538l1 3q-2 -4 -7.5 -7.5t-9.5 -8.5q-14 -11 -33.5 -30t-45.5 -33q-26 -12 -55 -12q-57 0 -87 34q-5 7 -8.5 13t-3.5 14q0 13 11 29t26 31t30 28l26 21 l-1 -1l547 466q20 18 45 37.5t53.5 36t60 27t64.5 10.5q4 0 6.5 -0.5t6.5 -0.5z" />
<glyph unicode="0" horiz-adv-x="807" d="M772 315q18 38 28.5 72t10.5 64q0 38 -21 80q-10 19 -21.5 32t-25 23t-29.5 18l-35 19q-51 25 -100.5 39t-102.5 14q-94 0 -196 -49q-113 -54 -172 -127.5t-81 -176.5q-8 -43 -8 -78q0 -58 21.5 -103.5t78.5 -82.5q72 -54 171 -54q53 0 110 14.5t117 42.5q49 22 88 48 t70 56.5t54.5 67.5t42.5 81zM656 321q-18 -38 -43.5 -61t-66.5 -49q-48 -32 -90 -48t-95 -16q-5 0 -9.5 0.5t-9.5 0.5q-47 2 -76.5 12.5t-58.5 36.5q-52 48 -52 110q0 40 26 94q19 36 48.5 63.5t65.5 46.5t76 29t81 10q9 0 18.5 -0.5t18.5 -1.5q39 -4 72.5 -18t58.5 -35 t39.5 -49t14.5 -59q0 -17 -5 -33t-13 -33z" />
<glyph unicode="1" horiz-adv-x="360" d="M346 561q14 28 14 47q0 30 -21 47.5t-47 17.5q-22 0 -40 -9q-27 -20 -52 -33l-48 -25l-62 -34q-29 -17 -61 -45q-8 -11 -8 -24q0 -12 5 -24t12.5 -21.5t16 -16t16.5 -7.5q1 -1 10 -1q14 0 25.5 4.5t23.5 11.5q21 15 39 18q1 -1 1 -8q0 -17 -6.5 -42t-13.5 -48 q-3 -8 -4.5 -16.5t-3.5 -15.5q-11 -51 -23 -89l-24 -72l-22 -70q-11 -35 -21 -82v-7q0 -24 16.5 -30t42.5 -6h31q24 9 38 17.5t21 20t9.5 27t4.5 39.5q1 10 5 27l10 39l11 44q6 23 11 45q7 33 14 56l12 42q5 20 12 38l14 44l18 58l24 82v1z" />
<glyph unicode="2" horiz-adv-x="821" d="M831 505q-17 -45 -47.5 -76.5t-70 -55t-86 -41t-96.5 -34.5q-53 -17 -106.5 -38t-102.5 -50q-5 -2 -8 -4.5t-7 -4.5v1l-30 -21q-14 -10 -22 -24q37 6 82 9.5t95 3.5q63 0 128 -7t129 -24q28 -10 28 -36q0 -17 -9.5 -36.5t-23.5 -33.5q-25 -28 -59 -28q-20 0 -46 8h1 q-14 2 -26.5 4t-26.5 3q-23 2 -44 2.5t-41 2.5l-61 4q-30 2 -60 2q-42 0 -87 -4.5t-105 -17.5q-11 -3 -22 -3q-30 0 -47 19t-25 44l1 -1q-9 19 -9 39q0 41 53 92q22 21 41 36t36 26.5t35 21.5l39 20q8 5 17 9t17 8q40 22 70.5 34.5t66.5 25.5q20 8 44.5 16t53.5 20l25 9 l29 9q19 5 38 11.5t34.5 14.5t25 18t9.5 23v5q-3 16 -19.5 21.5t-37.5 5.5q-15 0 -31 -2l-31 -4q-8 -1 -15 -1.5t-13 -1.5q-48 -3 -89 -22t-81 -40q-14 -8 -29 -15l-29 -14q-11 -4 -16.5 -10t-12.5 -12q-10 -12 -21.5 -21t-30.5 -9q-9 0 -25 3q-11 0 -21.5 5.5t-18.5 13.5 t-13 16.5t-5 15.5q0 14 14 32.5t37 37.5t52 37.5t58 33t56 23.5t46 9q-6 0 -6 1q0 3 32 12.5t78 19t97.5 17t89.5 7.5q29 0 46 -6q11 -2 22 -3.5t23 -6.5q34 -16 53.5 -42t19.5 -59q0 -21 -9 -43z" />
<glyph unicode="3" horiz-adv-x="782" d="M734 136q42 72 42 133q0 37 -19 72q-12 22 -22.5 36t-29.5 25q15 10 32 24.5t31.5 33t24 40.5t9.5 47q0 11 -1.5 22t-8.5 23v-1q-14 37 -40.5 56.5t-75.5 25.5q-44 6 -100 6q-47 0 -97 -6.5t-98.5 -22t-92.5 -41t-78 -62.5q7 -26 24 -47.5t51 -21.5h6l10 2l20 9l20 9 l48 24q25 13 51.5 23t54 16.5t54.5 6.5q20 0 40 -4.5t42 -15.5v1q8 -5 8 -11q0 -8 -6.5 -18t-15.5 -20t-19.5 -18t-18.5 -13v1q-23 -13 -56.5 -19.5t-70.5 -12.5q-44 -8 -84 -17t-67 -28q-4 -12 -5 -21t-1 -17q0 -30 18.5 -47.5t50.5 -17.5q15 0 28 5v-1q28 8 59 13t61 5 q35 0 63.5 -9t39.5 -34q5 -10 7.5 -19t2.5 -19q0 -21 -11.5 -42.5t-37.5 -35.5q-48 -26 -90 -40t-95 -14q-20 0 -40 1.5t-46 6.5q-30 5 -53 23.5t-43 37.5q-18 19 -34.5 31.5t-35.5 12.5q-13 0 -14 -1l-29 -17q-16 -9 -31 -21t-25.5 -25.5t-10.5 -26.5v-7l2 -8 q15 -29 33 -47.5t40.5 -32t50.5 -23t62 -19.5q73 -17 137 -17q61 0 121 12.5t111 34.5t90 53t58 69z" />
<glyph unicode="4" horiz-adv-x="790" d="M831 306q0 27 -13 36t-36 9q-10 0 -20 -1l-22 -2q-32 -6 -71 -6q7 33 12 52.5l9 34.5l7 32l10 44q6 15 19 28q8 9 14.5 19t6.5 21v8q-6 22 -24.5 32.5t-43.5 10.5q-15 0 -30 -4t-29 -11h1q-17 -9 -26 -21.5t-13.5 -26t-6.5 -26.5t-6 -23q-11 -26 -17 -50l-13 -46l-14 -49 q-7 -23 -19 -40q-27 -5 -63 -9.5t-75.5 -7.5t-79 -5t-72.5 -2h-21q7 22 19.5 41t29.5 39l16 18l16 20q11 19 24 33.5t24 28.5q19 20 35.5 41t30.5 53l-1 -1q13 21 13 34q0 20 -12.5 34.5t-32.5 21.5l-12 2q-6 1 -14 1q-58 0 -92 -75q-6 -16 -11.5 -26t-11.5 -18l-10 -14 l-11 -16l-14 -17q-7 -8 -15 -19v1l-20 -27q-10 -13 -21 -24q-33 -40 -58.5 -76t-41.5 -81h1q-1 -2 -1 -11q0 -13 6 -29.5t15.5 -33t20 -31.5t19.5 -24q14 -8 30 -8q12 0 25.5 3t28.5 6q16 4 33 7.5t33 5.5q22 1 48 2l53 2q26 1 51.5 1.5t46.5 0.5h45q-5 -26 -16 -60l-23 -66 q-5 -11 -7 -21q-5 -14 -9 -27t-4 -25q0 -14 6.5 -22t28.5 -8h29q4 0 8 -0.5t8 -0.5q26 0 42.5 8.5t33.5 37.5q14 25 21.5 55.5t12.5 59.5l10 47q5 22 13 37q12 4 22.5 5t20.5 1h13q4 0 7 -0.5t8 -0.5q11 0 23.5 2.5t27.5 10.5q17 8 31 15.5t23.5 18.5t15 26.5t5.5 39.5v5z " />
<glyph unicode="5" horiz-adv-x="719" d="M707 199q18 46 18 80q0 46 -21.5 83.5t-58.5 62.5q-46 30 -98 41t-105 11q-44 0 -83.5 -5t-72.5 -10l-2 -1q2 18 11 34.5t20 30.5q0 5 1 6q29 0 63 4l73 10q14 2 28.5 3.5t28.5 3.5q6 1 11 1.5t9 0.5h20h56q26 0 46.5 2.5t42.5 9.5q23 9 38 32t15 44q0 19 -15 28 q-12 16 -31 22.5t-42 6.5q-26 0 -52.5 -4.5t-55.5 -10.5l-48 -10q-25 -5 -48 -7q-18 -2 -34 -2.5t-31 -1.5q-45 -3 -85.5 -9t-87.5 -25q-10 -45 -25.5 -71t-31.5 -47q-18 -23 -34 -48.5t-22 -70.5q11 -25 20 -41t17 -25.5t16 -13t18 -3.5q11 0 20 2t21 4q35 8 82.5 15.5 t100.5 10.5h16q34 0 64.5 -5.5t53.5 -16.5t37 -27t14 -37q0 -17 -12 -39q-12 -25 -32.5 -40t-49.5 -31q-9 -2 -9 -5q-45 -26 -87 -36.5t-83 -10.5q-22 0 -42 3l-42 5q-20 4 -28.5 14.5t-14.5 22.5q-4 9 -8 17t-10.5 14t-17 9.5t-26.5 3.5q-6 0 -10.5 -0.5t-11.5 -1.5 q-45 -7 -60.5 -26.5t-15.5 -45.5q0 -20 7.5 -39.5t15.5 -35.5q23 -36 80 -52.5t129 -16.5q23 0 48 1.5t48 5.5q39 5 73.5 12t66.5 19t62 30.5t60 46.5q18 14 31.5 27t24.5 27t20 29.5t17 35.5z" />
<glyph unicode="6" horiz-adv-x="786" d="M765 204q-36 -53 -74.5 -89.5t-82.5 -61t-96 -40.5t-115 -28q-32 -7 -61.5 -9.5t-55.5 -2.5q-97 0 -150 35.5t-75 98.5q-7 20 -10.5 39.5t-3.5 39.5q0 27 5.5 53.5t15.5 57.5q16 51 40 93t56.5 78t74.5 67.5t96 61.5q26 14 47.5 23.5t43 17t46.5 13.5t59 13h-1 q11 2 21 3.5t21 1.5q26 0 43.5 -9.5t22.5 -30.5l-1 1q1 -2 2 -5t1 -7q0 -14 -11 -28t-27.5 -25.5t-36.5 -20t-39 -11.5q-56 -12 -103 -30.5t-95 -57.5q-10 -8 -17 -13q-30 -24 -53.5 -46t-30.5 -45q45 21 93 40.5t98.5 34.5t102.5 24t105 9h16q53 -2 86 -17t59 -53 q20 -31 20 -70q0 -50 -36 -105zM664 262v9q0 19 -19 25t-46 6q-29 0 -62 -3.5t-63 -8.5q-5 -1 -9 -1.5t-9 -0.5q-71 -11 -126 -41t-100 -63q-11 -13 -13.5 -21.5t-2.5 -15.5q0 -14 13 -22t32 -12.5t39.5 -6t35.5 -1.5t36 2.5t45.5 8t51 14.5t52.5 21q24 12 49 26.5 t45.5 29.5t34 29.5t16.5 25.5z" />
<glyph unicode="7" horiz-adv-x="670" d="M724 612v-1q3 -9 3 -18q0 -23 -19.5 -47t-42.5 -43l-98 -85q-44 -39 -83 -78.5t-76.5 -82t-78.5 -94.5l-37 -50v1q-27 -39 -55.5 -75t-57.5 -68q-21 -12 -38 -12q-23 0 -48 14.5t-39 40.5v8q0 18 5 31t13.5 23.5t19.5 19.5l24 19q27 17 49 42l71 83l68 75l79 87 q39 42 73 88q-60 9 -121 9q-37 0 -72.5 -2.5t-72.5 -10.5q-12 -2 -22.5 -3t-21.5 -1q-30 0 -40 11.5t-15 30.5q-1 5 -1.5 9t-0.5 10q0 21 9 38t24.5 28t36 17t42.5 6q17 0 34 -3h-1q6 -1 12 -1h13h25q38 0 76 1.5t79.5 4.5t87 7t97.5 10q5 1 15 1h15q16 0 27 -2t19 -6.5 t13.5 -12t10.5 -19.5z" />
<glyph unicode="8" horiz-adv-x="849" d="M857 210q3 8 4 15t1 15q0 20 -6.5 34.5t-17 25.5t-24 20t-28.5 18q-7 5 -14 8.5t-13 7.5q20 16 41 36t38 43t28 48t11 52t-15 56q-32 58 -94 78.5t-144 20.5h-23h-12q-8 0 -12 -1q-51 -2 -99.5 -10t-92.5 -25.5t-83 -46t-73 -71.5q-47 -60 -47 -114q0 -38 25 -68 q-35 -14 -61.5 -26.5t-48.5 -27.5t-39 -34t-32 -46q-14 -24 -20 -46.5t-6 -42.5q0 -22 6 -42.5t20 -40.5q16 -26 40 -41.5t54 -24.5t65 -14t74 -9h-2q2 -1 8 -1q7 0 10 -1q26 -3 49.5 -5t49.5 -2q118 0 226 36t199 115q15 12 25.5 28t17.5 32t10.5 29.5t4.5 21.5zM630 131 q-57 -24 -110 -34t-106 -10q-88 0 -160 23q-37 13 -63 30.5t-30 40.5q2 19 13.5 31.5t28 20.5t36.5 13.5t41 10.5q16 3 31 7l30 10l-2 -1q2 1 10 1q7 0 8 1l72 4q39 3 80 3q26 0 51.5 -2t46.5 -7l27 -5l27 -7q14 -3 24.5 -8t17.5 -12.5t7 -18.5v-3q-3 -29 -26 -51.5 t-54 -36.5zM727 505q-1 -22 -18.5 -37t-43 -25.5t-55 -16.5t-55.5 -10q-23 -4 -42 -6t-33 -2q-32 0 -59.5 4.5t-47.5 12t-32 18t-12 21.5q0 3 1 4q5 25 32 41.5t65 26t82 14.5t85 8q4 0 7.5 0.5t7.5 0.5q22 0 43.5 -4.5t38 -12t26.5 -17.5t10 -20z" />
<glyph unicode="9" horiz-adv-x="817" d="M842 381q13 42 13 84q0 47 -26 98q-10 18 -19.5 32t-20.5 26t-25 22.5t-33 21.5q-29 15 -62.5 21t-69.5 6q-54 0 -104.5 -10t-87.5 -19q-99 -27 -165 -75t-107 -123q-26 -43 -26 -86q0 -26 10.5 -47.5t36.5 -41.5q22 -18 43 -29t43 -16.5t46 -8t52 -4.5q2 -1 11 -1h13 q11 -1 23 -1.5t24 -0.5q64 0 124 10.5t106 26.5l-22 -29q-8 -11 -14 -17.5t-11.5 -10t-12.5 -8.5q-36 -28 -72 -45.5t-74 -27.5t-78 -14t-85 -4q-21 0 -38 8l-33 14q-16 9 -32 15t-35 6q-16 0 -33 -6t-32.5 -16t-28 -24.5t-19.5 -30.5v-7q0 -32 13 -50t34 -27.5t46.5 -12.5 t49.5 -4q10 -1 18 -1.5t17 -1.5h-2q19 -4 37.5 -5t37.5 -1q29 0 58.5 3.5t64.5 11.5q34 7 62.5 15t55 18.5t53 25t56.5 35.5q49 34 84 66t60.5 68t43 77.5t32.5 94.5zM464 370q-54 0 -101.5 8.5t-77.5 22.5q-26 10 -26 25q0 13 15 27.5t35 26.5q22 15 52.5 27.5t64 21 t69 13.5t67.5 5q13 0 25.5 -1t24.5 -3q48 -8 70.5 -40t24.5 -74q-18 -16 -45 -27t-59.5 -18t-68 -10.5t-70.5 -3.5z" />
<glyph unicode=":" horiz-adv-x="199" d="M255 433q0 45 -26 67.5t-68 22.5q-30 0 -50.5 -12t-34 -31.5t-19.5 -43t-6 -45.5q0 -38 26 -61t63 -23q25 0 46 11t36.5 28.5t24 40t8.5 46.5zM230 125q0 45 -26.5 68t-68.5 23q-29 0 -49.5 -12t-33.5 -31t-19.5 -42.5t-6.5 -45.5q0 -38 25.5 -61.5t62.5 -23.5 q25 0 46 11t36.5 28.5t24.5 40t9 45.5z" />
<glyph unicode=";" horiz-adv-x="295" d="M277 174q0 17 -9 33.5t-23 29t-31.5 20.5t-34.5 8q-15 0 -31.5 -7.5t-30 -20t-22 -28t-8.5 -31.5q0 -26 -1.5 -49.5t-11.5 -44.5q-3 -4 -5.5 -9t-6.5 -10q-7 -2 -8 -9q-2 -1 -2 -5q-3 -8 -10 -11q-14 -12 -23 -26.5t-9 -49.5q0 -23 8.5 -36.5t22 -20.5t29.5 -9t31 -2 q62 0 94 53l29 51q15 27 27 54.5t19 57t7 62.5zM291 444q0 46 -26.5 69.5t-70.5 23.5q-32 0 -54.5 -12.5t-36.5 -32t-21 -43.5t-7 -47q0 -40 27.5 -64t66.5 -24q27 0 49.5 11t38.5 29.5t25 42t9 47.5z" />
<glyph unicode="&#x3c;" horiz-adv-x="521" d="M504 705q0 15 -7.5 28.5t-19.5 24t-27 16.5t-31 6q-36 0 -120 -69q-14 -11 -25 -21.5t-25 -20.5l-26 -21l-24 -20l-46 -29q-19 -12 -34 -20l-14 -8l-9 -5q-92 -56 -92 -101q0 -36 16 -62l26 -34q16 -20 41 -47q19 -20 32 -36l25 -28q4 -5 6.5 -7.5t5.5 -6.5 q43 -63 105 -120l11 -9q7 -5 10.5 -8t9.5 -7l47 -48q41 -35 75 -35q66 0 66 71q0 24 -30 59l1 -1q-7 9 -14 15l-17 15q-11 11 -27.5 24.5t-36.5 33.5q-29 26 -49 47.5t-31 38.5q-4 4 -7 8t-5 6h1q-3 2 -4.5 4t-5.5 6l1 -2q-66 76 -66 84q0 14 105 89q18 13 36.5 25t35.5 25 v-1l35 26l37 26q65 53 65 89z" />
<glyph unicode="=" horiz-adv-x="559" d="M527 437v13q-1 1 -1 8q0 39 -59 60q-39 13 -83 13q-53 0 -117 -4.5t-143 -14.5q-7 -1 -12 -1.5t-10 -1.5q-10 -1 -14.5 -2t-11.5 -3q-20 -6 -35 -14h1q-30 -14 -30 -38q4 -26 21.5 -49t36.5 -33q15 -7 60 -7h14q11 0 15 1h-2l230 10q6 2 19 3q5 1 9 1.5t11 1.5q27 3 36 3 q39 0 52 11t13 43zM511 254q0 29 -12 46.5t-35 28.5q-39 14 -99 14q-3 0 -17.5 -0.5t-37.5 -2.5l-29 -2q-15 -1 -29 -1q-15 -1 -31.5 -1.5t-33.5 -2.5l-35 -3q-15 -2 -26 -3q-37 -3 -47 -6h2q-22 -4 -36.5 -21t-14.5 -35q0 -42 45 -69q38 -25 90 -25q5 0 64 3q57 2 104 5 t88 6q14 1 20.5 1.5t10.5 0.5h8q26 5 41 32v-1q10 18 10 36z" />
<glyph unicode="&#x3e;" horiz-adv-x="521" d="M499 439q0 52 -88 95q-22 11 -46.5 26t-54.5 38q-16 13 -31 26.5t-32 26.5v-1l-31 26q-83 68 -115 68q-17 0 -32 -6.5t-26.5 -16.5t-18.5 -23t-7 -26q0 -25 25 -55l39 -35q16 -15 24 -21v1l77 -63q32 -26 55 -41l27 -16l27 -16l-2 1q30 -24 30 -26q0 -5 -15 -24l-45 -53 v1q-19 -18 -24 -26q-23 -36 -74 -83q-42 -35 -63 -56t-28 -27q-35 -34 -35 -57q0 -24 16 -43q11 -14 23.5 -20t27.5 -6q34 0 75 36q7 5 13 12l12 12l-1 -1l14 13l14 13q14 17 27 30l24 25q11 11 19 21l15 17v-1q10 10 17.5 19.5t15.5 17.5l46 49l37 38l17 22l11 13q4 5 6 9 l8 12v-1q27 34 27 76z" />
<glyph unicode="?" d="M889 620h-2q5 11 6.5 20t1.5 17q0 42 -35 78q-50 50 -120 61q-26 4 -60 6t-80 2q-38 0 -67 -1.5t-49 -5.5h1q-124 -13 -164 -24q-197 -45 -224 -113q-1 -3 -1.5 -5.5t-0.5 -7.5q0 -8 0.5 -19.5t3.5 -21.5t9.5 -17t17.5 -7q8 -7 17 -10t18 -3q18 0 41 8.5t53 22.5 q27 14 42 23.5t18 10.5q21 6 35 12l26 10q12 4 24.5 7t31.5 5q43 5 74.5 7.5t54.5 2.5h3q162 0 162 -45q0 -4 -2 -12q-26 -59 -188 -102l-33 -8q-13 -4 -27 -6l-51 -7q-28 -4 -66 -11q-8 -2 -15.5 -3t-16.5 -3l-23 -4l-20 -4q-9 -2 -14.5 -3t-10.5 -2q-29 -5 -51 -25 t-31 -41q-2 -5 -4 -14t-3 -26q-1 -7 -2 -13t-1 -12v-21q0 -18 -2.5 -34.5t-2.5 -29.5q0 -15 7 -23.5t28 -10.5q11 -1 20 -1h17q43 0 55 10.5t12 36.5q0 11 2 24t4 29l9 15l13 8q6 3 17 5l11 2q12 1 24 3q44 5 93 17.5t106 31.5q61 20 107 41t79 42q18 13 36 28.5t35 35.5 q3 2 3.5 4t3.5 4l26 36q12 16 19 30zM320 102l-1 -1q2 5 2.5 9t0.5 9q0 23 -23 40q-28 19 -67 19q-73 0 -101 -33q-24 -19 -25 -27v1q-5 -15 -8 -28t-3 -25q0 -55 72 -55q45 0 92 28t61 63z" />
<glyph unicode="@" horiz-adv-x="1169" d="M1144 535v43q0 10 -2 15q0 48 -30 87l2 -1q-3 2 -4.5 5t-4.5 6q-8 14 -14.5 22.5t-10.5 12.5q-29 37 -74 66.5t-110 52.5q-113 39 -231 39q-92 0 -199 -26q-120 -27 -184 -71q-26 -17 -53 -40.5t-53 -52.5q-157 -173 -157 -371q0 -43 7 -77t26 -60q8 -11 22 -25l32 -35 l38 -35q16 -14 30 -21q68 -33 149.5 -48.5t183.5 -15.5q28 0 50 8.5t37.5 23t23.5 33.5t8 40q0 31 -34 47q-26 13 -61 13q-8 0 -19 -0.5t-22 -1.5t-21.5 -1.5t-17.5 -0.5q-23 0 -55 4.5t-71 14.5q-64 16 -100 80q-24 45 -24 88q0 21 5 34q88 334 429 337h49q23 0 43 -2 t34 -5q74 -12 103 -27q57 -26 75 -43q17 -18 25 -43q5 -12 6.5 -27t1.5 -32q0 -15 -7 -50q-3 -23 -15.5 -47.5t-35.5 -49.5q-26 -24 -49.5 -37t-49.5 -13q-33 0 -33 56q0 47 12 95q2 13 13 41q11 19 13 30t2 16q0 39 -63 62q-22 8 -43.5 11.5t-46.5 3.5q-22 0 -50 -4 t-59 -14h1q-67 -17 -101 -38h1q-31 -16 -57.5 -41t-48.5 -57q-29 -38 -45.5 -75.5t-9.5 -72.5q11 -57 39 -90t62 -49t67.5 -20t56.5 -4q37 0 90 12q62 14 74 14q5 0 9 -1.5t11 -3.5l11 -3h-1q15 -6 30.5 -10.5t32.5 -4.5q64 -1 100 6.5t63 21.5q92 46 150 133 q26 40 36.5 83.5t12.5 89.5zM621 436q-7 -27 -9.5 -44t-5.5 -23q-7 -2 -14 -4.5t-20 -6.5v1q-23 -5 -34 -8l-11 -3q-21 0 -35.5 15t-14.5 32q0 35 57 76q57 42 97 42h1q0 -8 -2.5 -27.5t-8.5 -49.5z" />
<glyph unicode="A" horiz-adv-x="785" d="M585 96l12 -51q5 -21 12.5 -33.5t19 -19.5t26.5 -10t36 -6q8 0 17 2t23 7q22 7 31 22.5t9 32.5q0 15 -6 26l-1 2q-104 595 -147 608l-18 3q-8 2 -22 2h-5q2 0 2 1q-59 -7 -94 -18t-56.5 -26t-34.5 -35l-28 -44q-12 -21 -28 -45t-36 -48l-69 -91l-76 -101l-70 -102 q-34 -50 -58 -91q-9 -17 -13.5 -31t-4.5 -31v-13q0 -11 7 -20.5t18 -16t24 -10t26 -3.5q33 0 59 10.5t44 41.5l23 40l17 32q8 13 17 24t21 21l5 1h14q3 0 4 0.5t4 0.5q32 2 67 3l54 2l52 2q26 1 48 1.5t37 0.5h14l9 -3h1l5 -4l3 -3zM539 233l-5 -2h-197l-3 1l-8 11v4 l161 215l9 3l13 -2l6 -5l32 -214l-2 -4l-9 -7h3z" />
<glyph unicode="B" horiz-adv-x="842" d="M805 404q20 14 30.5 30.5t13.5 30.5q3 12 3 25q0 31 -24 57.5t-63 46.5t-88 33t-100 18q-40 5 -87.5 8t-100.5 3q-20 0 -40.5 -1t-39.5 -3h-3q-62 -2 -99 -52q-15 -20 -20.5 -31t-5.5 -17l-61 -190l-41 -129l-26 -83q-9 -30 -13 -46.5t-5 -23t-1 -11.5q0 -11 1 -13v-2 q1 -20 5.5 -35t15.5 -19l15 -13l8 -1q32 -21 65 -27.5t65 -6.5h12q39 0 87.5 4.5t100.5 14t104.5 23.5t100 33.5t88 43.5t68.5 53q25 27 25 52q0 27 -26 51q-53 60 -138 83l-1 2l-1 11l2 3q48 16 93.5 34t80.5 44zM265 232l11 4q96 18 174 18q102 0 157 -29q11 -4 15 -11 l7 -11v-5q-5 -17 -23 -33t-44.5 -31t-59 -28.5t-65.5 -25t-64.5 -20.5t-56.5 -15q-11 -4 -29.5 -6.5t-41.5 -2.5q-8 0 -17.5 0.5t-18.5 1.5l5 37zM314 353l-4 8l21 69q8 26 15.5 42.5t15 28t18.5 24.5l14 11q34 8 72 12t80 4q81 -5 115 -21t34 -37q0 -23 -35 -49.5 t-89 -48.5t-119 -36.5t-125 -14.5l-7 3z" />
<glyph unicode="C" horiz-adv-x="762" d="M657 499q2 -1 15 -7l29 -12q15 -6 16 -6q29 11 46.5 26.5t17.5 27.5q0 4 -1 6v8q-8 26 -36 45.5t-70 36.5q-34 14 -58.5 23t-44.5 14.5t-37 8t-35 2.5q-20 0 -47.5 -3.5t-60.5 -11.5q-77 -38 -143.5 -88.5t-117 -111.5t-83 -130t-42.5 -143v-13q0 -8 1 -11 q3 -27 8.5 -45.5t16.5 -35.5l28 -26q22 -24 51 -40.5t61.5 -28t67.5 -18t70 -10.5l40 -4q20 -2 43 -2q47 0 88 6.5t79 19t75 30.5t76 42q22 14 30.5 23t15.5 19v-2q0 49 -52 49h-5q-1 0 -12 -2t-26 -6t-31.5 -10t-29.5 -14h2q-32 -14 -72 -28.5t-104 -28.5q-11 -3 -46 -3 q-10 0 -22 1t-28 4t-37 8.5t-49 14.5q-24 18 -44.5 40t-27.5 50v12q0 12 2 15q7 58 40 110q35 54 76 105.5t90 87.5q35 30 75.5 50.5t85.5 20.5h4z" />
<glyph unicode="D" horiz-adv-x="832" d="M164 -39q29 0 55 2.5t43 5.5l3 -2l9 5q78 5 151 25.5t136.5 52t116 72.5t90 86.5t58.5 94t21 95.5q0 46 -22 88.5t-70 77t-124 59t-184 35.5h-2q-33 7 -75 8.5t-95 1.5l-81 -11q-24 -49 -37 -79.5t-16 -42.5q0 -5 -0.5 -7t-3.5 -7q-23 -65 -41 -122t-33 -113 t-26.5 -113.5t-21.5 -122.5v-14l1 -1q5 -28 28 -42zM354 557q110 0 176 -8t99 -26q49 -29 66.5 -54.5t20.5 -45.5l1 -7q-1 -41 -33.5 -86.5t-87 -90t-126.5 -85.5t-153 -71q-8 -4 -39 -13t-68 -17l-8 3l-7 5l-4 6q4 33 14.5 78t25 93.5t31.5 97.5l32 92l28 76l18 47h-1l5 3z " />
<glyph unicode="E" horiz-adv-x="811" d="M14 23q15 -8 32 -19l32 -20q17 -9 31.5 -15.5t25.5 -6.5q17 0 32 1t31 3l32 4q16 2 36 5h3l386 44q26 2 37 5t14 5q8 6 11 11.5t3 16.5v8q0 5 -1 11h-7q-6 6 -16.5 9t-23 5t-25.5 3t-23 2q-28 0 -58 -4t-59 -4q-5 0 -8.5 0.5t-8.5 0.5q-2 0 -13.5 -1t-26.5 -1.5t-30 -1.5 t-25 -1l-93 -4q-47 -2 -92 -7l-5 1l-11 9l-2 4q1 13 8 41t16 58l16 55q8 25 12 33l2 1h1l8 2h5h19q8 -1 15 -1h13h27q20 0 40.5 0.5t47.5 2t63.5 4t88.5 6.5q5 0 17 0.5t25 1.5t24 1.5t15 0.5q34 4 41.5 17t7.5 27v19q-7 20 -36.5 24.5t-66.5 4.5h-76h-64q-48 0 -95 0.5 t-76 3.5l-9 10l-1 4q2 9 9 31l15 47l16 46q7 21 11 29h-1l4 2l6 2q13 1 21 1.5t14.5 1t14 1t20.5 0.5h50l235 8h47q12 0 13 1q3 3 5 3q29 5 39 14.5t10 18.5v8q-6 10 -14 16t-19.5 9.5t-28.5 5.5t-42 4q-32 1 -75 3t-86.5 3.5t-84 2.5t-68.5 1h-59h-38h-24q-12 0 -26 1 q-35 0 -54.5 -3t-31.5 -13t-18.5 -28.5t-15.5 -49.5z" />
<glyph unicode="F" horiz-adv-x="689" d="M601 274q0 2 0.5 3.5t0.5 3.5q0 9 -9 14.5t-29 8.5t-54 3.5t-83 0.5h-185l-1 1q1 1 1 6v1q0 1 2 2q7 31 18 69l20 73q9 34 17 57.5t11 24.5l10 8q28 6 72.5 9.5t121.5 3.5h55q30 0 65 -1q20 -1 37 -1.5t30 -0.5q32 0 46.5 7t14.5 29l-2 42v4q-11 9 -32.5 11.5t-47.5 2.5 q-16 0 -33 -0.5t-33 -0.5h-125h-83h-52q-19 0 -30.5 -0.5t-19.5 -0.5h-18q-10 0 -26 -0.5t-45 -0.5q-5 1 -10 1h-9q-23 0 -37 -9t-22.5 -23.5t-13.5 -32.5t-11 -37l-55 -218l-36 -147l-23 -91q-8 -32 -11 -49l-5 -21q-1 -4 -1 -7v-9q3 -11 9.5 -21t31.5 -24q11 -5 23.5 -7.5 t41.5 -2.5q17 4 29.5 20.5t22.5 40t18 49.5l16 52q7 25 14.5 45t16.5 29q0 2 0.5 3t0.5 2l7 5l10 3h233q14 0 26.5 -0.5t23.5 -0.5q26 0 46.5 4.5t34.5 21.5z" />
<glyph unicode="G" horiz-adv-x="831" d="M802 498l-7 38q-1 1 -1 5q-4 14 -24.5 38t-52.5 47.5t-71.5 41.5t-80.5 20h-30q-13 0 -28 -0.5t-28 -1.5t-23.5 -2.5t-14.5 -3.5q-72 -16 -133 -50.5t-110.5 -80t-87 -98t-63 -104.5t-38.5 -100.5t-13 -84.5q0 -13 2 -23.5t4 -19.5l15 -41q7 -17 17 -29.5t24 -22.5 t34 -18.5t48 -17.5v1q2 -1 9 -3t15 -4t15 -4t10 -3h1l5 -2q33 -8 66 -11t65 -3q65 0 120.5 11t90.5 25q43 13 92.5 38t91.5 54.5t70 60t28 55.5l-2 4q-1 5 -1 9v9q0 14 -4.5 27t-27.5 24q-19 8 -53 9.5t-72 1.5h-47q-38 0 -78.5 -2t-78.5 -5t-69.5 -7t-51.5 -8l1 3 q-29 -10 -42.5 -23.5t-13.5 -25.5q0 -9 7.5 -15.5t22.5 -7.5h-2q18 -10 44 -13.5t58 -3.5q109 18 162 18q35 0 50 -6t15 -16q0 -12 -20 -28t-52 -31t-72 -28t-80 -19q-29 -8 -63 -11.5t-60 -3.5q-18 0 -30 1.5t-10 4.5l-2 1h-5l-19 9l-20.5 12.5t-18.5 14t-9 15.5 q-14 3 -19 19t-5 37q0 24 6 48t17 37q51 91 96 151t90.5 96t94 51.5t106.5 16.5h4q27 0 53 -15t50 -33l44 -34q21 -15 37 -15h2z" />
<glyph unicode="H" horiz-adv-x="869" d="M539 5q11 -14 32.5 -24.5t42.5 -10.5q14 0 25 7q21 0 36 10t24.5 24.5t15 31t7.5 29.5h2l1 4v10l105 447q5 10 9.5 20t9 24t8 33.5t7.5 49.5q-6 41 -75 43h-9q-74 0 -80 -32q-20 -45 -49 -143l-71 -241l-3 -3l-5 -2l-10 -3h3l-303 -4l-11 10l-1 4q5 22 15.5 55t24 68.5 t29 69t31.5 57.5q17 20 17 34q0 15 -12 29.5t-34 19.5q-18 6 -57 6q-15 0 -28 -3l-1 3l-11 -5q-21 -3 -33.5 -11t-21 -20t-13.5 -28t-9 -34l-64 -243l-39 -156q-15 -60 -21 -89.5t-6 -42.5q0 -12 3.5 -17.5t8.5 -8.5q16 -11 37 -16.5t44 -5.5h4q1 0 2 0.5t3 0.5 q8 1 17.5 2.5t18.5 6t16 14t9 27.5q11 37 20.5 74.5t20.5 74.5q3 6 4.5 13t8.5 19l2 1l9 3q31 1 72.5 2.5t83 2.5t79.5 1.5t64 0.5l5 -2h-3l10 -8l1 -4q-4 -16 -5.5 -24t-2 -14t-1.5 -13l-1 -21z" />
<glyph unicode="I" horiz-adv-x="347" d="M124 -27h15l14 15q5 6 8 11t5 11t4 17q0 1 6 21l14 51q8 32 20 73l25 85l25 88l24 81q6 28 17 52t19 47q8 19 14 43l13 47q0 13 -7.5 25.5t-20.5 21.5t-29.5 14.5t-35.5 5.5h-18q-8 7 -19 7q-23 0 -46 -44t-48.5 -128.5t-53.5 -206.5l-63 -280q5 -18 19 -29l1 -1h-4 q6 0 10 -4z" />
<glyph unicode="J" horiz-adv-x="685" d="M555 676q-21 -3 -35 -21t-29.5 -69.5t-35.5 -145.5l-53 -251v-6q0 -18 -9.5 -39.5t-26.5 -40t-39.5 -31.5t-47.5 -13q-14 0 -27.5 4t-27.5 13q-18 9 -38.5 23t-42 26.5t-43.5 22t-44 9.5q-23 0 -40 -13.5t-27 -46.5v-2q0 -24 22 -46.5t58 -28.5q66 -29 129.5 -44 t120.5 -15q54 0 100.5 14t81.5 42.5t57.5 71.5t28.5 102q13 49 21.5 87t16.5 68q7 42 16 75.5t19 65.5l19 65q10 34 20 77q0 27 -10 32q-22 10 -43 15.5t-40 5.5q-11 0 -16.5 -0.5t-12.5 -1.5z" />
<glyph unicode="K" horiz-adv-x="789" d="M281 411l250 139l35 17l22 11l25 14l46 27l23 14q12 7 23 15q33 21 52 31t38 10q13 0 26.5 -3.5t25 -9.5t19 -14.5t9.5 -19.5q0 -17 -14 -27t-36 -22l-240 -139q-7 -4 -14 -10l-14 -10q-7 -4 -26 -13l-42 -22l-50 -26q-26 -14 -48 -27.5t-36 -25t-14 -17.5t14 -7 q30 -23 59 -43l56 -40l87 -64q40 -29 69 -54.5t45 -46.5t16 -38q0 -31 -51 -49q-32 6 -56 18t-47 28.5t-48.5 37t-60.5 43.5l-35 24l-37 27l-26 18q-31 25 -55 39.5t-35 18.5l-6 -1l-11 -6l-2 -2q-27 -84 -44 -131.5t-30.5 -71t-26.5 -30t-34 -9.5h-15q-14 0 -28 2.5 t-34 11.5q-14 11 -18 31v10q1 16 3 25.5t4 17.5l4 18l7 27l33 117l27 103l31 112l40 146v10q0 35 25.5 54.5t63.5 19.5h7q3 0 6 0.5t6 0.5q15 0 31 -4.5t29 -12.5t21.5 -18t8.5 -21v-5q0 -21 -6 -41t-14 -40q-7 -17 -12 -32.5t-6 -28.5q0 -1 -2 -9l-4 -18q-3 -9 -5.5 -17.5 t-3.5 -11.5z" />
<glyph unicode="L" horiz-adv-x="624" d="M179 81v2l5 18v2l131 350l6 5q7 17 16 35l17 37q9 19 14.5 37t5.5 33q0 23 -17 37.5t-62 14.5q-20 0 -44 -3q-45 -2 -67 -12.5t-29 -37.5v-2q-11 -11 -13 -25t-2 -30v1l-22 -68l-16 -55l-14 -51l-15 -58l-20 -77l-27 -105q-2 -10 -6 -24l-7 -28q-3 -14 -5.5 -27.5 t-2.5 -22.5q3 -20 7 -32t17 -20v-3q25 -11 42 -14t36 -3q84 10 148 15l120 11q61 5 120.5 12t119.5 20q7 9 9 15t2 14q0 20 -15.5 32t-33.5 12q-6 0 -8 -1q-33 -2 -55 -3t-37.5 -2t-28 -2t-27.5 -3q-1 -1 -5 -1l-55 -5q-21 -2 -42 -3.5t-49 -2.5t-75 -3h2l-11 3l-5 4l-4 7v2 q2 1 2 5z" />
<glyph unicode="M" horiz-adv-x="1041" d="M150 19v1l155 335l4 2l15 -2l5 -4q0 -45 0.5 -74.5t0.5 -50.5v-34v-21q-1 -10 -2 -22.5t-1 -26.5q0 -20 3 -41t10.5 -38t21 -28t35.5 -11h5q13 0 37 8q21 7 37 15l18 9q14 17 35 49l47 73l44 69q24 36 46.5 66t42 51t32.5 26l6 1l18 -6l1 -2l-18 -69q-7 -30 -12.5 -56 t-8 -50.5t-2.5 -51.5q-1 -3 -2 -16t-1 -28v-20q0 -4 1 -7.5t2 -6.5q4 -20 10 -35t20 -25l11 -9q29 -13 69 -13q9 0 24 3q17 1 26 4t13.5 7.5t5.5 10.5t1 13v21q0 75 12 143.5t35 137t56.5 138t76.5 145.5v5q0 18 -14 33.5t-36.5 27t-50 19.5t-53.5 11q-35 0 -64 -20.5 t-55 -43.5v1q-1 -1 -1.5 -2t-1.5 -2q-4 -3 -4 -5q-24 -21 -57 -54t-72 -76.5t-82 -97.5l-89 -114l-6 -3l-18 2l-4 5q1 49 3 82t4.5 57.5t6 45.5t8.5 46q4 7 8 18.5t7 23.5t5 23t2 17q-4 15 -19 24t-34.5 13.5t-41 6.5t-37.5 3h-15q-10 0 -13 -1h1q-25 -1 -43 -5.5t-31.5 -12 t-23.5 -18t-19 -23.5l-17 -35l-14 -28l-13 -24q-6 -11 -12 -24l-34 -65l-37 -74l-46 -101l-66 -145h1q-2 -5 -6.5 -14.5t-9 -21t-8 -23.5t-3.5 -21v-5q1 -26 19 -40t43 -14h29q22 0 30 4z" />
<glyph unicode="N" horiz-adv-x="835" d="M770 675q-21 -3 -36 -13t-25.5 -23.5t-17 -30t-10.5 -32.5l-5 -19l-13 -50l-21 -70l-25 -80l-26 -81q-14 -40 -27 -72l-4 -2l-16 -1q-22 39 -38.5 75t-29.5 70.5t-23 68.5t-17 71q-4 6 -4.5 16.5t-0.5 24.5v16q0 17 -1.5 35t-7.5 33t-18.5 25t-33.5 11 q-67 -3 -105.5 -12.5t-59.5 -25t-30 -38t-16 -51.5l-33 -99l-51 -160l-35 -109l-22 -70q-8 -25 -12 -39t-5 -20t-1 -10v-8q0 -14 8 -25.5t20.5 -20t28.5 -13t32 -4.5q25 0 44 11t23 37v5q7 17 24 62t36 101l36 115q18 60 27 105l6 4l16 1l5 -3q24 -68 50 -125.5t50.5 -101.5 t45.5 -73t35 -39q29 -30 57 -43.5t52 -13.5q29 0 50.5 15t32.5 41l40 102l21 54q8 19 11.5 29t8.5 27q2 11 7.5 28.5l11.5 35.5l13 36q6 17 10 27q3 6 10.5 22.5t15.5 40t15 50t11 52.5q9 18 17 39.5t8 41.5q0 26 -17 39z" />
<glyph unicode="O" d="M571 657q-87 -8 -148 -19.5t-99 -28.5q-33 -15 -52.5 -25t-30.5 -15q-55 -32 -99 -74t-75.5 -88.5t-48.5 -95.5t-17 -94v-15q0 -10 1 -13q4 -23 13 -47.5t35 -53.5v1q21 -28 47 -48.5t59 -35.5t73.5 -25t90.5 -16q27 -5 52 -6.5t54 -1.5q83 0 150 13.5t118 44.5 q57 39 98.5 85.5t68.5 95.5t40 99.5t13 97.5v22q0 5 -1 11t-2 11q-3 19 -8.5 38.5t-16.5 37.5q-26 39 -56 65t-60.5 43t-61 25.5t-56.5 11.5h-81zM610 573q37 0 72 -18q32 -18 48 -52.5t22 -68.5q3 -15 3 -33q0 -55 -23 -118t-70 -117.5t-120 -91.5t-172 -40q-14 0 -36 6.5 t-45 15.5q-51 13 -77 42t-28 65q-2 1 -2 4q1 32 14 71.5t36 80.5t55.5 81t72.5 73.5t87 58t100 34.5q13 3 28.5 5t34.5 2z" />
<glyph unicode="P" horiz-adv-x="760" d="M497 264q60 21 108 43.5t81 48t51 54.5t18 63q-7 51 -39.5 86t-104.5 61q-28 10 -69 19t-88 16.5t-95.5 12t-91.5 5.5h-3q-29 0 -49.5 -7t-37.5 -19q-32 -27 -43.5 -56t-21.5 -65l-11 -49l-12 -51l-37 -150l-38 -149q-8 -26 -14 -56t-9 -56v-4v-2q0 -8 11 -17t26.5 -17 t34 -13.5t33.5 -5.5q11 0 16 2q18 3 28.5 7t16.5 10t9 15.5t5 23.5q0 24 9 51l32 133l-1 -1l1 2l12 8q47 5 85.5 10.5t71 12.5t61 15.5t55.5 18.5zM259 303l-4 1l-14 11l-1 3l7 35l8 34l17 77q8 34 17 58.5t19 38.5t23 14q24 0 55 -2t63.5 -6.5t62.5 -12t53 -18.5q0 -3 4 -3 q1 -1 5 -1q38 -29 38 -56q0 -24 -25.5 -45.5t-68.5 -42t-100 -40t-119 -38.5z" />
<glyph unicode="Q" horiz-adv-x="910" d="M899 379q0 -75 -35.5 -152.5t-106.5 -134.5h3q-37 -30 -69 -46q4 -18 6 -21.5t3 -3.5q15 -5 34 -10t36.5 -12t29 -17t11.5 -25q0 -3 -0.5 -6t-1.5 -7q0 -14 -4.5 -25t-7.5 -16q-15 -14 -38 -14q-18 0 -37.5 6.5t-36.5 15.5t-30 18l-21 14q-20 11 -38.5 24t-40.5 19 l-51 -14q-15 -4 -27.5 -6t-27 -3.5t-33.5 -2t-46 -0.5q-49 0 -101 10t-119 39q-41 17 -66.5 36.5t-40.5 40t-21 41.5t-8 42q0 5 -1 11t-1 12q0 60 24.5 131t84.5 144q31 40 79.5 75.5t105.5 61.5t118.5 41.5t119.5 15.5q27 0 46 -3.5t45 -5.5q41 -6 73 -16t57.5 -24 t46.5 -33.5t39 -43.5q17 -24 27 -49.5t14.5 -47.5t5.5 -38t1 -21zM556 105l53 38q30 24 53 56t38.5 68t23.5 73.5t8 72.5q0 10 -0.5 19t-1.5 17q-5 42 -28.5 78.5t-72.5 48.5q-20 3 -38 3q-35 0 -66.5 -5.5t-53.5 -12.5q-57 -29 -112.5 -67t-100 -83t-72 -94t-27.5 -100 q0 -21 9.5 -52t29.5 -59t50.5 -48t72.5 -20h15q9 0 20 1l22 2q12 1 22 4q-14 11 -23 16t-16.5 7t-15.5 4.5t-21 8.5h-2q-2 1 -3 2q-22 9 -22 25q0 9 7 18.5t17.5 17t22.5 12.5t22 5q6 0 9 -1q26 0 54.5 -10t55.5 -21v1l2 -2h1q1 0 2 -1q22 -10 38 -16t28 -6z" />
<glyph unicode="R" horiz-adv-x="789" d="M782 509q-5 28 -26 46t-66 43q-98 36 -182.5 47t-163.5 11q-21 -1 -44 -1.5t-44.5 -3.5t-40.5 -10.5t-33 -22.5v1q-6 -6 -12 -15.5t-11 -19.5l-9 -19q-4 -8 -5 -11l-59 -215l-41 -147l-25 -92l-13 -51q-5 -18 -6 -24.5t-1 -10.5v-8q2 -23 40 -43q7 -4 24.5 -12t27.5 -8h3 q20 0 32.5 12.5t12.5 31.5v2l2 4q5 8 17 33l27 56l29 64q15 32 27 54h4l63 -43l58 -40h-1q3 -2 6 -5t14 -9q30 -24 59 -44t59.5 -38t63.5 -33t71 -28q23 6 38 13t15 27q25 4 25 16q0 9 -17 22.5t-44 30.5t-62 36l-70 41q-35 22 -68 45.5t-57 47.5v1v-1l-2 4l4 9l8 6 q61 13 124.5 33.5t116.5 47t91 58t48 66.5zM567 407l-2 -1q-32 -15 -61 -25t-58.5 -16t-61 -9t-69.5 -5q-20 -13 -33 -13q-17 0 -17 27q0 23 10.5 58.5t23 69.5t23 58.5t10.5 26.5l-1 -1q27 0 60.5 -1t68 -5t66.5 -11t54 -20h-1l2 -2q6 -5 14 -10.5t16.5 -12.5t14.5 -14 t8 -14q0 -4 -5 -13.5t-12 -21.5z" />
<glyph unicode="S" horiz-adv-x="811" d="M394 606q-36 -14 -68 -30t-58.5 -34t-46.5 -36t-32 -36q-20 -30 -33.5 -55t-13.5 -48q1 -24 16 -47.5t38 -44t51.5 -37t56.5 -27.5l20 -7q8 -3 13 -7q18 -7 37.5 -11t41.5 -8q19 -3 38.5 -7t36.5 -8t29 -8.5t16 -9.5q22 -8 28.5 -15t7.5 -15v-4q0 -10 -7.5 -18.5t-18 -15 t-22 -10.5t-18.5 -5q-4 -2 -20 -3.5t-35 -2.5t-37 -1.5t-25 -0.5q-16 0 -30 1t-29.5 3t-34.5 6l-44 8q-34 14 -65 33.5t-52 45.5q-9 11 -19.5 21.5t-29.5 18.5h-1q1 0 1 1q-18 -2 -39.5 -3.5t-35.5 -12.5l-1 -1q-20 -19 -20 -41t19.5 -43.5t51.5 -41t74.5 -36t89 -29 t93.5 -19.5t88 -7q11 0 21.5 0.5t19.5 1.5q38 0 65 7t53 12q48 14 83.5 33.5t62.5 43.5q23 21 33.5 42t10.5 23q-2 4 -3.5 14t-4.5 18q-18 31 -60 58t-114 38q-42 13 -86 23.5t-89 25.5q-1 1 -6 1q-35 2 -55 24.5t-20 51.5q0 26 16 46q29 35 75.5 66t103.5 45h5 q19 0 42 -1.5t46 -6t45.5 -13t40.5 -21.5q29 -18 47.5 -28t31.5 -12h6q33 0 45 13.5t12 33.5q0 7 -1 14.5t-4 12.5q-8 17 -26.5 28t-59.5 28q-48 20 -92 35.5t-103 20.5q-9 0 -10 -1q-30 0 -60.5 -5.5t-59.5 -14.5z" />
<glyph unicode="T" horiz-adv-x="729" d="M762 566q21 6 30.5 18t9.5 26q0 22 -22.5 41t-64.5 19q-14 0 -30 -3q-19 0 -48 1t-62 1h-20h-10q-5 0 -10 -1q-5 0 -31.5 -0.5t-59 -1.5t-63 -2.5t-44.5 -2.5h-98q-37 0 -58 0.5t-34 0.5h-21q-16 0 -39.5 -1.5t-72.5 -3.5q-19 -2 -26.5 -13.5t-7.5 -26.5t6.5 -31.5 t14.5 -28.5q26 -5 47 -7t48 -2h43h97l11 -11l-1 1l1 -5l-53 -211l-36 -143l-22 -88q-8 -32 -12.5 -48t-6.5 -20.5t-3 -6.5q0 -10 4 -17t22 -24v1q4 -6 19.5 -10t34.5 -4q13 0 26 2t23.5 7t17 13t6.5 20v7l59 213l38 140l23 86q8 30 15 47.5t14 28t20 26.5z" />
<glyph unicode="U" horiz-adv-x="792" d="M602 518q-6 -32 -14 -68.5t-26 -93.5q-10 -33 -22 -68t-24.5 -67t-26 -58t-25.5 -40l-47 -49l-3 -4q-15 -9 -34 -14t-37 -7.5t-32.5 -3t-21.5 -0.5h-3h-4q-9 0 -26.5 4t-34 13t-29 22.5t-12.5 31.5q0 6 1 10q0 23 8 54t22 69l55 146l32 82q12 29 17.5 40t7 19t2.5 19.5 t5 41.5v2q0 11 -11 21.5t-27 19t-34 15t-33 9.5q-11 0 -21 -2.5t-20.5 -9t-22 -18t-26.5 -29.5l-1 -6v1q-3 -4 -9 -20.5t-14 -43.5l-30 -79l-21 -57l-14 -41q-6 -18 -10.5 -35t-9 -36t-9.5 -46q-8 -38 -8 -74q0 -38 14.5 -74t56.5 -64l9 -3q57 -37 101.5 -51.5t91.5 -14.5 q5 1 9 1h10q11 0 24.5 -0.5t26.5 -0.5h10q2 1 5 1h5q84 0 142 36.5t98 94t66.5 127.5t47.5 138q20 59 38.5 125t26.5 128q0 18 -1 31t-8 33q-5 7 -16 12.5t-24.5 9.5t-27 6t-23.5 2q-6 0 -13 -3t-14 -7t-12 -8t-7 -5z" />
<glyph unicode="V" horiz-adv-x="825" d="M84 64l9 -26q5 -15 13 -28.5t19 -25.5t26 -19q14 -2 31.5 -3.5t34.5 -1.5q34 0 69 4.5t63.5 14t46.5 25t18 37.5v3l132 201q53 79 90.5 129.5t62.5 80.5l45 53q6 10 22 27l34 35l34 38q16 18 21 32q0 8 -4 17.5t-11.5 18t-17 14t-21.5 5.5q-1 2 -8 2.5t-17 0.5 q-15 0 -30 -1.5t-20 -5.5q-34 -20 -74 -61t-82.5 -92.5l-85.5 -108.5l-81 -111l-71 -99q-33 -45 -55 -71l-15 2l-3 5l-9 28q-5 16 -8 31l-4 40q-2 19 -2 37v68q0 48 5 80t11 55q7 25 8.5 49t1.5 41q-2 13 -11.5 22.5t-22.5 16t-28.5 9.5t-30.5 3h-7h-20q-10 0 -13 -1 q-39 -7 -55.5 -33.5t-24.5 -69.5q-3 -18 -5 -46.5t-2 -64.5q0 -42 3 -91t11 -109z" />
<glyph unicode="W" horiz-adv-x="1096" d="M84 -13v1q32 -17 57 -17q21 0 39 5h2q10 -2 17 -2q20 0 36 14t32 41t35 66l43 89l28 53q11 22 20.5 36.5t16.5 24t14 17.5l11 3l12 -2l7 -4q4 -35 5.5 -46.5t2 -16.5t2 -10.5t5.5 -27.5q5 -22 9.5 -45t11.5 -44q4 -19 11.5 -42t19.5 -45.5t28.5 -41t39.5 -27.5 q20 -5 38.5 -7t32.5 -2q23 0 37.5 0.5t31.5 4.5q15 4 24.5 8t15.5 10t10.5 15t10.5 24h1l29 56l26 54l33 66l46 87l68 121l97 166v1q1 0 1 1v-2q11 13 15.5 25t9.5 28l-1 1v1q0 2 -1 3h5q-19 23 -39.5 32.5t-43.5 9.5q-11 0 -21 -1.5t-21 -3.5q-26 0 -52.5 -22.5t-54.5 -63 t-59 -96.5l-66 -122q-21 -42 -43 -81l-45 -81l-4 -2l-14 2l-6 4q-5 35 -8 60t-4.5 43.5t-1.5 33.5v33v67v36q0 12 -0.5 15.5t-0.5 4.5q-1 10 -4 18t-14 13q-14 6 -29 10.5t-29.5 7.5t-26 4.5t-18.5 1.5q-47 -5 -83.5 -33.5t-65.5 -64.5q-17 -20 -29 -36l-24 -33l-25 -36 l-33 -47l-7 -3l-16 4l-4 5q5 74 12.5 113.5t14.5 65.5v-1q2 12 4 21.5t3.5 20.5t3 25t2.5 35q-4 25 -32.5 36.5t-59.5 11.5q-21 0 -34 -4q-26 -2 -40.5 -8t-22 -16.5t-11 -26t-7.5 -36.5v-2q-11 -57 -18 -130t-7 -155q1 -51 2.5 -106t8.5 -112q3 -14 10 -27.5t25 -21.5z" />
<glyph unicode="X" horiz-adv-x="789" d="M249 629h-12q-11 0 -27 -1t-33.5 -3.5t-34 -5.5t-26.5 -7q-15 -5 -20 -15.5t-5 -21.5q0 -10 2.5 -19.5t6.5 -16.5l6 -3l-1 2l18 -28l33 -54l40 -73q21 -40 40 -82l1 -3l-2 -8l-71 -71l-53 -53l-41 -41l-37 -39l-38 -42l-49 -53q2 -21 55 -29l11 -2h5h14q31 0 66 15 l119 110l35 32l26 25q13 10 21.5 18.5t13.5 15.5l5 2l14 -1l4 -3q16 -22 43.5 -54.5t57.5 -63.5t58.5 -54t47.5 -26v-1q21 -3 37 -3q25 0 45 7q23 2 32.5 9t9.5 15q-2 18 -17.5 35t-33.5 33l-36 32q-17 16 -23 32q-14 16 -25.5 31t-23 33.5t-22.5 41.5t-24 54h-1v1l2 8 l-1 -1l3 4v-1l63 57q21 19 32 30l11 9l1 1q1 1 1 3l4 3q6 6 13 12l18 15l27 22l41 34q35 30 60 49l43 32l35 25l37 27q6 6 6 13q0 10 -10.5 19.5t-26 17t-33 12t-30.5 4.5h-5q-13 0 -27.5 -4t-32 -15t-39 -29.5t-48.5 -48.5l-197 -161l-8 -3l-14 3h-1q-26 32 -44 61l-31 54 q-14 25 -27.5 45.5t-32.5 35.5z" />
<glyph unicode="Y" horiz-adv-x="720" d="M731 667q-8 11 -28 17.5t-43 6.5q-36 0 -61 -22l-163 -143q-78 -71 -147 -143l1 1h-1q-11 14 -24 38l-28 56q-12 25 -25.5 50.5t-28 48t-30.5 40.5t-34 29q-9 2 -20.5 3t-22.5 1q-19 0 -37 -2t-29 -9q-11 -6 -15 -15.5t-4 -22.5v-5q0 -16 8.5 -33t19.5 -33 q18 -21 36.5 -56t35 -73t29.5 -74.5t19 -60.5v-4l-52 -238q3 -23 37 -39l11 -9q54 -16 84 -16q26 0 38.5 14.5t21.5 47.5t20.5 86t36.5 129l7 27q3 11 8.5 21t13.5 21t22 25q45 53 117.5 118.5t185.5 149.5l14 9l16 11q9 6 15 13t6 15v3v1q0 1 -0.5 1.5t-0.5 1.5z" />
<glyph unicode="Z" horiz-adv-x="912" d="M757 458l53 39q28 20 52.5 42t40.5 42.5t16 38.5q0 19 -23.5 32t-83.5 18q-25 0 -62 -3q-7 0 -27.5 -0.5t-43.5 -1.5t-43.5 -1.5t-26.5 -0.5h-29h-41q-15 0 -40 -1t-74 -5q-114 -6 -184 -11.5t-109 -12.5t-52 -15.5t-13 -18.5q0 -4 4 -14v-4v-6q0 -14 3 -28t20 -19 q19 -12 33.5 -15.5t32.5 -3.5q11 0 25.5 1t31.5 3q8 0 29 1.5t49 4.5l60 5q32 3 63 7l58 6q27 3 44 6l-3 -2q17 2 32 3.5t28 1.5q26 0 47 -10v-5l-519 -380l-33 -25q-16 -14 -29 -29t-21 -30.5t-8 -30.5v-4q-3 -7 -5 -13.5t-2 -17.5q0 -6 10 -21q15 -13 43 -18t69 -5 q129 2 213 8.5t130 6.5h17q25 -1 62.5 -1.5t72.5 -0.5h40q8 0 14 0.5t13 1.5q57 1 78.5 10.5t21.5 25.5q0 14 -15 32v2q-6 46 -104 46h-61h-27q-17 0 -31 0.5t-37 2.5q-11 0 -26 -0.5t-40 -1.5t-62 -3l-93 -5l-20 10v3z" />
<glyph unicode="[" horiz-adv-x="466" d="M444 76q0 15 -7 24q-16 19 -41 24q-15 4 -74 9q-51 3 -71 9q-7 3 -14.5 12.5t-7.5 15.5t1.5 17t3.5 23t3.5 22.5t1.5 15.5q4 48 5.5 98t1.5 104q0 25 -0.5 42.5t-1.5 27.5q-7 45 -11.5 76.5t-8.5 53.5l-6 15l-11 28q-12 28 -12 38q0 12 19 19l34 3q14 2 24 2q15 2 31 3.5 t32 3.5q18 2 32.5 5t24.5 8q53 21 53 51q0 24 -24 39q-8 6 -51 6h-175q-4 -1 -10 -1h-10h-16h-24q-126 0 -126 -82q0 -12 3 -27.5t14 -36.5q8 -17 14.5 -32.5t14.5 -32.5q8 -19 15 -33t11 -23q7 -40 11 -70t7 -50q2 -23 3.5 -36.5t1.5 -18.5q0 -8 -1 -29t-2 -57q-1 -3 -1 -9 v-8v-12v-12q-1 -11 -6 -37l-13 -71q-13 -64 -15 -107v-4v-3q0 -33 39 -49q18 -5 41 -10t53 -9q25 -2 47.5 -4t48.5 -4q22 -2 34 -2.5t16 -0.5q35 0 66 25q33 25 33 51z" />
<glyph unicode="\" horiz-adv-x="745" d="M695 83q0 31 -294 420l-34 38q-14 16 -25 27l-67 74l-50 54q-8 9 -23 29l-40 51q-19 25 -35.5 44t-31.5 32q-25 23 -35 23q-103 0 -103 -75q0 -25 15 -46l47 -55l35 -41l113 -127l80 -90q48 -54 76 -91l41 -56q32 -51 61.5 -93.5t59.5 -79.5q44 -56 49 -65q39 -57 62 -57 q28 0 63 31q36 33 36 53z" />
<glyph unicode="]" horiz-adv-x="466" d="M456 788q0 23 -5.5 37.5t-18 22.5t-33 11t-50.5 3q-22 0 -58.5 2t-90.5 6l-93 9q-15 0 -23.5 0.5t-11.5 0.5q-15 0 -47 -20q0 -38 17 -62.5t58 -32.5q13 -4 77 -7q24 -1 42.5 -2.5t30.5 -5.5q19 -8 19 -19t-13 -38q-14 -32 -15 -43l-14 -86q-4 -29 -6 -49.5t-2 -31.5 q0 -109 2.5 -180t10.5 -108q2 -11 3 -17.5t1 -7.5q0 -26 -36 -30l-78 -10q-32 -4 -55 -6q-7 -2 -15 -5.5t-15 -9t-12 -11t-5 -10.5q0 -33 29 -62q28 -26 71 -26q-3 0 21.5 3t75.5 8l83 9q61 8 72 17q27 21 27 33q0 15 -2 16q-11 72 -18 125.5t-14 89.5q-1 2 -1 10v10v16 q-2 33 -3 55.5t-1 35.5q0 48 6 90.5t16 84.5q3 9 13.5 33t29.5 63q31 62 31 89z" />
<glyph unicode="^" horiz-adv-x="537" d="M496 674v1q15 -23 15 -49q0 -37 -31 -54q-24 -11 -43 -11q-12 0 -23.5 4t-23.5 9q-6 2 -11 5.5t-10 5.5l1 -1q-17 9 -30.5 15t-27.5 10.5t-29.5 7t-35.5 4.5l-18 -12l-14 -10l-28 -20l-36 -24q-24 -15 -50 -15q-42 0 -64 33q-10 16 -10 34q0 23 13 41t31 29q15 11 23 14 l17 7q7 3 15 6t24 14q5 4 9 5t6 3l6 4q8 27 24.5 38.5t41.5 11.5h9q4 0 8 -1q23 -2 50 -12.5t47 -20.5l6 -2h-1q20 -8 29 -11t16 -5h-1q12 -3 21.5 -6.5t27.5 -14.5l5 -2q6 -2 8 -4q11 -5 18.5 -10t15.5 -17z" />
<glyph unicode="_" horiz-adv-x="661" d="M642 -48q0 -11 -2.5 -23t-9.5 -24q-14 -27 -39 -32q-3 -1 -37 -3q-99 -8 -254 -15q-18 -1 -32 -1.5t-24 -0.5h-97q-61 0 -96 27.5t-35 76.5q0 8 18 25q17 14 28 14h175l25 1q24 1 73 4l195 13h10h7q7 0 10 -1q85 -9 85 -61z" />
<glyph unicode="`" horiz-adv-x="339" d="M259 596q23 7 34 13t11 20q0 10 -14 33q-10 16 -24.5 34t-31.5 35.5t-35 32t-34 23.5q-19 10 -37 15.5t-32 5.5q-20 0 -31 -8.5t-11 -28.5q0 -9 0.5 -13t2.5 -9q7 -16 14.5 -27.5t18 -21t24 -18.5t33.5 -21l36 -21q15 -9 21 -16q19 -19 33 -23.5t19 -4.5h3z" />
<glyph unicode="a" horiz-adv-x="770" d="M735 248q5 24 9 45.5t10.5 45.5t17 52.5t30.5 66.5q-4 18 -17.5 30.5t-33.5 20t-45 10.5t-52 3q-22 0 -40.5 -1t-32.5 -3l-113 -11l-100 -10q-49 -5 -95.5 -11.5t-93.5 -15.5q-18 -16 -22.5 -29t-4.5 -33v-25q0 -11 12.5 -14.5t31.5 -3.5q49 0 97.5 7t97.5 15l82 11 q41 5 83 5h26q7 0 13.5 -0.5t13.5 -1.5h2q15 -4 20.5 -8t5.5 -8q0 -2 -1 -5t-2 -5q-5 -17 -7.5 -35.5t-20.5 -31.5l-7 -2q-50 13 -92.5 21t-94.5 9h-6q-44 0 -85 -6t-82 -21t-83 -40.5t-87 -63.5q-26 -23 -36.5 -48.5t-10.5 -51.5q0 -27 10 -50.5t27 -39.5q25 -25 59.5 -35 t76.5 -10q39 0 82.5 8t87 21t85 29.5t75.5 32.5h9q5 -5 6 -10.5t1 -11.5q0 -11 -2.5 -21t-2.5 -18q0 -31 40 -31q5 0 11 2t13 2q5 0 7 -1q8 -3 15 -4t14 -1q17 0 29.5 8t20.5 20t11.5 27t3.5 30v9zM224 99h-22q-31 10 -31 26t25 33.5t59 32.5t69.5 25t56.5 10h4h1 q11 1 20 1.5t20 0.5q38 0 69.5 -8t35.5 -28l-2 -5q-62 -40 -139.5 -64t-165.5 -24z" />
<glyph unicode="b" horiz-adv-x="784" d="M794 229q15 25 18.5 47.5t3.5 48.5v31q0 29 -12 54.5t-38 44.5q-29 12 -67 17t-80 5q-79 0 -154.5 -16.5t-158.5 -43.5l22 88q11 48 11 91v10q0 6 -2 11q-10 4 -19 6.5t-17 2.5q-23 -2 -47 -8t-47 -10q-6 -13 -12 -24t-13 -31t-17 -54t-25 -93l-36 -148l-49 -219 q0 -8 1 -10q7 -30 38.5 -40.5t76.5 -10.5q31 0 63.5 1.5t61.5 5.5q69 12 140.5 27t136 38.5t116.5 56.5t82 81zM681 302q0 -23 -13.5 -42.5t-36 -37t-52.5 -33t-64 -30.5q-61 -20 -128 -34.5t-135 -14.5h-20h-11q-5 0 -7 1l-5 3q-3 5 -3.5 9t-0.5 9q0 18 5 34t11 32t11 33 t5 35l4 4q2 0 5 4l1 1q14 9 41 23.5t57 16.5q60 16 115 25.5t105 9.5q31 0 57.5 -4.5t49.5 -16.5l3 -2q1 -1 1 -4t1 -4q4 -8 4 -17z" />
<glyph unicode="c" horiz-adv-x="767" d="M559 365q-26 5 -52 9t-52 4q-57 0 -105.5 -15.5t-93.5 -40.5q-12 -2 -27.5 -12.5t-29.5 -26t-23.5 -35t-9.5 -39.5q0 -25 15 -44q2 -10 11 -21t25 -20.5t39.5 -16t53.5 -6.5h17q10 0 19 2q38 0 76.5 4t74.5 11q24 5 49 14l50 18q25 9 50 17t49 11h6q11 0 20.5 -5.5 t16 -14.5t10 -19.5t3.5 -20.5q0 -11 -5 -21t-14 -14q-41 -22 -75.5 -36.5t-69.5 -24.5t-73 -17.5t-87 -14.5q-53 -9 -100 -9q-53 0 -97.5 11t-89.5 34q-29 15 -46.5 29.5t-28 31t-17 35.5t-13.5 43q0 8 2.5 24.5t6 34.5t7.5 35t8 26q29 66 102 117t194 84q37 8 72 11.5 t68 3.5q109 0 195.5 -32.5t133.5 -86.5v-1q0 -4 5 -6v-1q0 -9 -13 -21.5t-32.5 -23.5t-41 -19t-38.5 -8q-18 0 -25.5 5.5t-21.5 13.5h-2q-1 1 -2 1t1 0l-2 1l-46 25q-20 10 -46 17h-1z" />
<glyph unicode="d" horiz-adv-x="830" d="M925 672q0 8 -22 16t-51 8q-17 0 -34 -4t-30.5 -13.5t-22.5 -26t-10 -40.5q-3 -14 -8.5 -32t-7.5 -35l-17 -64q-9 -33 -23 -58l-5 -3q-3 -1 -12 -1h-7q-15 0 -29 4t-29 17q-44 11 -97 21.5t-113 10.5q-40 0 -79.5 -7.5t-80.5 -25.5q-38 -12 -71 -34.5t-58 -55t-41 -74.5 t-20 -91q-5 -16 -6 -31t-1 -28q0 -45 19.5 -74t61.5 -50q22 -10 52.5 -16t65.5 -6q79 0 165 21.5t160 57.5l8 -2q3 -4 3 -14q0 -8 -1.5 -14.5t-1.5 -13.5q0 -15 13 -24q40 -3 72 -3q33 0 54.5 3.5t34 11.5t17 20.5t4.5 29.5q0 20 -3 46q4 5 10 42.5t23 103.5q4 15 13 44 l21 68l25 80l27 82l24 73q11 34 17 55zM611 194q-31 -19 -60.5 -33t-60.5 -24t-64 -17t-70 -11q-28 -3 -50.5 -5t-41.5 -2q-23 0 -39 3q-15 2 -23.5 9.5t-12 19t-4.5 24.5t-1 26q4 19 7 36t11 33t23 32.5t42 35.5q26 17 51 23t52 6q26 0 55 -5t60 -13h1q12 -2 25.5 -5 t29.5 -5q23 -5 49.5 -18.5t41.5 -26.5l2 -2q0 -3 0.5 -6t0.5 -6v-23q0 -12 -4.5 -22t-18.5 -23z" />
<glyph unicode="e" horiz-adv-x="704" d="M686 30h-1q-84 -22 -167.5 -36.5t-161.5 -14.5q-60 0 -112 9.5t-100 35.5q-37 20 -65 47.5t-28 67.5q-1 5 -1 10v11q0 54 21 102.5t51 87.5t63 66t57 38q31 13 66.5 21t72 13.5t72.5 8t68 4.5q52 0 98 -6.5t81 -19.5q31 -11 45 -38.5t14 -56.5q0 -28 -7.5 -52t-26.5 -43 q-37 -44 -85.5 -68.5t-104 -36.5t-115 -15.5t-119.5 -4.5q-14 0 -29.5 -0.5t-30.5 -2t-28.5 -5.5t-22.5 -11q22 -37 56 -47.5t79 -10.5q42 0 89 7t98 16q26 5 43 10l35 10q26 8 50.5 14.5t43.5 6.5q21 0 31 -13.5t10 -33.5t-9.5 -41t-29.5 -29zM582 301l44 51v4q0 9 -9.5 16 t-25.5 12t-35.5 7.5t-40.5 2.5h-14q-8 1 -16 3t-20 2t-29 -2.5t-42 -9.5q-20 -1 -49 -10t-56 -23t-47 -32.5t-21 -37.5v-3q1 -3 6.5 -5t24 -4.5t54 -5.5t96.5 -7q49 4 77 6.5t45 6.5t29 10.5t29 18.5z" />
<glyph unicode="f" horiz-adv-x="542" d="M685 695q-6 1 -11 1h-10h-42q-17 0 -30.5 -0.5t-25.5 -0.5h-24q-19 0 -57 -0.5t-80.5 -1.5t-82 -1.5t-60.5 -0.5q-19 -3 -33.5 -9t-26.5 -22.5t-22 -46t-20 -80.5q-4 -56 -14 -102.5t-23 -88t-26.5 -80.5t-25 -79t-19 -84.5t-7.5 -96.5q0 -16 10 -27.5t39 -11.5 q22 0 37 4q35 6 53.5 17.5t26.5 27t10 33.5t4 38q4 24 7 52t8 58t12.5 62t19.5 64q20 7 43 7q7 0 13.5 -0.5t15.5 -0.5q6 0 12.5 0.5t14.5 1.5q36 4 63 6t47 4.5t33 7.5t21 15q10 13 10 26q0 10 -2.5 19.5t-2.5 17.5q0 26 -12 30.5t-41 4.5q-21 -3 -45 -6l-46 -5 q-23 -2 -43 -3t-34 -1l3 22q3 23 9 49.5t14.5 49t20.5 22.5q19 0 47 -0.5t57 -2.5t55.5 -5.5t41.5 -9.5q1 0 16.5 -1t33.5 -2.5t34 -3t20 -2.5t7 -1.5t7 -0.5q14 0 26 6.5t21 17t14.5 23.5t5.5 26t-5.5 24t-19.5 18z" />
<glyph unicode="g" horiz-adv-x="774" d="M756 117q14 25 17 46l6 42q10 45 14.5 70.5t8.5 45.5q4 26 11 45.5t14.5 37t13 36t5.5 42.5q0 22 -19.5 27t-45.5 5q-45 0 -64.5 -8t-19.5 -41l-7 -5q-38 5 -73 15q-5 2 -10 2.5t-10 2.5l-47 10q-23 5 -46 5q-5 0 -24 -0.5t-42 -1t-45 -2t-32 -3.5q-25 -3 -55 -9t-63 -19 t-67.5 -36t-68.5 -60q-15 -17 -24 -43t-14 -54t-6.5 -55.5t-1.5 -46.5q0 -36 29 -68t74 -49q31 -12 70 -18t83 -6q72 0 145 16.5t137 48.5l10 -4q0 -13 -8 -24.5t-19.5 -22t-23.5 -19t-19 -15.5q-35 -25 -81 -38t-97 -13q-16 0 -31.5 1t-32.5 4q-21 3 -43.5 9t-43.5 12.5 t-40.5 11t-35.5 4.5q-17 0 -33 -9t-29.5 -22.5t-21.5 -29t-8 -28.5q0 -18 15 -27q18 -12 46.5 -21t60.5 -15.5t66 -9.5t64 -3q36 0 69.5 2.5t66.5 9.5t67 19t70 31q89 46 131.5 102t57.5 123zM501 176q-45 -14 -95.5 -21t-95.5 -7q-47 0 -66 6q-22 6 -32 21.5t-10 35.5t8 40 t26 38q19 22 46.5 37t59.5 24.5t65 13.5t62 4q35 0 67.5 -1t58.5 -6.5t44.5 -16t24.5 -29.5v-2q0 -45 -44 -79t-119 -58z" />
<glyph unicode="h" horiz-adv-x="702" d="M727 401q0 23 -7.5 45t-29.5 45q-46 11 -76 11q-45 0 -86.5 -10.5t-80.5 -27t-77 -36.5l-78 -41q7 32 11.5 56t10.5 52t15.5 66.5t27.5 98.5v5q0 12 -14.5 17t-32.5 5h-21q-24 0 -45 -3t-36.5 -12t-24.5 -24.5t-9 -39.5l-22 -111l-15 -70.5t-11 -45.5l-8 -35l-10 -40 l-16 -58l-25 -93l-35 -142q0 -19 29 -27q11 -4 29 -4q31 0 51 1.5t33 9t19.5 23t10.5 44.5q1 14 6 36t13 46t18.5 47t22.5 40t32 29.5t45.5 23t56 21t63.5 24.5q19 11 45.5 18t48.5 7q11 0 19 -2.5t11 -8.5v-4q-6 -7 -14.5 -26.5t-18 -47t-19 -60t-18 -65t-14.5 -63 t-9 -53.5v-4q0 -16 17.5 -25.5t49.5 -9.5h10q8 0 11 1q37 5 55.5 24t18.5 41z" />
<glyph unicode="i" horiz-adv-x="295" d="M231 233l14 40l15 44q9 25 18 58l24 80q0 2 2 3q0 2 0.5 2.5t0.5 2.5q0 19 -18 27.5t-41 8.5q-15 0 -30.5 -3t-28 -8.5t-21.5 -13.5t-11 -18l-19 -56l-16 -52l-16 -53l-19 -56q-10 -29 -17.5 -53.5t-14 -48t-12 -48t-11.5 -54.5q0 -2 -0.5 -2.5t-0.5 -2.5v-5 q0 -21 16.5 -28t38.5 -7q37 0 54 7.5t26 25t15.5 47t22.5 73.5zM379 601q2 8 2 7v4q0 22 -29 32.5t-71 10.5q-19 0 -40 -5t-39 -15t-29.5 -24.5t-11.5 -33.5q0 -23 24.5 -33.5t66.5 -10.5q60 5 88 19t35 32z" />
<glyph unicode="j" horiz-adv-x="351" d="M392 460q0 1 1 2t1 2q0 20 -23 30.5t-50 10.5q-20 0 -39 -6t-30 -20q-12 -17 -18.5 -28.5t-11.5 -26t-11.5 -36t-19.5 -58.5q-19 -65 -30 -120t-28 -98t-47 -73t-86 -44q-7 28 -29.5 41t-49.5 13q-17 0 -32.5 -5t-28.5 -14.5t-20.5 -23.5t-7.5 -33q0 -6 1 -12t3 -13 q4 0 15 -14l25 -30l25 -30q12 -13 15 -12q29 -13 56 -13q19 0 36.5 5.5t33.5 13.5t30 17l27 17l67 40q33 20 58.5 41t41 44t15.5 49zM451 601q1 3 2 4.5t1 2.5v4q0 22 -29 32.5t-71 10.5q-45 0 -76.5 -19.5t-42.5 -48.5q-1 -1 -1 -6v-4q0 -23 24.5 -33.5t66.5 -10.5h17 q45 5 72 19t33 32z" />
<glyph unicode="k" horiz-adv-x="746" d="M634 155l106 -62q11 -8 11 -16q2 -4 2.5 -7.5t0.5 -7.5q0 -15 -10 -27.5t-25 -21.5t-33 -14t-35 -5h-10q-5 0 -10 2q-22 14 -45.5 33.5t-61.5 37.5q-7 5 -14 9l-13 8q-5 2 -20 12l-70 42q-34 21 -78 41q-21 7 -41 9.5t-46 2.5h-12l-6 -3l-13 -56q-4 -18 -7 -30t-7 -25 l-13 -39v-5q0 -19 -22 -34.5t-56 -20.5h-2q-7 -1 -13 -1.5t-12 -0.5q-29 0 -38 8.5t-9 21.5q0 25 15 89t45 164q1 5 7 27l15 52l19 65l19 68l17 59l12 41q4 12 6 15l4 6q2 3 5 11t9 31q19 26 32.5 34t28.5 8h23q13 0 26.5 -4.5t24 -11.5t17.5 -14.5t7 -13.5q0 -8 -2 -9 q-14 -21 -22 -39t-15 -37q-2 -3 -7.5 -16t-11.5 -32l-13 -41q-7 -22 -13 -43.5t-9.5 -40t-3.5 -29.5q0 -14 7 -14q5 0 15 11l17 8l41 20l52 26l53 28l42 20q17 8 17 9q22 11 38 18l32 14l32 15q17 7 41 19q17 9 32 12.5t26 3.5q19 0 33 -6t23.5 -15.5t14 -21t4.5 -22.5 q0 -20 -25 -38t-58.5 -33t-67 -26.5t-50.5 -18.5q-42 -16 -81 -32.5t-71 -38.5v-8l32 -15l25 -14t25 -16l34 -22l44 -28z" />
<glyph unicode="l" horiz-adv-x="291" d="M230 109q16 139 51 269t88 248q2 5 2.5 7.5t0.5 3.5q0 21 -21.5 31t-53.5 10q-17 0 -66 -11q-14 -5 -20 -9t-9 -10t-4.5 -15.5t-5.5 -24.5q0 -3 -4 -20l-8 -40q-5 -23 -12 -50l-12 -49q-5 -23 -9.5 -39.5t-5.5 -19.5l-9 -37q-3 -12 -5 -19l-4 -14l-6 -20q-8 -23 -13 -44 l-12 -44l-12 -46q-6 -25 -16 -55l-14 -41q-8 -21 -8 -44q0 -21 13.5 -37.5t54.5 -16.5h12q45 5 74.5 24.5t29.5 57.5z" />
<glyph unicode="m" horiz-adv-x="1004" d="M587 488q-11 10 -35 10q-18 0 -39.5 -5.5t-42.5 -13t-39.5 -16.5t-30.5 -16q-16 -3 -38 -16t-68 -30q0 7 3 17l7 20l7 22q4 11 4 20q0 11 -7 19.5t-27 10.5q-7 0 -14 -0.5t-15 -1.5h-1q-1 0 -2 -0.5t-4 -0.5h-3q-53 -6 -71.5 -23t-18.5 -40q0 -64 -14 -116.5t-33 -102.5 l-37 -100q-18 -51 -28 -112v-4q0 -16 18.5 -23t40.5 -7q11 0 21.5 2t18.5 5q15 1 26.5 17.5t20.5 41.5t17 56t16.5 60.5t18.5 54.5t24 39q12 16 26 28.5t35 24t50.5 23t72.5 26.5q24 8 39.5 9.5t24.5 -2t12 -10.5t3 -15v-1q0 -38 -13 -75t-30 -73l-32 -73q-15 -37 -20 -75 v-6q0 -22 22 -33t50 -11q29 0 54.5 12t28.5 35q8 22 22.5 77.5t51.5 140.5q23 13 44.5 29.5t44.5 30t49.5 23t58.5 9.5q8 0 10.5 -7t2.5 -15v-12q-2 -10 -7.5 -29t-15.5 -49l-23 -73l-32 -100q-5 -8 -6 -16t-1 -16v-17q0 -19 11.5 -26t40.5 -7q41 0 81 23q15 9 28 39.5 t23.5 72.5t19 91t14.5 94.5t9 82.5t3 55q0 13 -1 25t-3 24q-16 11 -34 14.5t-37 3.5q-20 0 -47.5 -7t-58 -18t-61 -24t-55.5 -25t-42.5 -21.5t-22.5 -13.5z" />
<glyph unicode="n" horiz-adv-x="746" d="M630 -9v2q8 1 15.5 1.5t14.5 0.5q19 0 29.5 3t14.5 21l15 93q7 45 13 72q4 14 5 18.5t4 14.5t9 33l20 77q2 4 9 27t14 49l13 49q5 23 5 26q0 18 -14.5 31t-40.5 13h-10q-59 0 -114 -11.5t-110 -28.5l-111 -36q-56 -18 -115 -33l6 34q3 17 3 34q0 11 -18 17.5t-42 6.5 q-15 0 -31 -3.5t-29 -12t-21.5 -22t-8.5 -33.5v-6q-4 -11 -11 -34l-14 -49q-8 -26 -14 -50.5t-9 -39.5q-4 -9 -10 -32t-13.5 -55t-14.5 -71t-12 -80v-4q0 -14 16 -19t31 -5q20 0 39.5 7.5t38.5 17.5q18 13 21.5 29t3.5 33l20 71l14 47q5 19 10 33l9 29q6 7 31 17.5t57 21.5 l63 21l50 16q12 5 30 10t39 9.5t41.5 7.5t37.5 3q5 0 9 -0.5t9 -1.5q7 -8 7 -20q0 -9 -4 -22.5t-11 -34.5l-18 -51q-11 -30 -24 -72q-14 -32 -24 -61.5t-14 -69.5v-1q0 -40 47 -40q16 0 43 6z" />
<glyph unicode="o" horiz-adv-x="802" d="M741 435l53 -52q9 -13 13.5 -28.5t6.5 -31t2.5 -29.5t0.5 -24q0 -60 -44 -113.5t-148 -103.5q-26 -12 -61 -22.5t-72 -18t-73.5 -11.5t-66.5 -4q-76 0 -145 25q-19 3 -43 16t-45 28t-35.5 28t-14.5 17q0 -3 -6 5t-13.5 22.5t-13.5 31t-6 30.5q0 6 1 9q8 78 73.5 145 t172.5 112q96 34 185 34q28 0 55.5 -3t57.5 -8q42 -7 67.5 -13t43 -12t29.5 -13t26 -16zM676 266q11 45 -17.5 67.5t-86.5 38.5q-17 8 -45.5 11t-56.5 3q-23 0 -42.5 -2t-28.5 -5q-27 0 -47.5 -4.5t-38.5 -12.5t-37 -21l-41 -27q-29 -14 -43.5 -38.5t-14.5 -50.5 q0 -32 21.5 -61.5t66.5 -46.5q46 -11 96 -11q63 0 122.5 17t110.5 51l2 2l6 6q30 23 52 42.5t22 41.5z" />
<glyph unicode="p" horiz-adv-x="801" d="M309 483h1q-29 -2 -53.5 -6t-50.5 -20q-35 -72 -61 -146t-46.5 -149t-38.5 -151l-36 -152q0 -10 4.5 -16.5t18.5 -12.5q24 -8 45 -8q41 0 82 24q12 8 16 17t4 19v34q0 27 5.5 53.5t24.5 45.5l2 2q22 6 59 12q56 4 106.5 19t110.5 31q78 27 139 55t102.5 59t63.5 65.5 t22 74.5v9q0 4 -2 9q0 10 -1 19.5t-4 17.5q-11 38 -43.5 60.5t-92.5 37.5q-33 9 -67 12t-67 3q-64 0 -123 -6.5t-119 -11.5h-1zM369 154q-23 0 -47.5 -4.5t-46.5 -4.5h-11q-5 0 -10 2l-4 4q4 48 19.5 102.5t44.5 102.5q4 8 21.5 12t43.5 7q36 7 76.5 9.5t76.5 2.5 q60 0 107 -8.5t65 -27.5l1 -4q-15 -36 -51 -65.5t-82.5 -53.5t-99 -42t-101.5 -32h-2z" />
<glyph unicode="q" horiz-adv-x="784" d="M647 435q-23 3 -49 12l-56 18q-30 10 -62.5 17.5t-67.5 7.5q-40 0 -79.5 -7.5t-80.5 -25.5q-30 -14 -60 -37.5t-56 -55t-46.5 -70.5t-33.5 -84q-1 -5 -1.5 -10.5t-0.5 -11.5q0 -12 1 -23.5t1 -21.5q0 -45 18.5 -74t60.5 -50q45 -22 117 -22q37 0 78.5 5t83.5 14.5 t81.5 23t73.5 30.5q1 -2 1 -6q0 -6 -4 -17.5t-9.5 -29.5t-10.5 -44t-6 -62q-3 -7 -4 -13.5t-1 -11.5q0 -20 15 -31t42 -11q32 0 63 16q31 15 43 28t12 25q0 1 -2 5.5t-4 12.5q0 13 4 44t12.5 75t20.5 97.5t29 111.5l18 60q7 24 15.5 47t19 48t27.5 61l1 2l4 3v5 q0 11 -9 18.5t-22 13t-27.5 8.5t-25.5 4h-11q-22 0 -35 -4.5t-22 -13.5t-16 -23l-16 -34zM596 252q-4 -11 -16 -23l-35 -34q-28 -20 -52.5 -35t-50 -25t-55 -15t-66.5 -5q-49 0 -94 15q-17 5 -23.5 19.5t-6.5 32.5q0 11 1.5 22t3.5 21q4 19 10 34t17.5 29t29.5 28.5t46 32.5 q23 16 34 20t27 4h25q26 0 51.5 -3.5t54.5 -8.5l20 -4q5 -1 9 -2l1 -1q9 -3 21 -6.5t24.5 -8t23.5 -11t19 -16.5z" />
<glyph unicode="r" horiz-adv-x="575" d="M717 479h-1q-14 29 -35.5 41.5t-44.5 12.5q-21 0 -48 -7t-55.5 -17.5l-58.5 -22.5l-57 -25q-29 -14 -53.5 -24t-44.5 -17q0 18 8.5 35t8.5 31q0 10 -8 18t-28 15q-12 2 -23.5 2.5t-24.5 0.5q-75 0 -81 -56q-4 -6 -13 -34t-21 -69l-24 -91l-25 -99q-12 -49 -21.5 -93.5 t-14.5 -75.5q0 -20 18 -28t41 -8q34 0 61 9t38 40q9 28 16.5 56.5t13.5 53.5l10 44q5 19 9 28q0 9 1 20t3.5 22.5t7 21t11.5 15.5q9 11 22 20t33 18t49 19l70 22l109 30q8 4 18 5t21 1h12q15 0 29.5 2t28 10t25 25t20.5 47z" />
<glyph unicode="s" horiz-adv-x="757" d="M471 303l106 3q5 0 10 0.5t10 0.5q42 0 72 -9.5t49 -25.5t28 -37t9 -45q0 -35 -18 -71t-50 -66t-77.5 -49t-99.5 -19h-13q-35 -6 -63 -8.5t-57 -2.5q-68 0 -133 19l-128 37q-17 14 -17 31q0 14 10 28.5t25 26t34 18.5t37 7q13 0 25 -4.5t20 -14.5h1l4 -2 q11 -6 23.5 -11.5t27.5 -8.5q49 -11 99 -11q31 0 61.5 3.5t57 12t46.5 21.5t31 33q9 7 9 14q0 6 -6 11t-14.5 8.5t-19 5.5t-19.5 3q-14 2 -27 2.5t-27 0.5q-35 0 -71 -2.5t-72 -6t-70.5 -6t-66.5 -2.5q-72 0 -113.5 26t-41.5 77q0 3 -0.5 6.5t-0.5 6.5q0 35 23.5 69t64 62.5 t93.5 50.5t112 34q38 8 69 13t58 5q37 0 85 -11t90.5 -28t71.5 -39t29 -43q0 -17 -23 -33t-79 -28q-25 9 -49.5 19.5t-49.5 20t-51.5 15.5t-54.5 6q-32 0 -70.5 -6.5t-73 -18.5t-59 -30t-26.5 -41q9 -9 16 -14.5t14.5 -8.5t17.5 -4t25 -1q21 0 43 2l45 4q22 2 44 3z" />
<glyph unicode="t" horiz-adv-x="582" d="M700 478q0 23 -14.5 31t-40.5 8t-50 -5t-50 -7q-42 -6 -87 -11.5t-86 -5.5q-5 -1 -12 -1q-15 0 -18 8t-3 25v6l1 1v1h-1q-2 0 1 2q10 23 10 41q0 13 -7.5 21.5t-27.5 8.5q-11 3 -25.5 6.5t-29.5 3.5q-22 0 -38 -10.5t-18 -40.5q-3 -8 -4 -15t-3 -15q0 -2 -0.5 -2.5 t-0.5 -2.5v-1q-2 -10 -5 -20t-9.5 -17.5t-17.5 -12t-28 -4.5h-2q-28 -3 -50.5 -19.5t-22.5 -42.5q0 -13 10 -33q0 -6 6 -10.5t14.5 -8t17.5 -6t16 -3.5l5 -6q-4 -11 -6.5 -22t-4.5 -22l-4 -9q-12 -45 -21.5 -86.5t-9.5 -86.5q0 -38 10.5 -75t37.5 -68q11 -8 30 -12.5 t42 -4.5q21 0 58.5 10t80.5 26.5t88 38t81 45t59 47.5t23 45q0 11 -7 24t-25 27q-10 7 -23 11.5t-27 4.5q-9 0 -21 -4t-24 -10.5t-22 -14t-15 -14.5q-15 -14 -35.5 -31t-44 -32t-48 -25t-46.5 -10q-5 0 -15 2q-16 4 -21.5 16t-5.5 28q0 13 2.5 26.5t5.5 25t5.5 20t2.5 11.5 l10 34q4 15 7.5 29.5t6.5 29.5l5 32l3 2q16 5 29.5 7t32 3.5t46 4.5t71.5 11q19 0 40 1l41 2q19 1 36 2l29 3h12q40 0 71.5 13.5t38.5 35.5z" />
<glyph unicode="u" horiz-adv-x="697" d="M750 443q9 12 9 28t-10 29t-33 13q-5 0 -15 -2q-4 0 -7 0.5t-7 0.5q-25 0 -49 -10.5t-33 -39.5q-12 -38 -20 -60.5l-13 -37.5l-9 -27l-8.5 -26.5t-9.5 -36.5l-15 -58q-11 -26 -21 -39t-24 -19.5t-34 -10.5t-52 -12q-9 -2 -33 -6l-53 -9l-58 -7.5t-44 -3.5q-1 -1 -4 -1 q-7 0 -7 11t4.5 25t6.5 21l19 62l11 36l13 40l22 72q3 3 8 16.5t10 28.5l8 29q3 13 3 16q0 14 -16 22t-42 8q-56 0 -83 -21.5t-38 -56.5q-3 -6 -8 -30l-12 -57q-8 -34 -16 -75l-15 -83q-8 -41 -14 -79t-10 -66q0 -3 -0.5 -5.5t-0.5 -4.5q0 -18 7 -29.5t18 -13.5 q12 0 15.5 -1t6 -1.5t8.5 0.5t23 3.5t50 8.5l89 16l78 14q32 5 55 8t38 4t26 1t18 -0.5t15 -0.5l1 -10q1 -9 7 -20.5t17.5 -21t32.5 -9.5h4q35 2 53.5 9.5t18.5 25.5q0 12 -7 27l11 49q5 22 11 42l11 40l14 52l11 40l14 46q6 23 13 42.5t13 30.5z" />
<glyph unicode="v" horiz-adv-x="657" d="M760 465q5 6 5 17q0 9 -6 17t-16 15t-23 11t-26 4h-10q-4 0 -9 -2q-18 -3 -28.5 -7.5t-20 -13.5t-20.5 -25l-27 -42l-42 -65l-66 -92q-15 -15 -28 -31l-26 -32q-13 -16 -29.5 -31t-38.5 -27l-10 2q-16 4 -26 31.5t-19 67.5t-17.5 85t-20.5 83t-29 63.5t-42 25.5h-1 q-19 -1 -40 -3t-40 -13t-27 -27.5t-8 -30.5t7 -34.5t18 -35.5q4 -12 6.5 -20.5t6 -18t9 -23t15.5 -35.5l4 -11q5 -11 10 -28l12 -37q7 -19 12 -37q0 -2 3 -12l6 -21q3 -11 6 -20.5t3 -10.5l16 -40l14 -32.5t15.5 -31t19.5 -33.5q17 -10 36.5 -14.5t40.5 -4.5q39 0 65 15 q12 7 27 26t29 41.5t25.5 44t16.5 33.5q15 19 21 29l12 19l14.5 21t27.5 36l81 94q31 36 52 63t34.5 49t24.5 49h1z" />
<glyph unicode="w" horiz-adv-x="921" d="M132 38l-60 396q-1 4 -1 11q0 29 23 49t58 20q5 2 10 2h10q15 0 28 -2.5t19 -2.5q4 -1 7.5 -15t5.5 -34.5t4 -45t4 -46.5t4.5 -39t6.5 -23q1 -35 6 -49t13 -14q11 0 25 19l31 44l50 75l32 47l20 26t11 15l19 18q8 7 16.5 12t19 7.5t27.5 2.5q10 0 26 -1.5t32.5 -3.5 t29.5 -5t18 -6q7 -19 7 -30v-1q0 -7 4 -45.5t8 -91.5q5 -12 7 -19l5 -17q3 -10 9 -26t20 -47q31 31 56 63.5t46 63.5l39 59q18 27 36 49q7 16 14 30t17.5 24.5t26.5 16.5t43 6q23 0 41.5 -6.5t18.5 -20.5l7 -41q-23 -29 -49 -68l-56 -84l-59 -91l-61 -90 q-31 -44 -60.5 -81.5t-56.5 -62.5q-15 -4 -35.5 -5.5t-28.5 -1.5q-17 0 -27 5t-16 13t-8.5 18.5t-3.5 22.5q-6 10 -12 28l-13 40l-13 47l-14 47q-9 22 -12.5 33t-10.5 28q-3 8 -6 19t-10 25l-11 3q-45 -66 -91 -143t-106 -162q-41 -21 -81 -21q-26 0 -42.5 11t-16.5 46z" />
<glyph unicode="x" horiz-adv-x="737" d="M756 522q17 0 34.5 -6t31.5 -16t23 -24t9 -29q-17 -17 -29.5 -28t-24.5 -19.5t-24 -15.5l-27 -16q-21 -14 -42 -24l-30 -17l-35 -20l-29 -18l-30 -20l-34 -25v-2q0 -14 17.5 -36t57.5 -64q27 -16 45.5 -37t37.5 -56q2 -4 2 -8v-6q0 -15 -6.5 -24t-16 -14t-21.5 -6.5 t-23 -1.5h-23q-11 0 -24.5 8.5t-25.5 19.5t-20.5 20.5t-9.5 11.5l-27 28q-12 14 -26 27t-30.5 25.5t-38.5 24.5q-50 -23 -89 -50l-61 -44l-30 -20q-20 -13 -42.5 -26t-44 -22.5t-33.5 -9.5q-15 0 -30.5 5t-27.5 12.5t-19.5 17.5t-7.5 20q0 3 1 6t2 5q7 17 22 27.5t34 21.5 q1 0 11.5 6.5l22.5 14.5l22 16q11 7 13 9q30 17 46 27.5t28 19.5l25 19q13 11 37 28q-25 37 -46 63l-38 47q-17 22 -31 42.5t-25 46.5q1 24 7.5 39.5t15.5 24t20.5 12t22.5 3.5q14 0 25.5 -3.5t16.5 -5.5q5 -3 12 -10l16 -16l14 -16q7 -8 11 -13l52 -67q26 -33 58 -61l41 23 l28 17l20 13l22 16l32 20l47 30q24 13 43 27l36 26q17 12 31.5 19.5t28.5 7.5z" />
<glyph unicode="y" horiz-adv-x="670" d="M772 480l-37 -59q-8 -9 -14.5 -17.5t-14.5 -16.5q-29 -38 -61 -76l-73 -81q-66 -74 -119 -125t-98.5 -88t-86.5 -66l-86 -60q-32 -23 -62 -35.5t-66 -12.5q-22 0 -37 19.5t-15 42.5q0 14 8 27q37 40 80 68t82 50t70.5 41.5t46.5 43.5l1 2v1q0 4 -7.5 16t-19 27t-25.5 31 t-27 28q-10 15 -27 35l-37 45q-20 24 -41 52.5t-40 61.5l-1 1q-4 5 -4 12q0 17 21 34t48 24q11 3 20 4t17 1q17 0 31 -6t22 -21q11 -27 26 -57t35.5 -61t46 -62t57.5 -59l9 -1q42 31 75 64t57 63.5t39 56.5t21 44q14 24 33 44t48 20q14 0 29 -3.5t29 -8.5q20 -7 33.5 -18 t13.5 -25z" />
<glyph unicode="z" horiz-adv-x="705" d="M746 517l26 -48q4 -4 4 -9q0 -16 -31 -40t-83 -55l-67 -40l-51 -32l-49 -34l-58 -42l-65 -45l-45 -33q-18 -14 -30.5 -25t-22.5 -23q5 -10 10.5 -13t14.5 -3q5 0 11 0.5t14 0.5q29 0 64 6l69 10l61 10q29 4 52 4q3 0 4.5 -0.5t4.5 -0.5h6q19 -1 36.5 -3t31 -6.5t22.5 -13 t12 -22.5q13 -16 13 -32q0 -23 -25 -42t-78 -19h-17q-9 0 -19 2q-14 -3 -49.5 -3.5t-94 -2t-141 -4.5t-191.5 -11q-9 0 -20 1.5t-20.5 4.5t-16 8.5t-6.5 13.5q0 6 -1 11.5t-1 11.5q0 7 3 15t11.5 19t24.5 25.5t42 34.5l125 95l83 62l53 38l36 25l30 21l37 28 q-6 11 -8.5 14.5t-9.5 3.5q-5 0 -13.5 -1t-24.5 -1q-35 -1 -77.5 -7t-82.5 -13q-20 -4 -38 -6.5t-36 -4.5q-6 -1 -11.5 -1.5t-11.5 -0.5q-23 0 -39 9t-16 28q0 6 -3.5 16t-3.5 22q0 14 12 28.5t50 24.5q20 4 52 5l66 2q33 1 60 2.5t36 7.5q38 2 78.5 4.5t94.5 9.5q16 2 45 4 l59 4q31 2 59.5 3.5t43.5 1.5z" />
<glyph unicode="{" horiz-adv-x="577" d="M502 -54v7q0 19 -14 35t-39 16q-9 0 -15.5 -2t-14.5 -5q-29 -12 -48 -12q-15 0 -22.5 8t-7.5 22q0 2 0.5 4t0.5 4l4 26q2 13 5 30q5 26 10 59.5t10 76.5q1 8 1 15v16q0 30 -9.5 55.5t-35.5 50.5q26 18 43 41t27.5 51.5t16.5 63t11 75.5q2 19 6.5 40t12.5 39t21.5 29.5 t34.5 11.5h25q11 0 21 1.5t18 6.5t13 15t7 27v9q0 31 -16.5 39.5t-43.5 8.5q-56 0 -98.5 -19.5t-73 -51t-48.5 -72t-24 -82.5l-3 -29q-3 -32 -7 -56t-14.5 -40.5t-30.5 -25t-55 -8.5q-22 0 -39 -6.5t-29 -17t-18.5 -23.5t-6.5 -26q0 -21 16.5 -37.5t51.5 -16.5 q50 0 67 -11.5t17 -38.5q0 -8 -1 -15t-2 -17q-4 -32 -10 -62l-10 -58v1q-5 -21 -8 -40t-4 -33q-3 -17 -3 -33q0 -58 29.5 -88.5t99.5 -30.5q37 0 90 11q-2 -1 3 0.5t9 2.5l-1 -1q12 2 25 5.5t25 10t20.5 17t10.5 27.5z" />
<glyph unicode="|" horiz-adv-x="239" d="M190 -62l1 15q1 5 2 11.5t1 14.5l71 655q0 6 1 14.5t1 17.5q5 28 5 56q0 27 -9.5 46.5t-38.5 19.5q-2 0 -5.5 -0.5t-6.5 -0.5q-26 -6 -40 -13.5t-21.5 -20.5t-10 -33t-5.5 -49v1q-1 -5 -1 -11t-2 -13l-77 -709v2q-2 -7 -2.5 -12t-0.5 -9q0 -18 7.5 -29.5t18.5 -18.5 t24 -9.5t24 -2.5q20 0 37 20t26 59z" />
<glyph unicode="}" horiz-adv-x="577" d="M470 400l1 -1q-6 1 -11.5 3.5t-10 8t-7 16t-2.5 29.5q0 43 8 93.5t22 103.5l-1 -1q4 10 5 19t1 18q0 25 -9 48t-27.5 41t-47 28.5t-66.5 10.5q-35 0 -58.5 -1.5t-52.5 -7.5h1q-29 -5 -42.5 -22.5t-13.5 -37.5t14.5 -36t51.5 -16q-2 0 11.5 1t22.5 2l35 3q2 0 7.5 -0.5 t10.5 -1.5h-1q11 -2 13.5 -6.5t2.5 -9.5v-6q0 -3 -1 -6q-15 -59 -23.5 -116.5t-8.5 -105.5q0 -38 9.5 -65t30.5 -45q-45 -27 -65 -69.5t-25 -95.5l-10 -96q-1 -10 -3.5 -22t-8 -22.5t-15.5 -18.5t-26 -9q-48 -5 -73 -24.5t-29 -43.5v-8q0 -17 6.5 -27.5t16.5 -17.5 t22.5 -9.5t25.5 -2.5q43 0 83 17.5t71 46t51 65.5t24 75l10 95q1 12 5.5 30t15.5 35t30.5 29.5t51.5 12.5q44 0 66.5 20.5t22.5 42.5q0 19 -17 34t-52 16l-27 2q-4 1 -7 2t-8 3z" />
<glyph unicode="~" horiz-adv-x="545" d="M537 593v3q0 14 -20.5 26t-44.5 12q-19 0 -34.5 -7t-26.5 -22l-3 -9q-1 -3 -2 -5q-3 -9 -7 -19.5t-15 -10.5t-19 7l-18 16q-14 15 -34 29t-61 14q-25 0 -56.5 -8.5t-60 -23t-48.5 -32.5t-21 -36v-4q0 -17 19 -29.5t49 -12.5q20 0 34.5 9t28.5 21l21 15q10 7 18 7t20 -15 q16 -14 40.5 -28.5t70.5 -14.5q37 0 67 5.5t51.5 19t34.5 36t17 57.5z" />
<glyph unicode="&#xa1;" horiz-adv-x="501" d="M421 397q13 -13 13 -39q0 -10 -2 -21.5t-5 -22t-6 -19t-4 -12.5q-32 -88 -67 -172t-63 -175q-6 -20 -13.5 -40t-20 -36.5t-32.5 -28.5t-51 -17q-12 -2 -22 -3t-17 -1q-23 0 -46.5 7t-47.5 27l-3 2q-8 6 -13.5 14.5t-5.5 16.5q0 10 9 18q3 5 19 39l39 84l47 105l47 104 l37 83q15 34 17 38q1 9 9.5 21.5t20.5 24.5t27.5 22.5t32.5 15.5zM492 629h4q16 -8 29 -21.5t17 -24.5q7 -11 7 -19q0 -15 -10 -25q-13 -28 -43 -46t-72 -25q1 -1 -7.5 -2t-18.5 -2.5t-18.5 -2.5t-7.5 -2l-68 33q-32 19 -32 47q0 7 1 11.5t2 8.5q4 11 13.5 22.5t23 22t30 18 t33.5 10.5q11 1 25.5 2t34.5 1q31 0 57 -6z" />
<glyph unicode="&#xa2;" horiz-adv-x="436" d="M319 571q-3 -5 -4 -9t-3 -7q50 -22 73 -48q14 -19 14 -32t-8.5 -20t-28.5 -15q-18 -5 -32 -5q-18 0 -28.5 3.5t-25.5 10.5v-1q-3 1 -9 4l-7 2q-24 6 -28 6h-3q-20 -9 -37 -29t-30 -44t-20.5 -47.5t-7.5 -38.5v-4q1 -9 3 -12.5t10 -5.5h2q10 0 23.5 3.5t34.5 11.5 q26 6 40 11.5t29 13.5q22 11 35.5 15.5t27.5 4.5h7q3 0 6 -0.5t7 -1.5q10 -5 20.5 -12t19.5 -21v-5q0 -26 -57 -60l2 1l-5 -2q-5 -3 -8 -6q-18 -7 -51 -21t-79 -24q0 -2 -1 -5t-1 -6v1l-5 -35q-2 -15 -4 -25t-4.5 -16.5t-6.5 -12.5q-9 -14 -26 -23.5t-46 -9.5h-12 q-26 5 -38 15t-18 25v7q0 22 21 72q0 6 1.5 10.5t4.5 9.5q-52 13 -71.5 40.5t-24.5 66.5v10q0 26 10 62.5t34.5 74t64.5 70.5t100 51q9 22 13.5 35t8.5 21t8 15t12 18q8 17 28.5 27.5t50.5 10.5q22 0 38.5 -6.5t27.5 -26.5q0 -1 0.5 -4t0.5 -5q0 -16 -14 -37l-24 -35 q-7 -4 -8 -6.5t-2 -4.5z" />
<glyph unicode="&#xa3;" horiz-adv-x="637" d="M79 261q0 37 52 37h5q-14 20 -25 42.5t-14 48.5q-1 3 -1 7v7q0 8 2.5 17t6.5 19v1q11 21 36.5 51t61 58.5t79.5 51t93 28.5h10q21 0 54 -9t66.5 -21t61 -23.5t37.5 -17.5q23 -16 33 -33.5t10 -34.5q0 -14 -2.5 -21.5t-7.5 -17.5q-1 -3 -1 -7t-1 -7l-30 -77l2 1 q-8 -25 -13 -38.5t-13 -20.5t-20.5 -10t-34.5 -7h4q-4 -1 -8 -1h-6h-9h-5q2 -1 3.5 -3t4.5 -5q11 -10 13.5 -18.5t2.5 -13.5q0 -6 -1.5 -10t-12.5 -11q-9 -4 -14 -7t-12.5 -4.5t-19.5 -2t-34 -0.5q-4 0 -9 -0.5t-12 -0.5q-12 -1 -28.5 -1.5t-33.5 -0.5q-2 -6 -2.5 -12.5 t-2.5 -12.5q-6 -14 -11 -23t-11 -16.5t-13 -14t-18 -14.5h6q23 1 50 2l54 3l52 4t44 4h-1q16 1 21.5 1.5t19.5 0.5t18 1q7 0 12.5 0.5t9.5 0.5q21 0 44 -13q11 -10 11 -27q0 -1 1 -1.5t1 -1.5q0 -13 -0.5 -16.5t-3.5 -3.5h-1q0 1 -2 1q-1 0 -3 -2q-9 -13 -30.5 -22.5 t-49 -16t-56.5 -10t-53 -4.5q-27 -1 -44.5 -1.5t-36.5 -1.5l-49 -2q-30 -2 -81 -5q-11 0 -20.5 -0.5t-19.5 -0.5h-24q-25 0 -44.5 2t-36 6.5t-30.5 12.5t-29 20q-11 8 -13.5 13.5t-2.5 13.5q0 18 25 37l9 5l14 7q12 4 31.5 12t39.5 18.5t37 23t25 25.5h-20q-29 0 -49.5 6 t-28.5 24q0 4 -2 15t-6 18zM385 306q20 0 38 -1t33 -4q-26 21 -26 52q0 16 4 28l8 23q0 5 1 8t2 5l20 42q0 12 5 23l6 17q3 8 3 16v5q-11 3 -14 3q-7 0 -9.5 -0.5t-6.5 -0.5q-23 -6 -51 -19t-54 -31t-47 -41t-28 -48v1q-3 -5 -3 -9v-5q0 -15 10.5 -29.5t24.5 -28.5 q3 -3 5 -4l6 -3h34q11 0 19.5 0.5t19.5 0.5z" />
<glyph unicode="&#xa5;" horiz-adv-x="720" d="M472 149q0 22 -12 34.5t-35 21.5q-19 5 -42.5 7.5t-53.5 2.5q2 5 3.5 10.5t3.5 11.5l13 1q2 1 7 1t11 1q5 1 9.5 1.5t10.5 0.5q14 2 23 2h14q38 0 51.5 8.5t13.5 31.5v10q-2 1 -2 6q0 29 -58 44q-7 2 -13.5 3t-11.5 2q45 51 113.5 111.5t172.5 138.5l13 9l17 11 q9 6 15 13t6 15v4q0 1 -0.5 1.5t-0.5 1.5l-9 13q-8 11 -28 17.5t-43 6.5q-36 0 -61 -22l-163 -143q-78 -71 -147 -143l1 1h-1q-11 14 -24 38l-28 56q-12 25 -25.5 50.5t-28 48t-30.5 40.5t-34 29q-9 2 -20.5 3t-22.5 1q-19 0 -37 -2t-29 -9q-11 -6 -15 -15.5t-4 -22.5v-5 q0 -16 8.5 -33t19.5 -33q12 -15 25 -36.5t25.5 -46.5t24 -52t20.5 -52q-8 -1 -14.5 -1.5t-14.5 -1.5q-7 -1 -11.5 -1.5t-9.5 -0.5q-11 -1 -15.5 -1.5t-11.5 -2.5q-10 -2 -19 -5t-16 -5h2q-30 -11 -30 -28q4 -20 21 -37t36 -24q14 -5 60 -5h28h12l-5 -25q-12 -1 -22 -1.5 t-17 -0.5q-17 -1 -29.5 -2t-17.5 -2h2q-21 -3 -36 -15.5t-15 -26.5q0 -32 45 -51q30 -14 65 -17l-14 -65q3 -23 37 -39l11 -9q54 -16 84 -16q19 0 30 7.5t19 23.5t14 42l14 60q23 2 44.5 2.5t41.5 2.5q14 1 21 1h11h7q26 4 41 24v-1q10 13 10 27z" />
<glyph unicode="&#xa6;" horiz-adv-x="237" d="M192 -80v14q2 6 2.5 12.5t1.5 13.5l18 164q0 6 0.5 14t1.5 18q5 28 5 55t-10 46.5t-40 19.5q-1 0 -4.5 -0.5t-5.5 -0.5q-26 -5 -40.5 -13t-22 -21t-10 -32.5t-4.5 -47.5q-2 -5 -2 -12q0 -6 -1 -12l-24 -217l2 2q-5 -11 -5 -22q0 -18 7.5 -29.5t18.5 -18t23.5 -9.5 t23.5 -3q21 0 38 20t26 60zM242 430l2 14q1 7 1.5 13t1.5 14l18 164q0 6 0.5 14t1.5 18q2 12 3 26.5t1 28.5q0 27 -9.5 46.5t-39.5 19.5q-1 0 -4.5 -0.5t-5.5 -0.5q-26 -5 -40 -13t-21.5 -21t-10.5 -32.5t-6 -48.5v-12q0 -6 -2 -12l-23 -217q-3 -6 -3.5 -10.5t-0.5 -8.5 q0 -18 7.5 -29.5t18.5 -18.5t24 -9.5t24 -2.5q20 0 37 19.5t26 58.5z" />
<glyph unicode="&#xa7;" horiz-adv-x="529" d="M501 485q0 22 -10.5 29t-29.5 7q-8 0 -14.5 -0.5t-12.5 -1.5q-6 -2 -12 -2q-5 0 -11 2q1 5 2 9l2 8q8 28 14.5 45t12 28t8.5 18.5t4 17.5q-6 17 -20 25t-33 8q-22 -2 -38.5 -15t-28 -31.5t-18.5 -40t-11.5 -40.5t-6.5 -32t-3 -14l-35 -5q-19 -2 -40 -3.5t-42 -2.5t-39 -1 l30 39l39 47q19 24 31.5 42.5t10.5 22.5l3 8q2 4 2 8q0 16 -9.5 26.5t-26.5 15.5q-3 1 -6.5 1.5t-11.5 0.5q-44 0 -66 -50l-27 -41l-17 -25q-7 -9 -11.5 -14t-7.5 -9q-20 -25 -35 -48.5t-25 -58.5q1 -9 5 -19t10 -20t12 -19t12 -14q10 -6 26 -5.5t31.5 3.5t26.5 6t11 2 q26 2 58.5 3t56.5 1h11q-2 -7 -5 -13.5t-5 -14.5q-8 -21 -12 -35l-6 -21q-3 -8 -3.5 -12.5t-0.5 -8.5q0 -13 6.5 -20t27.5 -7q39 -1 54 4.5t26 27.5q4 4 8 15.5t7 25t5.5 26.5t4.5 20q1 7 2 12.5t4 10.5q14 0 23.5 0.5t16.5 2t13 3.5t13 5q12 5 21 10t15.5 12t10 17.5 t3.5 25.5v3z" />
<glyph unicode="&#xa8;" horiz-adv-x="512" d="M245 631v-1q0 -23 -31 -36.5t-82 -13.5q-45 1 -72 16.5t-34 38.5q0 23 29 37t77 14h3q50 0 78 -16t32 -39zM490 631v-1q0 -23 -32.5 -36.5t-80.5 -13.5q-48 1 -75 17t-28 39q0 23 28 36.5t74 13.5h6q47 0 76 -16t32 -39z" />
<glyph unicode="&#xa9;" horiz-adv-x="1011" d="M1015 361q-35 -85 -86 -144.5t-117.5 -101.5t-150.5 -70.5t-185 -50.5q-29 -6 -58 -9.5t-58 -3.5q-73 0 -127.5 17.5t-90.5 49t-53.5 75.5t-17.5 96q0 21 3 42q9 63 32.5 125t62.5 119.5t93 107.5t123 88l52 28q27 14 56 25.5t59 18.5t60 7q37 0 79.5 -5.5t83 -16.5 t76 -27t59.5 -38q57 -53 92 -108t35 -121q0 -49 -22 -103zM902 438q2 8 2 15v14q0 44 -16 82.5t-45 67.5t-69.5 45.5t-89.5 16.5q-26 0 -49.5 -6.5t-43.5 -13.5l-38 -14q-17 -6 -32 -6q-16 0 -29 7q-53 -16 -105 -53t-95.5 -85t-72.5 -102t-35 -104q-2 -11 -2.5 -21 t-0.5 -20q0 -89 59 -129.5t164 -40.5q45 0 94.5 8.5t98 25t93.5 40t81 52.5q57 46 89 99t42 122zM741 297q0 -6 -5 -16t-12 -20.5t-15 -19.5t-15 -13q-56 -31 -110.5 -47.5t-121.5 -25.5q-8 -1 -16 -1.5t-16 -0.5q-39 0 -66.5 12t-45 30.5t-25.5 42t-9 46.5v9q0 25 10.5 50 t24.5 49q15 31 53.5 70.5t88 74.5t103.5 59t101 24t74 -18.5t27 -53.5q0 -10 -1 -15q-2 -11 -6.5 -26t-12.5 -28.5t-20.5 -23t-29.5 -9.5q-18 0 -34.5 8.5t-19.5 30.5q-1 10 -15 10t-35.5 -9t-44.5 -21.5t-43 -26.5t-30 -23l-33 -26q-16 -12 -29.5 -24.5t-22.5 -26.5 t-12 -32v-3q0 -12 8.5 -18.5t22.5 -9.5t32 -4t37 -1q41 0 85 17.5t79 35.5l27 17q15 10 29 10q8 0 16 -5t14 -12t10 -16t4 -16v-4z" />
<glyph unicode="&#xaa;" horiz-adv-x="427" d="M202 563l-1 -1l23 6l22 6q21 6 41 10.5t43 4.5h7q4 0 5 -2l-2 -23q-62 -3 -114 -13t-91 -26.5t-64 -41.5t-31 -58q0 -2 -0.5 -5.5t-0.5 -5.5q0 -15 8 -32t22.5 -31.5t33 -24t39.5 -9.5q52 0 99 14t80 25h1q0 -14 10 -22.5t43 -8.5q34 0 47.5 14.5t13.5 43.5l18 197v7 q0 25 -9 41t-24 25t-33 12.5t-36 3.5q-51 0 -108 -9.5t-104 -35.5h1l-7 -3q-11 -5 -23.5 -11.5t-14.5 -27.5v-5q0 -18 11 -24.5t28 -6.5q18 0 38 6.5t28 9.5h-2h2q0 1 1 1zM387 210q35 0 53.5 11.5t18.5 27.5t-22 29t-70 13q-4 0 -8 0.5t-9 0.5q-6 0 -11.5 0.5t-11.5 0.5 q-14 0 -26 -3h-155q-3 1 -7 1h-9q-7 0 -16 -0.5t-17 -1.5q-5 -1 -8 -1h-5q-37 0 -55 -12t-18 -26q0 -16 20.5 -29.5t59.5 -13.5q1 0 4.5 -0.5t8.5 -1.5t12 -1.5t15 -0.5q16 0 26 5l150 1zM175 397h-10q-17 3 -20 6t-3 17v2q1 12 19 22t45.5 18.5t61.5 15t68 11.5l3 -38 q-2 -2 -19 -10.5t-41.5 -18.5t-52.5 -17.5t-51 -7.5z" />
<glyph unicode="&#xab;" horiz-adv-x="534" d="M525 430h-4q-20 0 -41 -11l-149 -78q-20 -7 -36 -20t-20 -30q-3 -20 3.5 -28t17.5 -13l120 -115l4 -3v1q8 -11 16.5 -17t24.5 -9h11q14 0 25.5 8t23.5 32v-1q3 4 3.5 6.5t1.5 5.5q2 11 -4 22t-26 26l-79 76l97 50q28 11 40 27t13 25q2 2 2 6t-4 7q-6 19 -14 25t-26 8z M275 448h-4q-20 0 -41 -11l-149 -78q-20 -7 -36 -20t-20 -30q-3 -20 3.5 -28t17.5 -13l120 -115l4 -3v1q8 -11 16.5 -17t24.5 -9h11q14 0 25.5 8t23.5 32v-1q3 4 3.5 6.5t1.5 5.5q2 11 -4 22t-26 26l-79 76l97 50q28 11 40 27t13 25q2 2 2 6t-4 7q-6 19 -14 25t-26 8z" />
<glyph unicode="&#xac;" horiz-adv-x="1186" d="M1075 173q17 8 31.5 16t25.5 16q26 17 41 37.5t6 44.5q-7 22 -21 37.5t-34 29.5q-22 15 -61 19t-83 1t-88.5 -12.5t-76.5 -21.5q-2 -31 -8 -67.5t-13.5 -73t-14 -71.5t-10.5 -64q-5 -18 0.5 -25.5t19.5 -19.5q16 -11 29 -18.5t33 -13.5q9 -5 16.5 -7t15 -2.5t16.5 0.5 t22 4q21 4 45 11t48 15.5t45.5 18.5t36.5 22q21 14 31 29.5t4 36.5q-3 17 -18.5 33t-37.5 25zM629 78q2 -20 5 -36.5t5 -31.5q4 -14 10 -19.5t20 -8.5q15 -5 28.5 -5.5t29.5 -0.5q15 0 19.5 3.5t4.5 12.5q-4 42 -7 88.5t-5.5 90.5t-3 83.5t1.5 68.5q0 12 -5.5 18.5 t-22.5 11.5q-23 5 -50 9.5t-69 6.5q-26 2 -39 -4.5t-21 -17.5q-24 -30 -52 -71l-54 -83l-50 -85q-24 -41 -40 -74q-9 -21 -2.5 -27t19.5 -14l19 -7l17 -6q15 -4 21 -2.5t12 10.5l18 32q10 17 24 36q34 8 78.5 12.5t88.5 9.5zM825 718q3 10 0 15.5t-18 12.5q-32 16 -65 22 q-17 3 -25 1.5t-12 -14.5q-12 -33 -23.5 -76t-25.5 -88q-22 -2 -44.5 -3t-47.5 -3q13 38 22 70t20 55q2 11 -1 16.5t-18 12.5q-16 8 -34 13.5t-34 9.5q-18 4 -26.5 2t-11.5 -15l-18 -76l-19 -86q-9 -43 -20 -84.5t-22 -74.5q-4 -14 1.5 -21t18.5 -12q13 -6 29 -10l30 -6 q16 -3 21.5 -0.5t7.5 10.5q8 24 14 53.5t17 62.5q23 3 48 5.5t48 5.5q-6 -27 -10 -49.5t-6 -40.5q-7 -18 8 -26.5t40 -14.5q24 -5 41 -7.5t17 11.5q9 40 21.5 85l25.5 89l27 84zM871 738l-67 -289q-5 -23 16 -39q11 -9 21.5 -14.5t19.5 -11.5q8 -5 21 -7.5t39 2.5l76 11 l79 13q16 3 19.5 6.5t-1.5 13.5l-8 17q-4 9 -11 19q-7 8 -16.5 11.5t-27.5 1.5q-28 -2 -54 -3.5t-53 -6.5q5 14 9 27.5t9 27.5q34 6 70.5 10.5t71.5 9.5q16 3 20 6t-2 14l-8 17q-4 9 -10 18q-7 8 -16 11t-26 2q-20 0 -36 -1t-32 -3l15 43q8 21 16 39q38 5 73 7.5t68 5.5 q15 2 19 5t1 14q-2 9 -5.5 16.5t-10.5 17.5q-11 17 -40 17q-64 -2 -127.5 -10.5t-111.5 -17.5zM429 703q16 2 18 5t0 12q-11 23 -30 40q-6 5 -13.5 7.5t-24.5 2.5q-31 -1 -70.5 -3.5t-81.5 -5.5t-82 -7t-73 -8q-9 -2 -12.5 -5t1.5 -12q7 -8 15 -21t20 -22q11 -8 19.5 -10 t23.5 1q9 2 23.5 3.5t31.5 3.5l-19 -64l-18 -69q-9 -35 -15.5 -67.5t-9.5 -55.5q-5 -20 10.5 -28.5t38.5 -14.5q26 -6 42.5 -8.5t18.5 11.5l19 75l23 79l24 79l24 75q26 2 51 3.5t46 3.5zM294 6q19 3 20 6t-2 14q-5 9 -9 18t-11 17q-10 9 -18 12t-24 2q-29 -2 -53.5 -4 t-52.5 -5l21 65l22 67l23 63q11 31 22 56q4 10 0.5 15.5t-17.5 12.5q-15 7 -34.5 12.5t-36.5 8.5q-17 4 -24.5 1.5t-13.5 -13.5q-13 -30 -26.5 -71t-25.5 -84t-21.5 -82.5t-13.5 -67.5q-2 -12 3 -20.5t14 -16.5l22 -15l19 -11q9 -5 20.5 -8t38.5 3l77 12zM364 226 q15 13 33 38t29 45q1 6 2 10t1 6q0 7 -9 16l-17 10q-9 6 -19 11q-14 7 -22.5 5.5t-14.5 -10.5l-19 -30l-22 -34l-22 -33l-17 -27q-9 -16 17 -20q10 -1 21.5 -2t19.5 1q11 0 20 3.5t19 10.5zM924 205q6 23 12.5 42.5t14.5 37.5q48 16 80 17t38 -10q3 -7 -6 -18t-28 -23.5 t-47 -24.5t-64 -21zM516 143l53 80q25 38 48 68q0 -33 1.5 -68t5.5 -71l-56 -4q-26 -2 -52 -5zM899 130q48 13 77 9.5t34 -13.5q2 -8 -6.5 -17.5t-26 -19t-43.5 -18.5t-58 -15q7 19 12 37t11 37z" />
<glyph unicode="&#xad;" horiz-adv-x="671" d="M56 220q11 -12 35.5 -16t60.5 -4q15 0 31.5 0.5t35.5 0.5l32 2q16 1 34 1h2h21q17 0 40 0.5t49 1.5t49 2t41 2t25 2h25q32 0 47.5 1.5t27.5 8.5q11 4 14.5 8.5t3.5 12.5q-7 11 -12.5 21t-12.5 14q-33 24 -83 30.5t-107 6.5h-54q-12 0 -25.5 -1t-25.5 -1q-31 0 -67.5 -0.5 t-69 -1.5t-56.5 -2t-31 -2h1q-25 -4 -38.5 -8.5t-13.5 -19.5v-4q0 -4 1 -6v-7l8 -21q4 -13 12 -21z" />
<glyph unicode="&#xae;" horiz-adv-x="1110" d="M1090 361q-18 -53 -43.5 -94t-60.5 -74q-33 -32 -80 -61t-110 -57q-160 -68 -289 -68q-126 0 -233 62q-95 55 -132 132q-26 55 -26 131q0 22 3 46q20 237 281 359q125 58 252 58q128 0 275 -63q104 -45 150 -109q43 -57 43 -126q0 -16 -3 -31q-2 -21 -9 -47t-18 -58z M981 414q1 6 1 11v11q0 94 -102 165q-106 76 -243 76q-118 0 -223 -57q-105 -55 -144 -146q-20 -42 -28 -89q-1 -8 -1.5 -16.5t-0.5 -16.5q0 -98 80 -158q78 -58 209 -66q8 -1 16 -1h16q147 0 266 76q58 37 100 96q24 31 37 59.5t17 55.5zM851 533q8 -14 13 -29t5 -31v-11 q-6 -43 -47 -81q-28 -29 -97 -52q24 -14 69 -51q22 -25 22 -35v-1q0 -8 -11 -19q-34 -31 -71 -31q-15 0 -19 1q-12 5 -29.5 17t-39.5 31q-38 36 -64 47q-19 8 -45 8h-10q-5 0 -11 -1v-23q-1 -8 -1.5 -15t-0.5 -12q-6 -44 -33 -53q-24 -9 -42 -9q-23 0 -57 20q-8 11 -8 27v6 q0 6 3 14l7 17l6 17q3 8 5 14q14 78 20.5 126t6.5 70q-16 12 -16 29v7q6 43 53 53q97 21 187 21q161 0 205 -71zM644 509q-43 0 -99 -10q-13 -58 -13 -99q4 0 8.5 -0.5t9.5 -0.5q19 0 40.5 2.5t46.5 7.5q17 3 33.5 8t34.5 12q46 19 49 41v4q0 19 -34 27q-20 4 -38.5 6 t-37.5 2z" />
<glyph unicode="&#xaf;" horiz-adv-x="305" d="M250 628l-98 -243q19 -2 33 -9t25 -24q0 -1 0.5 -3t0.5 -4q0 -11 -7.5 -19t-33.5 -15q-10 -2 -15 -2q-3 0 -8 -0.5t-12 -1.5q-16 -2 -37 -4l-42 -4q-21 -2 -40 -3.5t-31 -1.5q-8 0 -13.5 0.5t-14.5 2.5q-40 11 -43 36v11q0 25 36 36h-1q5 1 10.5 1.5t10.5 0.5t11.5 0.5 t17.5 1.5h2l95 274h-10q-14 0 -29 2.5t-26 17.5q-12 7 -12 20t12 25v-2q9 10 34 16t51.5 8.5t48 3t24.5 0.5q31 0 47.5 -3.5t34.5 -19.5q3 -4 6 -9t3 -10q0 -12 -8 -28l-15 -31q-4 -7 -5 -12t-2 -8z" />
<glyph unicode="&#xb0;" horiz-adv-x="269" d="M299 604q0 3 0.5 6t0.5 6q0 31 -22.5 54.5t-68.5 23.5q-39 0 -69.5 -13t-52 -32.5t-34 -43.5t-13.5 -45v-5q0 -15 5 -29t16 -24.5t29.5 -16.5t44.5 -6q30 0 59 10t51.5 27t37 39.5t16.5 47.5v1zM157 559q-5 0 -5 10q2 14 14 27.5t35 13.5q5 0 5 -7v-4q-1 -16 -15 -28 t-34 -12z" />
<glyph unicode="&#xb1;" horiz-adv-x="576" d="M592 465q0 38 -46 47q-31 3 -54 5l-41 2q-44 3 -50 6q-16 10 -16 34q0 6 2 16l3 20l3 20q1 9 1 15q0 61 -64 61q-43 0 -58 -40q-2 -9 -3 -26l-4 -41q-3 -20 -4.5 -32.5t-4.5 -22.5q-3 -23 -77 -23q-32 0 -52.5 -1t-31.5 -3q-46 -10 -46 -44q0 -10 3 -19t8 -18 q9 -14 28.5 -20t48.5 -6q6 0 20.5 1t22.5 1q39 0 39 -23q0 -8 -1 -17.5t-2 -22.5q-2 -12 -3 -22t-1 -17q0 -74 63 -74q26 0 37 11q9 6 24 46l9 29q4 12 6 21q8 29 25 49q24 26 56 26h94q30 0 50 19q16 16 16 43zM562 113q0 38 -46 47q-31 3 -54.5 5.5t-40.5 1.5 q-49 -2 -86.5 -4t-68.5 -4t-59 -3.5t-58 -1.5q-32 0 -52.5 -1t-31.5 -3q-46 -10 -46 -44q0 -10 3 -19t8 -18q9 -14 28.5 -20t48.5 -6q6 0 20.5 1t22.5 1l346 6q30 0 50 19q16 16 16 43z" />
<glyph unicode="&#xb2;" horiz-adv-x="444" d="M349 693l1 -2q12 -4 15.5 -9t10.5 -10l1 -3q1 -1 5 -4q8 -5 23 -5q3 -1 5.5 -1.5t6.5 -0.5q52 -6 55 -46v-8q0 -15 -8 -36t-21.5 -43t-31 -44t-36.5 -39q-27 -24 -52 -43l-43 -33h4q26 0 54 -2.5t44 -8.5q11 -3 20 -11.5t9 -20.5q0 -7 -1 -10q-5 -24 -49 -33h-50 q-19 0 -38 -1t-42 -4q-35 -2 -54.5 -3t-36 -2.5t-34.5 -4.5l-49 -8h5q-8 -2 -12.5 -2.5t-7.5 -0.5q-42 0 -60 30l2 -1q-5 5 -6.5 9t-1.5 8v5q0 6 3.5 12t7.5 11q11 11 25 14l29 6h-1l6 1l6 2h-1q19 4 29.5 8t24.5 11l-3 -1q52 29 89 58t74 66l27 29q11 12 18 21.5t11.5 19.5 t9.5 25v9q0 3 -2 5h-9q-26 0 -53 -15.5t-48 -32.5q0 -4 -9 -8q-8 -6 -30 -25t-60 -61l1 3q-7 -12 -22 -17t-30 -5q-7 0 -13 0.5t-12 1.5l1 -1q-22 4 -31.5 13.5t-16.5 25.5v5q0 12 18.5 34.5t45 47.5t54.5 47t46 33q42 28 78 40.5t63 12.5q23 0 47 -8z" />
<glyph unicode="&#xb3;" horiz-adv-x="524" d="M457 376q25 40 25.5 83t-36.5 78q18 14 34.5 35.5t16.5 49.5q1 25 -11 43t-32.5 29t-47.5 15t-55 1q-29 0 -60 -4.5t-61 -14.5t-57 -26.5t-49 -40.5q5 -20 18 -36.5t39 -16.5q6 1 17.5 5t22.5 9q25 14 55 26.5t59 12.5q9 0 19.5 -2t21.5 -7q-1 -6 -9.5 -14t-16.5 -14h2 q-19 -8 -39 -12.5t-43 -7.5q-2 0 -3 -0.5t-2 -0.5q-23 -5 -44.5 -11t-43.5 -20q-2 -7 -2.5 -13.5t-0.5 -12.5q0 -23 14.5 -36t37.5 -13q8 0 12.5 0.5t10.5 2.5q16 5 32 7.5t33 2.5q24 3 38.5 -8.5t14.5 -28.5q-6 -21 -25 -37t-44 -25.5t-53 -10.5t-51 9q-14 3 -26 13l-23 19 q-12 13 -23.5 21.5t-27.5 8.5q-13 -1 -16 -1.5t-4 -1.5h1q-9 -5 -19 -11.5t-19 -15t-15 -19t-6 -23.5q0 -5 1 -6q20 -36 48 -50t70 -26q20 -5 42 -7.5t43 -2.5q38 0 75.5 7.5t69.5 21.5t56 33.5t36 43.5z" />
<glyph unicode="&#xb4;" horiz-adv-x="310" d="M114 593h3q9 0 19.5 4t30.5 24q6 7 21 16l36 21l33 21q14 9 24.5 18.5t18 21t14.5 27.5q1 5 2 9t1 13q0 20 -11 28.5t-31 8.5q-14 0 -32 -5.5t-38 -15.5q-16 -9 -34 -23.5t-34.5 -32t-31 -35.5t-24.5 -34q-14 -23 -14 -33q0 -14 10 -19.5t32 -12.5z" />
<glyph unicode="&#xb5;" horiz-adv-x="595" d="M415 17q5 -20 23 -26t41 -6q35 0 61 12t26 42q0 13 -5 24l29 320v-3q6 24 6 42q0 27 -14.5 37.5t-40.5 10.5h-9q-38 -3 -58.5 -21.5t-31.5 -60.5l-21 -245q-14 -8 -32.5 -16.5t-39 -16t-41.5 -12.5t-39 -6h-4q-16 0 -26 10t-10 33v5l26 235v-3q1 5 1 12v14 q0 25 -14.5 41.5t-46.5 17.5h-6q-43 0 -63.5 -22.5t-20.5 -46.5q0 -8 1 -11l-13 -146q-5 -56 -7 -89l-4 -47q-1 -14 -1 -19v-4l-11 -158q0 -2 -0.5 -5t-0.5 -5q-2 -6 -2 -12v-12q0 -23 11.5 -37.5t50.5 -18.5h11q24 0 38 7t21.5 19t10.5 28l6 31v1l5 69q28 0 47.5 1.5t39 5 t44 11t63.5 20.5z" />
<glyph unicode="&#xb6;" horiz-adv-x="585" d="M472 611q-44 0 -90.5 -9t-91.5 -26.5t-85 -43t-71.5 -58.5t-51 -73.5t-23.5 -87.5v1q-2 -6 -2 -13v-11q0 -72 42.5 -113t122.5 -41h21q11 0 21 1l-18 -226v-7q0 -31 16.5 -46t39.5 -15h8q4 0 9 2l-2 -1q22 4 36 12.5t23 23.5t14.5 37t9.5 55l52 528h8q1 0 3 0.5t4 0.5 q4 0 8.5 -1.5t9.5 -8.5l-60 -571v-9q0 -30 17 -45t40 -15h7q4 0 10 2l-2 -1q22 4 36 12t23 23t14 37.5t9 55.5l45 566v3q0 20 -17 32t-41 19t-50 9t-44 2z" />
<glyph unicode="&#xb7;" horiz-adv-x="197" d="M54 347v-8q0 -11 4 -19t11 -15q25 -15 47 -20.5t33 -5.5q17 0 33.5 3.5t28.5 8.5q23 10 39 26t17 35q0 34 -46 49q-12 5 -26 8.5t-28 3.5q-8 0 -13 -0.5t-13 -1.5q-34 -5 -58.5 -23t-28.5 -41z" />
<glyph unicode="&#x2219;" horiz-adv-x="197" d="M54 347v-8q0 -11 4 -19t11 -15q25 -15 47 -20.5t33 -5.5q17 0 33.5 3.5t28.5 8.5q23 10 39 26t17 35q0 34 -46 49q-12 5 -26 8.5t-28 3.5q-8 0 -13 -0.5t-13 -1.5q-34 -5 -58.5 -23t-28.5 -41z" />
<glyph unicode="&#xb8;" horiz-adv-x="452" d="M186 38h141l-72 -47q26 -2 45 -8t41 -14q23 -12 39 -27t16 -35v-7v-4q0 -17 -25 -31t-63.5 -24t-83.5 -15.5t-85 -5.5q-47 0 -78 8t-31 25q0 6 8 17t25.5 23t46 24t69.5 21q-2 1 -12 1h-23h-74q-31 0 -31 1q0 11 4.5 14t18.5 10z" />
<glyph unicode="&#xb9;" horiz-adv-x="277" d="M280 576q-8 -6 -9 -12l-102 -214q14 -3 27 -9.5t20 -20.5v-7q0 -9 -6.5 -17t-29.5 -16q-8 0 -9.5 -0.5t-8.5 -2.5q-11 -1 -31 -3t-42.5 -4.5t-45 -4t-38.5 -1.5q-7 0 -11.5 0.5t-8.5 3.5q-45 9 -45 38q0 11 8.5 23.5t33.5 16.5l-1 -1q12 2 19 3t15 2q3 0 4 0.5t3 0.5 l109 244q-14 0 -34 2.5t-28 17.5q-3 4 -3 13q0 6 2.5 13t10.5 13q10 9 33.5 14t48 7t43.5 2.5t20 0.5q29 0 45.5 -2.5t30.5 -18.5q7 -6 7 -13v-5q0 -12 -10.5 -31t-19.5 -33z" />
<glyph unicode="&#xba;" horiz-adv-x="561" d="M586 549q-8 27 -27.5 45t-46 30t-56.5 20l-56 15q-23 5 -41.5 6.5t-36.5 1.5q-54 0 -97.5 -15.5t-78.5 -39.5t-62 -54.5t-47 -60.5q-17 -31 -17 -56q0 -32 18 -61t47 -48q30 -20 69.5 -29t84.5 -9q32 0 65 3q57 9 96 23l76 28q8 3 14 5.5t14 4.5h-2q53 19 73 56t20 79 q0 28 -8 55zM51 159q11 -12 35.5 -16t60.5 -4q15 0 31.5 0.5t35.5 0.5h3q19 0 50.5 0.5t63.5 1.5t58 2.5t35 3.5h25q32 0 47 1.5t28 8.5q11 4 14 8.5t3 12.5q-7 11 -12.5 21t-12.5 14q-33 24 -83 30.5t-107 6.5h-54q-12 0 -25.5 -1t-25.5 -1q-62 0 -94 -0.5t-46 -2.5h1 q-25 -4 -38.5 -8.5t-13.5 -19.5v-4q0 -4 1 -6v-7l8 -21q4 -13 12 -21zM406 479q-9 -14 -28 -23.5t-41.5 -15.5t-45 -8.5t-39.5 -2.5q-14 0 -23 3t-12 12q0 2 -0.5 4.5t-0.5 5.5q0 19 9 32t22.5 23t29.5 17l28 13q4 2 15 2q12 0 27.5 -4t30 -11t24 -16.5t9.5 -19.5 q0 -6 -4 -10z" />
<glyph unicode="&#xbb;" horiz-adv-x="534" d="M67 126h4q20 0 41 11l149 78q20 7 36 20t20 30q3 20 -3.5 28t-17.5 13l-120 115l-4 3v-1q-8 11 -16.5 17t-24.5 9h-11q-14 0 -25.5 -8t-23.5 -32v1q-3 -4 -3.5 -6.5t-1.5 -5.5q-2 -11 4 -22t26 -26l79 -76l-96 -50q-29 -11 -41 -27t-13 -25q-1 -2 -1.5 -6t3.5 -7 q6 -19 14.5 -25t25.5 -8zM317 108h4q20 0 41 11l149 78q20 7 36 20t20 30q3 20 -3.5 28t-17.5 13l-120 115l-4 3v-1q-8 11 -16.5 17t-24.5 9h-11q-14 0 -25.5 -8t-23.5 -32v1q-3 -4 -3.5 -6.5t-1.5 -5.5q-2 -11 4 -22t26 -26l79 -76l-96 -50q-29 -11 -41 -27t-13 -25 q-1 -2 -1.5 -6t3.5 -7q6 -19 14.5 -25t25.5 -8z" />
<glyph unicode="&#xbc;" horiz-adv-x="886" d="M631 607q0 19 -12.5 32t-42.5 13q-22 0 -37.5 -4t-25.5 -10.5t-15.5 -14.5t-8.5 -16l-43 -58l-59 -83l-67 -97l-66 -98l-56 -88q-26 -40 -39 -65q-14 -21 -19.5 -38t-5.5 -30q0 -23 15 -33.5t50 -10.5q16 0 28 6t21.5 15t16.5 19.5t12 19.5q1 3 4 8t6 11t6 11t4 7 q12 22 32 52l45 64l52 71l54 73l80 111q38 51 57 83v3q4 11 9 23.5t5 23.5zM326 608q-6 -5 -9 -12l-102 -214q14 -3 27.5 -9.5t19.5 -20.5v-7q0 -9 -6.5 -17t-29.5 -16h-10l-7 -3q-11 -1 -31 -3t-42.5 -4.5t-45.5 -4t-39 -1.5q-7 0 -11.5 0.5t-8.5 3.5q-45 9 -45 38 q0 11 8.5 23.5t34.5 16.5l-2 -1l20 3q6 1 14 2q3 0 4 0.5t4 0.5l108 244q-7 0 -16 0.5t-18 2t-16.5 5.5t-11.5 12q-1 2 -2 5.5t-1 7.5q0 6 2.5 13t10.5 13q10 9 33.5 14t48 7t43.5 2.5t20 0.5q29 0 45.5 -2.5t30.5 -18.5q8 -7 8 -13v-5q0 -12 -11 -31l-19 -33zM906 218 q0 22 -10.5 29t-29.5 7q-8 0 -14.5 -0.5t-12.5 -1.5q-6 -2 -12 -2q-5 0 -11 2q1 5 2 9l2 8q8 28 14.5 45t12 28t8.5 18.5t4 17.5q-6 17 -20 25t-33 8q-22 -2 -38.5 -15t-28 -31.5t-18.5 -40t-11.5 -40.5t-6.5 -32t-3 -14l-35 -4q-19 -3 -40 -4.5t-42 -2.5t-39 -1l30 39 l39 47q19 24 31.5 42.5t10.5 22.5l3 9q2 3 2 7q0 16 -9.5 26.5t-26.5 15.5q-3 1 -6.5 1.5t-11.5 0.5q-44 0 -66 -50l-27 -41l-17 -24q-7 -10 -11.5 -15t-7.5 -9q-20 -25 -35 -48.5t-25 -58.5q1 -9 5 -19t10 -20t12 -19t12 -14q10 -6 26 -5.5t31.5 3.5t26.5 6t11 2 q26 2 58.5 3t56.5 1h11q-2 -7 -5 -13.5t-5 -14.5q-8 -21 -12 -35l-7 -21q-2 -8 -2.5 -12.5t-0.5 -8.5q0 -13 6.5 -20t27.5 -7q39 -1 54 4.5t26 27.5q4 4 8 15.5t7 25t5.5 26.5t4.5 20q1 7 2 12.5t4 10.5q14 0 23.5 0.5t16.5 2t13 3.5t13 5q12 5 21 10t15.5 12t10 17.5 t3.5 25.5v3z" />
<glyph unicode="&#xbd;" horiz-adv-x="886" d="M631 607q0 19 -12.5 32t-42.5 13q-22 0 -37.5 -4t-25.5 -10.5t-15.5 -14.5t-8.5 -16l-43 -58l-59 -83l-67 -97l-66 -98l-56 -88q-26 -40 -39 -65q-14 -21 -19.5 -38t-5.5 -30q0 -23 15 -33.5t50 -10.5q16 0 28 6t21.5 15t16.5 19.5t12 19.5q1 3 4 8t6 11t6 11t4 7 q12 22 32 52l45 64l52 71l54 73l80 111q38 51 57 83v3q4 11 9 23.5t5 23.5zM326 608q-6 -5 -9 -12l-102 -214q14 -3 27.5 -9.5t19.5 -20.5v-7q0 -9 -6.5 -17t-29.5 -16h-10l-7 -3q-11 -1 -31 -3t-42.5 -4.5t-45.5 -4t-39 -1.5q-7 0 -11.5 0.5t-8.5 3.5q-45 9 -45 38 q0 11 8.5 23.5t34.5 16.5l-2 -1l20 3q6 1 14 2q3 0 4 0.5t4 0.5l108 244q-7 0 -16 0.5t-18 2t-16.5 5.5t-11.5 12q-1 2 -2 5.5t-1 7.5q0 6 2.5 13t10.5 13q10 9 33.5 14t48 7t43.5 2.5t20 0.5q29 0 45.5 -2.5t30.5 -18.5q8 -7 8 -13v-5q0 -12 -11 -31l-19 -33zM763 422l1 -2 q12 -4 15.5 -9t10.5 -10l1 -3q1 -1 5 -4q8 -5 23 -5q3 -1 5.5 -1.5t6.5 -0.5q52 -6 55 -46v-8q0 -15 -8 -36t-21.5 -43t-31 -44t-36.5 -39q-27 -24 -52 -43l-43 -33h4q26 0 54 -2.5t44 -8.5q11 -3 20 -11.5t9 -20.5q0 -7 -1 -10q-5 -24 -49 -33h-50q-19 0 -38 -1t-42 -4 q-35 -2 -54.5 -3t-36 -2.5t-34.5 -4.5l-49 -8h5q-8 -2 -12.5 -2.5t-7.5 -0.5q-42 0 -60 30l2 -1q-5 5 -6.5 9t-1.5 8v5q0 6 3.5 12t7.5 11q11 11 25 14l29 6h-1l6 1l6 2h-1q19 4 29.5 8t24.5 11l-3 -1q52 29 89 58t74 66l27 30q11 11 18 20.5t11.5 19.5t9.5 25v9q0 3 -2 5 h-9q-26 0 -53 -15.5t-48 -32.5q0 -4 -9 -8q-8 -6 -30 -25t-60 -61l1 3q-7 -12 -22 -17t-30 -5q-7 0 -13 0.5t-12 1.5l1 -1q-22 4 -31.5 13.5t-16.5 25.5v5q0 12 18.5 34.5t45 47.5t54.5 47t46 33q42 28 78 40.5t63 12.5q23 0 47 -8z" />
<glyph unicode="&#xbe;" horiz-adv-x="1027" d="M772 607q0 19 -12.5 32t-42.5 13q-22 0 -37 -4t-25 -10.5t-16 -14.5t-9 -16l-43 -58l-59 -83l-67 -97l-66 -98l-56 -88q-25 -40 -39 -65q-14 -21 -19.5 -38t-5.5 -30q0 -23 15 -33.5t50 -10.5q16 0 28 6t22 15t17 19.5t12 19.5q1 3 4 8t6 11l5 11q3 5 5 7q12 22 31 52 l44 64l52 71l55 73l81 111q38 51 57 83v3l9 24q4 12 4 23zM1047 218q0 22 -10.5 29t-29.5 7q-8 0 -14 -0.5t-13 -1.5q-6 -2 -12 -2q-5 0 -11 2q2 5 2.5 9t1.5 8q8 28 15 45t12 28l8 18q4 8 4 18q-6 17 -20 25t-33 8q-22 -2 -38 -15t-27.5 -31.5t-19 -40t-12 -40.5t-6.5 -32 t-3 -14l-35 -5q-19 -2 -40 -3.5t-42 -2.5t-39 -1l30 39l39 47q19 24 31.5 42.5t10.5 22.5q5 10 5 16q0 16 -9.5 26.5t-26.5 15.5q-3 1 -6.5 1.5t-11.5 0.5q-44 0 -66 -50l-27 -41l-17 -25l-11 -14l-7 -9q-21 -25 -36 -48.5t-24 -58.5q2 -17 14.5 -39t23.5 -33q10 -6 26 -5.5 t31.5 3.5t26.5 6t11 2q26 2 58.5 3t56.5 1h12q-2 -7 -5 -13.5t-5 -14.5q-8 -21 -12.5 -34.5t-6.5 -21.5t-3 -12.5t-1 -8.5q0 -13 6.5 -20t27.5 -7q39 -1 54 4.5t26 27.5q4 4 8 15.5t7 25t5.5 26.5t4.5 20q1 7 2 12.5t4 10.5q14 0 23.5 0.5t17 2t13 3.5t12.5 5q24 11 37 22.5 t13 42.5v3zM422 380q25 40 25.5 83t-36.5 78q18 14 34.5 35.5t16.5 49.5q1 25 -11 43t-32.5 29t-47.5 15t-55 1q-29 0 -60 -4.5t-61 -14.5t-57 -26.5t-49 -40.5q5 -20 18 -36.5t39 -16.5q6 1 17.5 5t22.5 9q25 14 55 26.5t59 12.5q9 0 19.5 -2t21.5 -7q-1 -6 -9.5 -14 t-16.5 -14h2q-19 -8 -39 -12.5t-43 -7.5q-2 0 -3 -0.5t-2 -0.5q-23 -5 -44.5 -11t-43.5 -20q-2 -7 -2.5 -13.5t-0.5 -12.5q0 -23 14.5 -36t37.5 -13q8 0 12.5 0.5t10.5 2.5q16 5 32 7.5t33 2.5q24 3 38.5 -8.5t14.5 -28.5q-6 -21 -25 -37t-44 -25.5t-53 -10.5t-51 9 q-14 3 -26 13l-23 19q-12 13 -23.5 21.5t-27.5 8.5q-13 -1 -16 -1.5t-4 -1.5h1q-9 -5 -19 -11.5t-19 -15t-15 -19t-6 -23.5q0 -5 1 -6q20 -36 48 -50t70 -26q20 -5 42 -7.5t43 -2.5q38 0 75.5 7.5t69.5 21.5t56 33.5t36 43.5z" />
<glyph unicode="&#xbf;" horiz-adv-x="844" d="M25 -20h1q-5 -11 -6 -20t-1 -17q0 -42 35 -78q49 -50 120 -61q25 -4 59 -6t81 -2q38 0 67 1.5t49 5.5h-1q124 13 163 24q198 45 224 113q1 3 2 5.5t1 7.5q0 8 -1 19.5t-4 21.5t-9.5 17t-17.5 7q-14 13 -35 13q-17 0 -40 -8.5t-53 -22.5q-28 -14 -43 -23.5t-17 -10.5 q-22 -6 -36 -12l-26 -10q-12 -4 -24.5 -7t-31.5 -5q-42 -5 -74 -7.5t-55 -2.5h-2q-163 0 -163 45q0 3 1 6l2 6q24 58 187 102q35 10 60 14l52 7q28 4 66 11q8 2 15.5 3t15.5 3l23 4l21 4q8 2 14 3t11 2q29 5 51 25t30 41q3 5 4.5 14t3.5 26q1 7 1.5 13t0.5 12v21 q0 18 2.5 34.5t2.5 29.5q0 15 -6.5 23.5t-28.5 10.5q-11 1 -20 1h-16q-22 0 -35 -2.5t-20.5 -8t-10 -14.5t-2.5 -22q0 -22 -6 -53l-9 -15q-6 -4 -12.5 -7.5t-17.5 -5.5l-11 -2q-11 -1 -24 -3q-43 -5 -92 -17.5t-106 -31.5q-62 -20 -108 -41t-79 -42q-17 -13 -35 -28.5 t-36 -35.5q-3 -2 -3 -4t-3 -4l-26 -36q-12 -16 -19 -30zM594 498l1 1q-3 -5 -3.5 -9t-0.5 -9q0 -22 24 -40q28 -19 66 -19q74 0 101 33q24 19 25 27v-1q5 15 8.5 28t3.5 25q0 55 -73 55q-45 0 -91 -28q-49 -28 -61 -63z" />
<glyph unicode="&#xc0;" horiz-adv-x="785" d="M585 96l12 -51q5 -21 12.5 -33.5t19 -19.5t26.5 -10t36 -6q8 0 17 2t23 7q22 7 31 22.5t9 32.5q0 15 -6 26l-1 2q-104 595 -147 608l-18 4q-8 1 -22 1h-5q2 0 2 1q-59 -7 -94 -18t-56.5 -26t-34.5 -35l-28 -44q-12 -21 -28 -45t-36 -48l-69 -90l-76 -102l-70 -102 q-34 -50 -58 -91q-9 -17 -13.5 -31t-4.5 -31v-13q0 -11 7 -20.5t18 -16t24 -10t26 -3.5q33 0 59 10.5t44 41.5l22 40l18 32q8 13 17 24t21 21l5 1h14q3 0 4 0.5t4 0.5q32 2 67 3l54 2l52 2q26 1 48 1.5t37 0.5h14l9 -3h1l5 -4l3 -3zM539 233l-5 -2h-197l-3 1l-8 11v4 l161 215l9 3l13 -2l6 -5l32 -214l-2 -4l-9 -7h3zM621 709q23 7 34 13t11 20q0 10 -14 33q-10 16 -24.5 34t-31.5 35.5t-35 32t-34 23.5q-19 10 -37 15.5t-32 5.5q-20 0 -31 -8.5t-11 -28.5q0 -9 0.5 -13t2.5 -9q7 -16 14.5 -27.5t18 -21t24 -18.5t33.5 -21l36 -21 q15 -9 21 -16q19 -19 33 -23.5t19 -4.5h3z" />
<glyph unicode="&#xc1;" horiz-adv-x="785" d="M585 96l12 -51q5 -21 12.5 -33.5t19 -19.5t26.5 -10t36 -6q8 0 17 2t23 7q22 7 31 22.5t9 32.5q0 15 -6 26l-1 2q-104 595 -147 608l-18 4q-8 1 -22 1h-5q2 0 2 1q-59 -7 -94 -18t-56.5 -26t-34.5 -35l-28 -44q-12 -21 -28 -45t-36 -48l-69 -90l-76 -102l-70 -102 q-34 -50 -58 -91q-9 -17 -13.5 -31t-4.5 -31v-13q0 -11 7 -20.5t18 -16t24 -10t26 -3.5q33 0 59 10.5t44 41.5l22 40l18 32q8 13 17 24t21 21l5 1h14q3 0 4 0.5t4 0.5q32 2 67 3l54 2l52 2q26 1 48 1.5t37 0.5h14l9 -3h1l5 -4l3 -3zM539 233l-5 -2h-197l-3 1l-8 11v4 l161 215l9 3l13 -2l6 -5l32 -214l-2 -4l-9 -7h3zM490 703h3q9 0 19.5 4t30.5 24q6 7 21 16l36 21l33 21q14 9 24.5 18.5t18 21t14.5 27.5q1 5 2 9t1 13q0 20 -11 28.5t-31 8.5q-14 0 -32 -5.5t-38 -15.5q-16 -9 -34 -23.5t-34.5 -32t-31 -35.5t-24.5 -34q-14 -23 -14 -33 q0 -14 10 -19.5t32 -12.5z" />
<glyph unicode="&#xc2;" horiz-adv-x="785" d="M585 96l12 -51q5 -21 12.5 -33.5t19 -19.5t26.5 -10t36 -6q8 0 17 2t23 7q22 7 31 22.5t9 32.5q0 15 -6 26l-1 2q-104 595 -147 608l-18 4q-8 1 -22 1h-5q2 0 2 1q-59 -7 -94 -18t-56.5 -26t-34.5 -35l-28 -44q-12 -21 -28 -45t-36 -48l-69 -90l-76 -102l-70 -102 q-34 -50 -58 -91q-9 -17 -13.5 -31t-4.5 -31v-13q0 -11 7 -20.5t18 -16t24 -10t26 -3.5q33 0 59 10.5t44 41.5l22 40l18 32q8 13 17 24t21 21l5 1h14q3 0 4 0.5t4 0.5q32 2 67 3l54 2l52 2q26 1 48 1.5t37 0.5h14l9 -3h1l5 -4l3 -3zM539 233l-5 -2h-197l-3 1l-8 11v4 l161 215l9 3l13 -2l6 -5l32 -214l-2 -4l-9 -7h3zM674 808v1q4 -9 7 -18t3 -20q0 -28 -23 -42q-14 -9 -26 -9q-10 0 -17.5 3t-15.5 7q-32 19 -50.5 27t-44.5 10q-8 -5 -12.5 -9t-9.5 -8q-10 -8 -18.5 -15.5t-22.5 -18.5q-10 -6 -18 -9t-17 -3q-27 0 -43 26q-6 10 -6 26 q0 18 9 32.5t20 22.5q4 5 15 11l23 10q11 5 20 10t9 10q6 21 16.5 30t28.5 9h4q33 0 61 -10.5t48 -22.5t30 -21.5t7 -7.5q7 -3 12 -7t11 -14z" />
<glyph unicode="&#xc3;" horiz-adv-x="785" d="M585 96l12 -51q5 -21 12.5 -33.5t19 -19.5t26.5 -10t36 -6q8 0 17 2t23 7q22 7 31 22.5t9 32.5q0 15 -6 26l-1 2q-104 595 -147 608l-18 4q-8 1 -22 1h-5q2 0 2 1q-59 -7 -94 -18t-56.5 -26t-34.5 -35l-28 -44q-12 -21 -28 -45t-36 -48l-69 -90l-76 -102l-70 -102 q-34 -50 -58 -91q-9 -17 -13.5 -31t-4.5 -31v-13q0 -11 7 -20.5t18 -16t24 -10t26 -3.5q33 0 59 10.5t44 41.5l22 40l18 32q8 13 17 24t21 21l5 1h14q3 0 4 0.5t4 0.5q32 2 67 3l54 2l52 2q26 1 48 1.5t37 0.5h14l9 -3h1l5 -4l3 -3zM539 233l-5 -2h-197l-3 1l-8 11v4 l161 215l9 3l13 -2l6 -5l32 -214l-2 -4l-9 -7h3zM707 789v2q0 12 -16.5 21t-35.5 9q-15 0 -28.5 -5.5t-20.5 -17.5q-1 -2 -1.5 -5t-2.5 -5q-2 -6 -5 -12.5t-8 -6.5q-6 0 -11 5l-12 11v-1q-11 11 -26.5 22t-47.5 11q-20 0 -44 -6.5t-45 -17.5t-36.5 -24.5t-16.5 -27.5v-2 q0 -14 14.5 -24t39.5 -10q16 0 27.5 7t22.5 16q6 5 13.5 10t12.5 5l3 -3q3 -3 8 -6q12 -11 31.5 -22t54.5 -11q58 0 91.5 18t38.5 70z" />
<glyph unicode="&#xc4;" horiz-adv-x="785" d="M585 96l12 -51q5 -21 12.5 -33.5t19 -19.5t26.5 -10t36 -6q8 0 17 2t23 7q22 7 31 22.5t9 32.5q0 15 -6 26l-1 2q-104 595 -147 608l-18 4q-8 1 -22 1h-5q2 0 2 1q-59 -7 -94 -18t-56.5 -26t-34.5 -35l-28 -44q-12 -21 -28 -45t-36 -48l-69 -90l-76 -102l-70 -102 q-34 -50 -58 -91q-9 -17 -13.5 -31t-4.5 -31v-13q0 -11 7 -20.5t18 -16t24 -10t26 -3.5q33 0 59 10.5t44 41.5l22 40l18 32q8 13 17 24t21 21l5 1h14q3 0 4 0.5t4 0.5q32 2 67 3l54 2l52 2q26 1 48 1.5t37 0.5h14l9 -3h1l5 -4l3 -3zM539 233l-5 -2h-197l-3 1l-8 11v4 l161 215l9 3l13 -2l6 -5l32 -214l-2 -4l-9 -7h3zM512 755v-1q0 -23 -31 -36.5t-82 -13.5q-45 1 -72 16.5t-34 38.5q0 23 29 37t77 14h3q50 0 78 -16t32 -39zM757 755v-1q0 -23 -32.5 -36.5t-80.5 -13.5q-48 1 -75 17t-28 39q0 23 28 36.5t74 13.5h6q47 0 76 -16t32 -39z" />
<glyph unicode="&#xc5;" horiz-adv-x="785" d="M585 96l12 -51q5 -21 12.5 -33.5t19 -19.5t26.5 -10t36 -6q8 0 17 2t23 7q22 7 31 22.5t9 32.5q0 15 -6 26l-1 2q-104 595 -147 608l-18 4q-8 1 -22 1h-5q2 0 2 1q-59 -7 -94 -18t-56.5 -26t-34.5 -35l-28 -44q-12 -21 -28 -45t-36 -48l-69 -90l-76 -102l-70 -102 q-34 -50 -58 -91q-9 -17 -13.5 -31t-4.5 -31v-13q0 -11 7 -20.5t18 -16t24 -10t26 -3.5q33 0 59 10.5t44 41.5l22 40l18 32q8 13 17 24t21 21l5 1h14q3 0 4 0.5t4 0.5q32 2 67 3l54 2l52 2q26 1 48 1.5t37 0.5h14l9 -3h1l5 -4l3 -3zM539 233l-5 -2h-197l-3 1l-8 11v4 l161 215l9 3l13 -2l6 -5l32 -214l-2 -4l-9 -7h3zM667 826q0 3 0.5 6t0.5 6q0 31 -22.5 54.5t-68.5 23.5q-39 0 -69.5 -13t-52 -32.5t-34 -43.5t-13.5 -45v-5q0 -15 5 -29t16 -24.5t29.5 -16.5t44.5 -6q30 0 59 10t51.5 27t37 39.5t16.5 47.5v1zM526 781q-5 0 -5 10 q1 14 13 27.5t35 13.5q5 0 5 -7v-4q-1 -16 -14.5 -28t-33.5 -12z" />
<glyph unicode="&#xc6;" horiz-adv-x="1306" d="M585 96l12 -51q5 -21 12.5 -33.5t19 -19.5t26.5 -10t36 -6q7 0 15.5 1.5t20.5 6.5q6 -2 11 -3t9 -1q18 0 32.5 1t28.5 3l30 4q16 2 36 5h2l368 44q26 2 36 5t11 5q6 6 7 11.5t-4 16.5q-2 4 -3.5 8.5t-6.5 10.5h-7q-16 11 -44 14t-51 5q-27 0 -55.5 -4t-57.5 -4 q-5 0 -9.5 0.5t-9.5 0.5q-2 0 -13 -1t-25 -1.5t-28.5 -1.5t-24.5 -1l-91 -4q-47 -2 -89 -7l-5 1l-17 8l-12 72q-6 35 -11 67l-3 32q-2 15 -2 21l2 1h1l8 2h24q8 -1 15 -1h13h27q20 0 40.5 0.5t47 2t62 4t85.5 6.5q5 0 16.5 0.5t24.5 1.5t24 1.5t15 0.5q15 2 23 6.5 t10.5 10.5t1 13t-4.5 14l-9 19q-14 20 -45 24.5t-68 4.5h-140q-48 0 -95 0.5t-78 3.5l-13 10l-2 4q-2 9 -4 31t-4 46.5t-3 46t-1 29.5h-1l3 2l6 2q13 1 20.5 1.5t13.5 0.5l13 1q6 1 19 1h50l234 8h47q12 0 13 1l1 3q29 5 35.5 14.5t2.5 18.5l-4 8q-10 10 -20 16t-23 9.5 t-31.5 5.5t-44.5 4q-35 0 -80.5 2t-95.5 3l-103 3q-52 2 -101 2q-48 0 -90 -2.5t-71 -8.5q-32 -8 -52.5 -19t-35 -24.5t-24.5 -30.5l-22 -35q-12 -21 -28 -45t-36 -48l-69 -91l-76 -101l-70 -102q-34 -50 -58 -91q-9 -17 -13.5 -31t-4.5 -31v-13q0 -11 7 -20.5t18 -16 t24 -10t26 -3.5q33 0 59 10.5t44 41.5l23 40l17 32q8 13 17 24t21 21l5 1h14q3 0 4 0.5t4 0.5q32 2 67 3l54 2l52 2q26 1 48 1.5t37 0.5h14l9 -3h1l5 -4l3 -3zM539 233l-5 -2h-197l-3 1l-8 11v4l161 215l9 3l13 -2l6 -5l32 -214l-2 -4l-9 -7h3z" />
<glyph unicode="&#xc7;" horiz-adv-x="762" d="M206 -97q-14 -7 -19 -10t-5 -14q0 -1 9 -1h23h73h24q10 0 11 -1q-41 -9 -69.5 -21t-46 -24t-25 -23t-7.5 -17q0 -17 31 -25t77 -8q40 0 85.5 5.5t84 15.5t63.5 24t25 31v11q0 20 -16 35t-39 27q-22 8 -41.5 14t-44.5 8l32 21q79 5 144 30t135 67q22 14 30.5 23t15.5 19 q-2 47 -52 47h-5q-1 0 -12 -2t-26 -6t-31.5 -10t-29.5 -14h2q-32 -14 -72 -28.5t-104 -28.5q-11 -3 -46 -3q-10 0 -22 1t-28 4t-37 8.5t-49 14.5q-24 18 -44.5 40t-27.5 50v12q0 12 2 15q7 58 40 110q35 54 76 105.5t90 87.5q35 30 75.5 50.5t85.5 20.5h4l112 -65 q2 -1 15 -6l28 -12q16 -7 17 -7q29 11 46.5 26.5t17.5 27.5q0 4 -1 6v8q-8 26 -36 45.5t-70 36.5q-34 14 -58.5 23t-44.5 14.5t-37 8t-35 2.5q-20 0 -47.5 -3.5t-60.5 -11.5q-77 -38 -143.5 -88.5t-117 -111.5t-83 -130t-42.5 -143v-13q0 -8 1 -11q3 -27 8.5 -45.5 t16.5 -35.5l28 -26q21 -23 48 -39t58 -27.5t64 -18.5t67 -11z" />
<glyph unicode="&#xc8;" horiz-adv-x="811" d="M14 23q15 -8 32 -19l32 -20q17 -9 31.5 -15.5t25.5 -6.5q17 0 32 1t31 3l32 4q16 2 36 5h3l386 44q26 2 37 5t14 5q8 6 11 11.5t3 16.5v8q0 5 -1 11h-7q-6 6 -16.5 9t-23 5t-25.5 3t-23 2q-28 0 -58 -4t-59 -4q-5 0 -8.5 0.5t-8.5 0.5q-2 0 -13.5 -1t-26.5 -1.5t-30 -1.5 t-25 -1l-93 -4q-47 -2 -92 -7l-5 1l-11 9l-2 4q1 13 8 41t16 57l16 56q8 25 12 33l2 1h1l8 2h5h19q8 -1 15 -1h13h27q20 0 40.5 0.5t47.5 2t63.5 4t88.5 6.5q5 0 17 0.5t25 1.5t24 1.5t15 0.5q34 4 41.5 17t7.5 27v19q-7 20 -36.5 24.5t-66.5 4.5h-76h-64q-48 0 -95 0.5 t-76 3.5l-9 10l-1 4q2 9 9 31l15 47l16 46q7 21 11 29h-1l4 2l6 2q13 1 21 1.5t14.5 1t14 1t20.5 0.5h50l235 8h47q12 0 13 1q3 3 5 3q29 5 39 14.5t10 18.5v8q-6 10 -14 16t-19.5 9.5t-28.5 5.5t-42 4q-32 1 -75 3t-86.5 3.5t-84 2.5t-68.5 1h-59h-38h-24q-12 0 -26 1 q-35 0 -54.5 -3t-31.5 -13t-18.5 -28.5t-15.5 -49.5zM546 705q23 7 34 13t11 20q0 10 -14 33q-10 16 -24.5 34t-31.5 35.5t-35 32t-34 23.5q-19 10 -37 15.5t-32 5.5q-20 0 -31 -8.5t-11 -28.5q0 -9 0.5 -13t2.5 -9q7 -16 14.5 -27.5t18 -21t24 -18.5t33.5 -21l36 -21 q15 -9 21 -16q19 -19 33 -23.5t19 -4.5h3z" />
<glyph unicode="&#xc9;" horiz-adv-x="811" d="M14 23q15 -8 32 -19l32 -20q17 -9 31.5 -15.5t25.5 -6.5q17 0 32 1t31 3l32 4q16 2 36 5h3l386 44q26 2 37 5t14 5q8 6 11 11.5t3 16.5v8q0 5 -1 11h-7q-6 6 -16.5 9t-23 5t-25.5 3t-23 2q-28 0 -58 -4t-59 -4q-5 0 -8.5 0.5t-8.5 0.5q-2 0 -13.5 -1t-26.5 -1.5t-30 -1.5 t-25 -1l-93 -4q-47 -2 -92 -7l-5 1l-11 9l-2 4q1 13 8 41t16 57l16 56q8 25 12 33l2 1h1l8 2h5h19q8 -1 15 -1h13h27q20 0 40.5 0.5t47.5 2t63.5 4t88.5 6.5q5 0 17 0.5t25 1.5t24 1.5t15 0.5q34 4 41.5 17t7.5 27v19q-7 20 -36.5 24.5t-66.5 4.5h-76h-64q-48 0 -95 0.5 t-76 3.5l-9 10l-1 4q2 9 9 31l15 47l16 46q7 21 11 29h-1l4 2l6 2q13 1 21 1.5t14.5 1t14 1t20.5 0.5h50l235 8h47q12 0 13 1q3 3 5 3q29 5 39 14.5t10 18.5v8q-6 10 -14 16t-19.5 9.5t-28.5 5.5t-42 4q-32 1 -75 3t-86.5 3.5t-84 2.5t-68.5 1h-59h-38h-24q-12 0 -26 1 q-35 0 -54.5 -3t-31.5 -13t-18.5 -28.5t-15.5 -49.5zM423 697h3q9 0 19.5 4t30.5 24q6 7 21 16l36 21l33 21q14 9 24.5 18.5t18 21t14.5 27.5q1 5 2 9t1 13q0 20 -11 28.5t-31 8.5q-14 0 -32 -5.5t-38 -15.5q-16 -9 -34 -23.5t-34.5 -32t-31 -35.5t-24.5 -34 q-14 -23 -14 -33q0 -14 10 -19.5t32 -12.5z" />
<glyph unicode="&#xca;" horiz-adv-x="811" d="M14 23q15 -8 32 -19l32 -20q17 -9 31.5 -15.5t25.5 -6.5q17 0 32 1t31 3l32 4q16 2 36 5h3l386 44q26 2 37 5t14 5q8 6 11 11.5t3 16.5v8q0 5 -1 11h-7q-6 6 -16.5 9t-23 5t-25.5 3t-23 2q-28 0 -58 -4t-59 -4q-5 0 -8.5 0.5t-8.5 0.5q-2 0 -13.5 -1t-26.5 -1.5t-30 -1.5 t-25 -1l-93 -4q-47 -2 -92 -7l-5 1l-11 9l-2 4q1 13 8 41t16 57l16 56q8 25 12 33l2 1h1l8 2h5h19q8 -1 15 -1h13h27q20 0 40.5 0.5t47.5 2t63.5 4t88.5 6.5q5 0 17 0.5t25 1.5t24 1.5t15 0.5q34 4 41.5 17t7.5 27v19q-7 20 -36.5 24.5t-66.5 4.5h-76h-64q-48 0 -95 0.5 t-76 3.5l-9 10l-1 4q2 9 9 31l15 47l16 46q7 21 11 29h-1l4 2l6 2q13 1 21 1.5t14.5 1t14 1t20.5 0.5h50l235 8h47q12 0 13 1q3 3 5 3q29 5 39 14.5t10 18.5v8q-6 10 -14 16t-19.5 9.5t-28.5 5.5t-42 4q-32 1 -75 3t-86.5 3.5t-84 2.5t-68.5 1h-59h-38h-24q-12 0 -26 1 q-35 0 -54.5 -3t-31.5 -13t-18.5 -28.5t-15.5 -49.5zM631 814v1q4 -9 7 -18t3 -20q0 -28 -23 -42q-14 -9 -26 -9q-10 0 -17.5 3t-15.5 7q-32 19 -50.5 27t-44.5 10q-8 -5 -12.5 -9t-9.5 -8q-10 -8 -18.5 -15.5t-22.5 -18.5q-10 -6 -18 -9t-17 -3q-27 0 -43 26q-6 10 -6 26 q0 18 9 32.5t20 22.5q4 5 16 11l22 10q11 5 20 10t9 10q6 21 16.5 30t28.5 9h4q33 0 61 -10.5t48 -22.5t30 -21.5t7 -7.5q7 -3 12 -7t11 -14z" />
<glyph unicode="&#xcb;" horiz-adv-x="811" d="M14 23q15 -8 32 -19l32 -20q17 -9 31.5 -15.5t25.5 -6.5q17 0 32 1t31 3l32 4q16 2 36 5h3l386 44q26 2 37 5t14 5q8 6 11 11.5t3 16.5v8q0 5 -1 11h-7q-6 6 -16.5 9t-23 5t-25.5 3t-23 2q-28 0 -58 -4t-59 -4q-5 0 -8.5 0.5t-8.5 0.5q-2 0 -13.5 -1t-26.5 -1.5t-30 -1.5 t-25 -1l-93 -4q-47 -2 -92 -7l-5 1l-11 9l-2 4q1 13 8 41t16 57l16 56q8 25 12 33l2 1h1l8 2h5h19q8 -1 15 -1h13h27q20 0 40.5 0.5t47.5 2t63.5 4t88.5 6.5q5 0 17 0.5t25 1.5t24 1.5t15 0.5q34 4 41.5 17t7.5 27v19q-7 20 -36.5 24.5t-66.5 4.5h-76h-64q-48 0 -95 0.5 t-76 3.5l-9 10l-1 4q2 9 9 31l15 47l16 46q7 21 11 29h-1l4 2l6 2q13 1 21 1.5t14.5 1t14 1t20.5 0.5h50l235 8h47q12 0 13 1q3 3 5 3q29 5 39 14.5t10 18.5v8q-6 10 -14 16t-19.5 9.5t-28.5 5.5t-42 4q-32 1 -75 3t-86.5 3.5t-84 2.5t-68.5 1h-59h-38h-24q-12 0 -26 1 q-35 0 -54.5 -3t-31.5 -13t-18.5 -28.5t-15.5 -49.5zM484 768v-1q0 -23 -31 -36.5t-82 -13.5q-45 1 -72 16.5t-34 38.5q0 23 29 37t77 14h3q50 0 78 -16t32 -39zM729 768v-1q0 -23 -32.5 -36.5t-80.5 -13.5q-48 1 -75 17t-28 39q0 23 28 36.5t74 13.5h6q47 0 76 -16t32 -39z " />
<glyph unicode="&#xcc;" horiz-adv-x="347" d="M124 -27h15l14 15q5 6 8 11t5 11t4 17q0 1 6 21l14 51q8 32 20 73l24 85l26 88l24 81q6 28 17 52t19 47q8 19 14 43l13 47q0 13 -7.5 25.5t-20.5 21.5t-29.5 14.5t-35.5 5.5h-18q-8 7 -19 7q-23 0 -46 -44t-48.5 -128.5t-54.5 -206.5l-62 -280q5 -18 19 -29l1 -1h-4 q6 0 10 -4zM345 728q23 7 34 13t11 20q0 10 -14 33q-10 16 -24.5 34t-31.5 35.5t-35 32t-34 23.5q-19 10 -37 15.5t-32 5.5q-20 0 -31 -8.5t-11 -28.5q0 -9 0.5 -13t2.5 -9q7 -16 14.5 -27.5t18 -21t24 -18.5t33.5 -21l36 -21q15 -9 21 -16q19 -19 33 -23.5t19 -4.5h3z" />
<glyph unicode="&#xcd;" horiz-adv-x="347" d="M124 -27h15l14 15q5 6 8 11t5 11t4 17q0 1 6 21l14 51q8 32 20 73l24 85l26 88l24 81q6 28 17 52t19 47q8 19 14 43l13 47q0 13 -7.5 25.5t-20.5 21.5t-29.5 14.5t-35.5 5.5h-18q-8 7 -19 7q-23 0 -46 -44t-48.5 -128.5t-54.5 -206.5l-62 -280q5 -18 19 -29l1 -1h-4 q6 0 10 -4zM221 722h3q9 0 19.5 4t30.5 24q6 7 21 16l36 21l33 21q14 9 24.5 18.5t18 21t14.5 27.5q1 5 2 9t1 13q0 20 -11 28.5t-31 8.5q-14 0 -32 -5.5t-38 -15.5q-16 -9 -34 -23.5t-34.5 -32t-31 -35.5t-24.5 -34q-14 -23 -14 -33q0 -14 10 -19.5t32 -12.5z" />
<glyph unicode="&#xce;" horiz-adv-x="347" d="M124 -27h15l14 15q5 6 8 11t5 11t4 17q0 1 6 21l14 51q8 32 20 73l24 85l26 88l24 81q6 28 17 52t19 47q8 19 14 43l13 47q0 13 -7.5 25.5t-20.5 21.5t-29.5 14.5t-35.5 5.5h-18q-8 7 -19 7q-23 0 -46 -44t-48.5 -128.5t-54.5 -206.5l-62 -280q5 -18 19 -29l1 -1h-4 q6 0 10 -4zM415 819v1q4 -9 7 -18t3 -20q0 -28 -23 -42q-14 -9 -26 -9q-10 0 -17.5 3t-15.5 7q-32 19 -50.5 27t-44.5 10q-8 -5 -12.5 -9t-9.5 -8q-10 -8 -18.5 -15.5t-22.5 -18.5q-10 -6 -18 -9t-17 -3q-27 0 -43 26q-6 10 -6 26q0 18 9 32.5t20 22.5q4 5 16 10l22 11 q11 5 20 10t9 10q6 21 16.5 30t28.5 9h4q33 0 61 -10.5t48 -22.5t30 -21.5t7 -7.5q7 -3 12 -7t11 -14z" />
<glyph unicode="&#xcf;" horiz-adv-x="347" d="M124 -27h15l14 15q5 6 8 11t5 11t4 17q0 1 6 21l14 51q8 32 20 73l24 85l26 88l24 81q6 28 17 52t19 47q8 19 14 43l13 47q0 13 -7.5 25.5t-20.5 21.5t-29.5 14.5t-35.5 5.5h-18q-8 7 -19 7q-23 0 -46 -44t-48.5 -128.5t-54.5 -206.5l-62 -280q5 -18 19 -29l1 -1h-4 q6 0 10 -4zM265 776v-1q0 -23 -31 -36.5t-82 -13.5q-45 1 -72 16.5t-34 38.5q0 23 29 37t77 14h3q50 0 78 -16t32 -39zM510 776v-1q0 -23 -32.5 -36.5t-80.5 -13.5q-48 1 -75 17t-28 39q0 23 28 36.5t74 13.5h6q47 0 76 -16t32 -39z" />
<glyph unicode="&#xd0;" horiz-adv-x="887" d="M-70 301q11 -12 35 -16t61 -4h36q-15 -55 -26.5 -111t-20.5 -120v-14l1 -1q5 -28 28 -42l120 -32q29 0 55 2t46 4q80 6 154.5 27.5t139 53.5t118 73.5t91 87t58.5 94t21 95.5q0 46 -22 88.5t-70 77t-124 59t-184 35.5h-2q-33 7 -75 8.5t-95 1.5l-81 -11 q-24 -49 -37 -79.5t-16 -42.5q0 -5 -0.5 -7t-3.5 -7l-23 -66q-10 -31 -19 -62q-48 -1 -87 -2t-48 -3h1q-26 -4 -39 -8.5t-13 -19.5q4 -21 8.5 -36t12.5 -23zM354 557q110 0 176 -8t99 -26q49 -29 66.5 -54.5t20.5 -45.5l1 -7q-1 -41 -33.5 -86.5t-87 -90t-126.5 -85.5 t-153 -71q-8 -4 -39 -13t-68 -17l-19 14q5 42 20 100t34 119q21 1 43.5 1.5t42 1.5t34.5 2t21 2h25q32 0 47.5 1.5t27.5 8.5q11 4 14.5 8.5t3.5 12.5l-13 21q-6 10 -12 14q-33 24 -83 30.5t-107 6.5h-8l35 96q16 41 24 59h-1l5 3z" />
<glyph unicode="&#xd1;" horiz-adv-x="835" d="M770 675q-21 -3 -36 -13t-25.5 -23.5t-17 -30t-10.5 -32.5l-5 -19l-14 -49q-8 -31 -20 -70l-25 -81l-27 -81q-13 -40 -26 -72l-4 -2l-16 -1q-22 39 -38.5 75t-29.5 70.5t-23 68.5t-17 71q-4 6 -4.5 16.5t-0.5 24.5v16q0 17 -1.5 35t-7.5 33t-18.5 25t-33.5 11 q-67 -3 -105.5 -12.5t-59.5 -25t-30 -38t-16 -51.5l-33 -99l-51 -159l-35 -110l-22 -70q-8 -25 -12 -39t-5 -20t-1 -10v-8q0 -14 8 -25.5t20.5 -20t28.5 -13t32 -4.5q25 0 44 11t23 37v5q7 17 24 62t36 101l36 116q18 59 27 104l6 4l16 1l5 -3q24 -68 50 -125.5t50.5 -101.5 t45.5 -73t35 -39q29 -30 57 -43.5t52 -13.5q29 0 50.5 15t32.5 41l40 102l21 54q8 19 11.5 29t8.5 27q2 11 7.5 28.5t12.5 35.5l12 36q6 17 10 27q3 6 10.5 22.5t15.5 40t15 50t11 52.5q9 18 17 39.5t8 41.5q0 26 -17 39zM731 789v2q0 12 -16.5 21t-35.5 9q-15 0 -28.5 -5.5 t-20.5 -17.5q-1 -2 -1.5 -5t-2.5 -5q-2 -6 -5 -12.5t-8 -6.5q-6 0 -11 5l-12 11v-1q-11 11 -26.5 22t-47.5 11q-20 0 -44 -6.5t-45 -17.5t-36.5 -24.5t-16.5 -27.5v-2q0 -14 14.5 -24t39.5 -10q16 0 27.5 7t22.5 16q6 5 13.5 10t12.5 5l3 -3q3 -3 8 -6q12 -11 31.5 -22 t54.5 -11q58 0 91.5 18t38.5 70z" />
<glyph unicode="&#xd2;" d="M571 657q-87 -8 -148 -19.5t-99 -28.5q-33 -15 -52.5 -25t-30.5 -15q-55 -32 -99 -74t-75.5 -88.5t-48.5 -95.5t-17 -94v-15q0 -10 1 -13q4 -23 13 -47.5t35 -53.5v1q21 -28 47 -48.5t59 -35.5t73.5 -25t90.5 -16q27 -5 52 -6.5t54 -1.5q83 0 150 13.5t118 44.5 q57 39 98.5 85.5t68.5 95.5t40 99.5t13 97.5v22q0 5 -1 11t-2 11q-3 19 -8.5 38.5t-16.5 37.5q-26 39 -56 65t-60.5 43t-61 25.5t-56.5 11.5h-81zM610 573q37 0 72 -18q32 -18 48 -52.5t22 -68.5q3 -15 3 -33q0 -55 -23 -118t-70 -117.5t-120 -91.5t-172 -40q-14 0 -36 6.5 t-45 15.5q-51 13 -77 42t-28 65q-2 1 -2 4q1 32 14 71.5t36 80.5t55.5 81t72.5 73.5t87 58t100 34.5q13 3 28.5 5t34.5 2zM655 698q23 7 34 13t11 20q0 10 -14 33q-10 16 -24.5 34t-31.5 35.5t-35 32t-34 23.5q-19 10 -37 15.5t-32 5.5q-20 0 -31 -8.5t-11 -28.5 q0 -9 0.5 -13t2.5 -9q7 -16 14.5 -27.5t18 -21t24 -18.5t33.5 -21l36 -21q15 -9 21 -16q19 -19 33 -23.5t19 -4.5h3z" />
<glyph unicode="&#xd3;" d="M571 657q-87 -8 -148 -19.5t-99 -28.5q-33 -15 -52.5 -25t-30.5 -15q-55 -32 -99 -74t-75.5 -88.5t-48.5 -95.5t-17 -94v-15q0 -10 1 -13q4 -23 13 -47.5t35 -53.5v1q21 -28 47 -48.5t59 -35.5t73.5 -25t90.5 -16q27 -5 52 -6.5t54 -1.5q83 0 150 13.5t118 44.5 q57 39 98.5 85.5t68.5 95.5t40 99.5t13 97.5v22q0 5 -1 11t-2 11q-3 19 -8.5 38.5t-16.5 37.5q-26 39 -56 65t-60.5 43t-61 25.5t-56.5 11.5h-81zM610 573q37 0 72 -18q32 -18 48 -52.5t22 -68.5q3 -15 3 -33q0 -55 -23 -118t-70 -117.5t-120 -91.5t-172 -40q-14 0 -36 6.5 t-45 15.5q-51 13 -77 42t-28 65q-2 1 -2 4q1 32 14 71.5t36 80.5t55.5 81t72.5 73.5t87 58t100 34.5q13 3 28.5 5t34.5 2zM469 689h3q9 0 19.5 4t30.5 24q6 7 21 16l36 21l33 21q14 9 24.5 18.5t18 21t14.5 27.5q1 5 2 9t1 13q0 20 -11 28.5t-31 8.5q-14 0 -32 -5.5 t-38 -15.5q-16 -9 -34 -23.5t-34.5 -32t-31 -35.5t-24.5 -34q-14 -23 -14 -33q0 -14 10 -19.5t32 -12.5z" />
<glyph unicode="&#xd4;" d="M571 657q-87 -8 -148 -19.5t-99 -28.5q-33 -15 -52.5 -25t-30.5 -15q-55 -32 -99 -74t-75.5 -88.5t-48.5 -95.5t-17 -94v-15q0 -10 1 -13q4 -23 13 -47.5t35 -53.5v1q21 -28 47 -48.5t59 -35.5t73.5 -25t90.5 -16q27 -5 52 -6.5t54 -1.5q83 0 150 13.5t118 44.5 q57 39 98.5 85.5t68.5 95.5t40 99.5t13 97.5v22q0 5 -1 11t-2 11q-3 19 -8.5 38.5t-16.5 37.5q-26 39 -56 65t-60.5 43t-61 25.5t-56.5 11.5h-81zM610 573q37 0 72 -18q32 -18 48 -52.5t22 -68.5q3 -15 3 -33q0 -55 -23 -118t-70 -117.5t-120 -91.5t-172 -40q-14 0 -36 6.5 t-45 15.5q-51 13 -77 42t-28 65q-2 1 -2 4q1 32 14 71.5t36 80.5t55.5 81t72.5 73.5t87 58t100 34.5q13 3 28.5 5t34.5 2zM744 799v1q4 -9 7 -18t3 -20q0 -28 -23 -42q-14 -9 -26 -9q-10 0 -17.5 3t-15.5 7q-32 19 -50.5 27t-44.5 10q-8 -5 -12.5 -9t-9.5 -8 q-10 -8 -18.5 -15.5t-22.5 -18.5q-10 -6 -18 -9t-17 -3q-27 0 -43 26q-6 10 -6 26q0 18 9 32.5t20 22.5q4 5 15 10l23 11q11 5 20 10t9 10q6 21 16.5 30t28.5 9h4q33 0 61 -10.5t48 -22.5t30 -21.5t7 -7.5q7 -3 12 -7t11 -14z" />
<glyph unicode="&#xd5;" d="M571 657q-87 -8 -148 -19.5t-99 -28.5q-33 -15 -52.5 -25t-30.5 -15q-55 -32 -99 -74t-75.5 -88.5t-48.5 -95.5t-17 -94v-15q0 -10 1 -13q4 -23 13 -47.5t35 -53.5v1q21 -28 47 -48.5t59 -35.5t73.5 -25t90.5 -16q27 -5 52 -6.5t54 -1.5q83 0 150 13.5t118 44.5 q57 39 98.5 85.5t68.5 95.5t40 99.5t13 97.5v22q0 5 -1 11t-2 11q-3 19 -8.5 38.5t-16.5 37.5q-26 39 -56 65t-60.5 43t-61 25.5t-56.5 11.5h-81zM610 573q37 0 72 -18q32 -18 48 -52.5t22 -68.5q3 -15 3 -33q0 -55 -23 -118t-70 -117.5t-120 -91.5t-172 -40q-14 0 -36 6.5 t-45 15.5q-51 13 -77 42t-28 65q-2 1 -2 4q1 32 14 71.5t36 80.5t55.5 81t72.5 73.5t87 58t100 34.5q13 3 28.5 5t34.5 2zM717 787v2q0 12 -16.5 21t-35.5 9q-15 0 -28.5 -5.5t-20.5 -17.5q-1 -2 -1.5 -5t-2.5 -5q-2 -6 -5 -12.5t-8 -6.5q-6 0 -11 5l-12 11v-1 q-11 11 -26.5 22t-47.5 11q-20 0 -44 -6.5t-45 -17.5t-36.5 -24.5t-16.5 -27.5v-2q0 -14 14.5 -24t39.5 -10q16 0 27.5 7t22.5 16q6 5 13.5 10t12.5 5l3 -3q3 -3 8 -6q12 -11 31.5 -22t54.5 -11q58 0 91.5 18t38.5 70z" />
<glyph unicode="&#xd6;" d="M571 657q-87 -8 -148 -19.5t-99 -28.5q-33 -15 -52.5 -25t-30.5 -15q-55 -32 -99 -74t-75.5 -88.5t-48.5 -95.5t-17 -94v-15q0 -10 1 -13q4 -23 13 -47.5t35 -53.5v1q21 -28 47 -48.5t59 -35.5t73.5 -25t90.5 -16q27 -5 52 -6.5t54 -1.5q83 0 150 13.5t118 44.5 q57 39 98.5 85.5t68.5 95.5t40 99.5t13 97.5v22q0 5 -1 11t-2 11q-3 19 -8.5 38.5t-16.5 37.5q-26 39 -56 65t-60.5 43t-61 25.5t-56.5 11.5h-81zM610 573q37 0 72 -18q32 -18 48 -52.5t22 -68.5q3 -15 3 -33q0 -55 -23 -118t-70 -117.5t-120 -91.5t-172 -40q-14 0 -36 6.5 t-45 15.5q-51 13 -77 42t-28 65q-2 1 -2 4q1 32 14 71.5t36 80.5t55.5 81t72.5 73.5t87 58t100 34.5q13 3 28.5 5t34.5 2zM536 743v-1q0 -23 -31 -36.5t-82 -13.5q-45 1 -72 16.5t-34 38.5q0 23 29 37t77 14h3q50 0 78 -16t32 -39zM781 743v-1q0 -23 -32.5 -36.5 t-80.5 -13.5q-48 1 -75 17t-28 39q0 23 28 36.5t74 13.5h6q47 0 76 -16t32 -39z" />
<glyph unicode="&#xd7;" horiz-adv-x="612" d="M569 229q41 33 11 72l-41 42q-18 17 -32 29q-37 34 -37 40q-4 19 22 40q6 5 17 13l24 15l25 14q12 7 18 12q64 52 9 96q-35 29 -90 5l-32 -19q-20 -13 -47 -33l-38 -25q-15 -10 -27 -17q-29 -17 -91 34q-26 21 -45 34t-31 19q-50 24 -88 -6q-18 -16 -29 -39 q-11 -35 39 -75q6 -5 18.5 -13.5t20.5 -13.5q32 -27 7 -46l-19 -14l-24 -18q-17 -10 -28 -18t-17 -13q-80 -63 -25 -106q23 -17 42 -17q8 2 25.5 7.5t44.5 16.5l37 18l29 14q35 20 75 25q47 5 74 -17l80 -64q25 -20 64 -17q31 3 59 25z" />
<glyph unicode="&#xd8;" d="M946 665q-4 23 -26 33t-51 10q-19 0 -38.5 -4t-33.5 -12q-23 -12 -41 -24.5t-35 -26.5q-19 7 -35.5 10.5t-33.5 5.5h-81q-87 -8 -148 -19.5t-99 -28.5q-33 -15 -52.5 -25t-30.5 -15q-55 -32 -99 -74t-75.5 -88.5t-48.5 -95.5t-17 -94v-15q0 -10 1 -13q4 -23 13 -47.5 t35 -53.5v1q11 -16 24 -29t27 -24q-8 -9 -17.5 -18t-18.5 -19q-23 -26 -23 -47q0 -24 21.5 -37.5t53.5 -13.5q24 0 50.5 10t48.5 31q8 9 17 17l17 17q30 -7 70 -12q27 -5 52 -6.5t54 -1.5q83 0 150 13.5t118 44.5q57 39 98.5 85.5t68.5 95.5t40 99.5t13 97.5v22q0 5 -1 11 t-2 11q-3 19 -8.5 38.5t-16.5 37.5q-4 5 -7.5 11t-8.5 11q30 19 53.5 44.5t23.5 65.5v10q0 9 -1 11zM752 434q3 -15 3 -33q0 -55 -23 -118t-70 -117.5t-120 -91.5t-172 -40q-10 0 -23 2.5t-28 7.5l209 201l222 200q1 -3 1 -6t1 -5zM610 573q8 0 16.5 -1t17.5 -3 q-9 -9 -17 -18t-16 -17l-47 -49q-23 -25 -52 -48v1l-23 -20l-23 -20l-52 -44q-25 -22 -47 -45l2 1l-56 -53l-47 -46l-40 -41l-36 -38q-6 15 -6 31q-2 1 -2 4q1 32 14 71.5t36 80.5t55.5 81t72.5 73.5t87 58t100 34.5q13 3 28.5 5t34.5 2z" />
<glyph unicode="&#xd9;" horiz-adv-x="792" d="M602 518q-6 -32 -14 -68.5t-26 -93.5q-10 -33 -22 -68t-24.5 -67t-26 -58t-25.5 -40l-47 -49l-3 -4q-15 -9 -34 -14t-37 -7.5t-32.5 -3t-21.5 -0.5h-3h-4q-9 0 -26.5 4t-34 13t-29 22.5t-12.5 31.5q0 6 1 10q0 23 8 54t22 69l55 145l32 83q12 29 17.5 40t7 19t2.5 19.5 t5 41.5v2q0 11 -11 21.5t-27 19t-34 15t-33 9.5q-11 0 -21 -2.5t-20.5 -9t-22 -18t-26.5 -29.5l-1 -6v1q-3 -4 -9 -20.5t-14 -43.5l-30 -80l-21 -56l-14 -42q-6 -17 -10.5 -34t-9 -36t-9.5 -46q-8 -38 -8 -74q0 -38 14.5 -74t56.5 -64l9 -3q57 -37 101.5 -51.5t91.5 -14.5 q5 1 9 1h10q11 0 24.5 -0.5t26.5 -0.5h10q2 1 5 1h5q84 0 142 36.5t98 94t66.5 127.5t47.5 138q20 59 38.5 125t26.5 128q0 18 -1 31t-8 33q-5 7 -16 12.5t-24.5 9.5t-27 6t-23.5 2q-6 0 -13 -3t-14 -7t-12 -8t-7 -5zM523 689q23 7 34 13t11 20q0 10 -14 33q-10 16 -24.5 34 t-31.5 35.5t-35 32t-34 23.5q-19 10 -37 15.5t-32 5.5q-20 0 -31 -8.5t-11 -28.5q0 -9 0.5 -13t2.5 -9q7 -16 14.5 -27.5t18 -21t24 -18.5t33.5 -21l36 -21q15 -9 21 -16q19 -19 33 -23.5t19 -4.5h3z" />
<glyph unicode="&#xda;" horiz-adv-x="792" d="M602 518q-6 -32 -14 -68.5t-26 -93.5q-10 -33 -22 -68t-24.5 -67t-26 -58t-25.5 -40l-47 -49l-3 -4q-15 -9 -34 -14t-37 -7.5t-32.5 -3t-21.5 -0.5h-3h-4q-9 0 -26.5 4t-34 13t-29 22.5t-12.5 31.5q0 6 1 10q0 23 8 54t22 69l55 145l32 83q12 29 17.5 40t7 19t2.5 19.5 t5 41.5v2q0 11 -11 21.5t-27 19t-34 15t-33 9.5q-11 0 -21 -2.5t-20.5 -9t-22 -18t-26.5 -29.5l-1 -6v1q-3 -4 -9 -20.5t-14 -43.5l-30 -80l-21 -56l-14 -42q-6 -17 -10.5 -34t-9 -36t-9.5 -46q-8 -38 -8 -74q0 -38 14.5 -74t56.5 -64l9 -3q57 -37 101.5 -51.5t91.5 -14.5 q5 1 9 1h10q11 0 24.5 -0.5t26.5 -0.5h10q2 1 5 1h5q84 0 142 36.5t98 94t66.5 127.5t47.5 138q20 59 38.5 125t26.5 128q0 18 -1 31t-8 33q-5 7 -16 12.5t-24.5 9.5t-27 6t-23.5 2q-6 0 -13 -3t-14 -7t-12 -8t-7 -5zM425 691h3q9 0 19.5 4t30.5 24q6 7 21 16l36 21l33 21 q14 9 24.5 18.5t18 21t14.5 27.5q1 5 2 9t1 13q0 20 -11 28.5t-31 8.5q-14 0 -32 -5.5t-38 -15.5q-16 -9 -34 -23.5t-34.5 -32t-31 -35.5t-24.5 -34q-14 -23 -14 -33q0 -14 10 -19.5t32 -12.5z" />
<glyph unicode="&#xdb;" horiz-adv-x="792" d="M602 518q-6 -32 -14 -68.5t-26 -93.5q-10 -33 -22 -68t-24.5 -67t-26 -58t-25.5 -40l-47 -49l-3 -4q-15 -9 -34 -14t-37 -7.5t-32.5 -3t-21.5 -0.5h-3h-4q-9 0 -26.5 4t-34 13t-29 22.5t-12.5 31.5q0 6 1 10q0 23 8 54t22 69l55 145l32 83q12 29 17.5 40t7 19t2.5 19.5 t5 41.5v2q0 11 -11 21.5t-27 19t-34 15t-33 9.5q-11 0 -21 -2.5t-20.5 -9t-22 -18t-26.5 -29.5l-1 -6v1q-3 -4 -9 -20.5t-14 -43.5l-30 -80l-21 -56l-14 -42q-6 -17 -10.5 -34t-9 -36t-9.5 -46q-8 -38 -8 -74q0 -38 14.5 -74t56.5 -64l9 -3q57 -37 101.5 -51.5t91.5 -14.5 q5 1 9 1h10q11 0 24.5 -0.5t26.5 -0.5h10q2 1 5 1h5q84 0 142 36.5t98 94t66.5 127.5t47.5 138q20 59 38.5 125t26.5 128q0 18 -1 31t-8 33q-5 7 -16 12.5t-24.5 9.5t-27 6t-23.5 2q-6 0 -13 -3t-14 -7t-12 -8t-7 -5zM620 807v1q4 -9 7 -18t3 -20q0 -28 -23 -42 q-14 -9 -26 -9q-10 0 -17.5 3t-15.5 7q-32 19 -50.5 27t-44.5 10q-8 -5 -12.5 -9t-9.5 -8q-10 -8 -18.5 -15.5t-22.5 -18.5q-10 -6 -18 -9t-17 -3q-27 0 -43 26q-6 10 -6 26q0 18 9 32.5t20 22.5q4 5 15 10l23 11q11 5 20 10t9 10q6 21 16.5 30t28.5 9h4q33 0 61 -10.5 t48 -22.5t30 -21.5t7 -7.5q7 -3 12 -7t11 -14z" />
<glyph unicode="&#xdc;" horiz-adv-x="792" d="M602 518q-6 -32 -14 -68.5t-26 -93.5q-10 -33 -22 -68t-24.5 -67t-26 -58t-25.5 -40l-47 -49l-3 -4q-15 -9 -34 -14t-37 -7.5t-32.5 -3t-21.5 -0.5h-3h-4q-9 0 -26.5 4t-34 13t-29 22.5t-12.5 31.5q0 6 1 10q0 23 8 54t22 69l55 145l32 83q12 29 17.5 40t7 19t2.5 19.5 t5 41.5v2q0 11 -11 21.5t-27 19t-34 15t-33 9.5q-11 0 -21 -2.5t-20.5 -9t-22 -18t-26.5 -29.5l-1 -6v1q-3 -4 -9 -20.5t-14 -43.5l-30 -80l-21 -56l-14 -42q-6 -17 -10.5 -34t-9 -36t-9.5 -46q-8 -38 -8 -74q0 -38 14.5 -74t56.5 -64l9 -3q57 -37 101.5 -51.5t91.5 -14.5 q5 1 9 1h10q11 0 24.5 -0.5t26.5 -0.5h10q2 1 5 1h5q84 0 142 36.5t98 94t66.5 127.5t47.5 138q20 59 38.5 125t26.5 128q0 18 -1 31t-8 33q-5 7 -16 12.5t-24.5 9.5t-27 6t-23.5 2q-6 0 -13 -3t-14 -7t-12 -8t-7 -5zM445 780v-1q0 -23 -31 -36.5t-82 -13.5q-45 1 -72 16.5 t-34 38.5q0 23 29 37t77 14h3q50 0 78 -16t32 -39zM690 780v-1q0 -23 -32.5 -36.5t-80.5 -13.5q-48 1 -75 17t-28 39q0 23 28 36.5t74 13.5h6q47 0 76 -16t32 -39z" />
<glyph unicode="&#xdd;" horiz-adv-x="720" d="M731 667q-8 11 -28 17.5t-43 6.5q-36 0 -61 -22l-163 -143q-78 -71 -147 -143l1 1h-1q-11 14 -24 38l-28 56q-12 25 -25.5 50.5t-28 48t-30.5 40.5t-34 29q-9 2 -20.5 3t-22.5 1q-19 0 -37 -2t-29 -9q-11 -6 -15 -15.5t-4 -22.5v-5q0 -16 8.5 -33t19.5 -33 q18 -21 36.5 -56t35 -73t29.5 -74.5t19 -60.5v-4l-52 -238q3 -23 37 -39l11 -9q54 -16 84 -16q26 0 38.5 14.5t21.5 47.5t20.5 86t36.5 129l7 27q3 11 8.5 21t13.5 21t22 25q45 53 117.5 118.5t185.5 149.5l14 9l16 11q9 6 15 13t6 15v3v1q0 1 -0.5 1.5t-0.5 1.5zM314 661h3 q9 0 19.5 4t30.5 24q6 7 21 16l36 21l33 21q14 9 24.5 18.5t18 21t14.5 27.5q1 5 2 9t1 13q0 20 -11 28.5t-31 8.5q-14 0 -32 -5.5t-38 -15.5q-16 -9 -34 -23.5t-34.5 -32t-31 -35.5t-24.5 -34q-14 -23 -14 -33q0 -14 10 -19.5t32 -12.5z" />
<glyph unicode="&#xde;" horiz-adv-x="700" d="M476 128q60 21 108 43.5t81 48t51 54.5t18 63q-7 51 -39.5 86t-104.5 61q-22 8 -52.5 15.5t-66 13.5t-74 11t-75.5 8q7 18 13 40l12 43q0 13 -7.5 25.5t-20.5 21.5t-29.5 14.5t-35.5 5.5h-18q-8 7 -19 7q-23 0 -46 -44t-48.5 -128.5t-53.5 -207.5l-63 -279q5 -18 19 -29 l1 -1h-2q2 0 8 -4l92 -23h15l14 15q5 6 8 11t5 11t4 17q0 3 11 45h30q45 5 82 10.5t68.5 12t59.5 15t55 18.5zM237 167l-3 1l-14 11l-1 3q4 18 13 52l17 70l18 67q8 32 13 45q14 23 30 23q24 0 55 -2t63.5 -6.5t62.5 -12t53 -18.5q0 -3 3 -3q2 -1 5 -1q39 -29 39 -56 q0 -24 -25.5 -45.5t-69 -42t-100 -40t-119.5 -38.5z" />
<glyph unicode="&#xdf;" horiz-adv-x="734" d="M742 219q5 27 -2.5 49t-23.5 37.5t-39 23.5t-48 8q-66 0 -97 19t-26 48q3 17 19.5 35t49.5 37q23 13 36 21.5t21 15t13 13.5l10 15v-1l6 9v-1q8 13 13.5 24.5t7.5 22.5q6 30 -8 52.5t-40 37.5t-60.5 23t-71.5 8q-14 0 -28 -1t-25 -3q-59 -9 -99.5 -31.5t-67.5 -53.5 t-43.5 -69t-28.5 -79l-8 -25l-18 -6l2 1l-15 -3h1q-12 -2 -22.5 -4.5t-19.5 -8.5t-16.5 -16t-13.5 -28q0 -2 -1.5 -4.5t-1.5 -4.5q-5 -23 9.5 -32.5t35.5 -9.5q15 0 29 3l-87 -335v-1q-4 -5 -5.5 -9.5t-2.5 -9.5q-5 -25 13 -41t47 -16h8q32 3 58.5 22t31.5 42q1 11 0 16 l130 506q1 6 6 19t15 27.5t25 27t37 17.5q18 4 34.5 6.5t28.5 2.5q14 0 24 -5.5t10 -20.5l-19 -15q-9 -7 -20 -14l-36 -29q-19 -15 -35 -32t-28 -36.5t-16 -42.5l-4 -18q-3 -5 -4 -9.5t-2 -9.5q-4 -23 8.5 -51t38.5 -52.5t64 -41t85 -16.5h1q6 0 11 -4t3 -13l-23 -39 q-9 -15 -17 -24t-17.5 -13t-24.5 -7h-3q-15 0 -34.5 12t-47.5 32q-20 11 -45 11q-26 0 -50.5 -10t-34.5 -35l1 2q-3 -5 -3.5 -7.5t-1.5 -5.5q-4 -21 11.5 -40t41.5 -34t58.5 -23.5t64.5 -8.5h25q40 5 79 19.5t73 39t60 60.5t39 84v1z" />
<glyph unicode="&#xe0;" horiz-adv-x="751" d="M735 248q5 24 9 45.5t10.5 45.5t17 52.5t30.5 66.5q-4 18 -17.5 30.5t-33.5 20t-45 10.5t-52 3q-22 0 -40.5 -1t-32.5 -3l-113 -11l-100 -10q-49 -5 -95.5 -11.5t-93.5 -15.5q-18 -16 -22.5 -29t-4.5 -33v-25q0 -11 12.5 -14.5t31.5 -3.5q49 0 97.5 7t97.5 15l82 11 q41 5 83 5h26q7 0 13.5 -0.5t13.5 -1.5h2q15 -4 20.5 -8t5.5 -8q0 -2 -1 -5t-2 -5q-5 -17 -7.5 -35.5t-20.5 -31.5l-7 -2q-50 13 -92.5 21t-94.5 9h-6q-44 0 -85 -6t-82 -21t-83 -40.5t-87 -63.5q-26 -23 -36.5 -48.5t-10.5 -51.5q0 -27 10 -50.5t27 -39.5q25 -25 59.5 -35 t76.5 -10q39 0 82.5 8t87 21t85 29.5t75.5 32.5h9q5 -5 6 -10.5t1 -11.5q0 -11 -2.5 -21t-2.5 -18q0 -31 40 -31q5 0 11 2t13 2q5 0 7 -1q8 -3 15 -4t14 -1q17 0 29.5 8t20.5 20t11.5 27t3.5 30v9zM224 99h-22q-31 10 -31 26t25 33.5t59 32.5t69.5 25t56.5 10h4h1 q11 1 20 1.5t20 0.5q38 0 69.5 -8t35.5 -28l-2 -5q-62 -40 -139.5 -64t-165.5 -24zM546 571q23 7 34 13t11 20q0 10 -14 33q-10 16 -24.5 34t-31.5 35.5t-35 32t-34 23.5q-19 10 -37 15.5t-32 5.5q-20 0 -31 -8.5t-11 -28.5q0 -9 0.5 -13t2.5 -9q7 -16 14.5 -27.5t18 -21 t24 -18.5t33.5 -21l36 -21q15 -9 21 -16q19 -19 33 -23.5t19 -4.5h3z" />
<glyph unicode="&#xe1;" horiz-adv-x="751" d="M735 248q5 24 9 45.5t10.5 45.5t17 52.5t30.5 66.5q-4 18 -17.5 30.5t-33.5 20t-45 10.5t-52 3q-22 0 -40.5 -1t-32.5 -3l-113 -11l-100 -10q-49 -5 -95.5 -11.5t-93.5 -15.5q-18 -16 -22.5 -29t-4.5 -33v-25q0 -11 12.5 -14.5t31.5 -3.5q49 0 97.5 7t97.5 15l82 11 q41 5 83 5h26q7 0 13.5 -0.5t13.5 -1.5h2q15 -4 20.5 -8t5.5 -8q0 -2 -1 -5t-2 -5q-5 -17 -7.5 -35.5t-20.5 -31.5l-7 -2q-50 13 -92.5 21t-94.5 9h-6q-44 0 -85 -6t-82 -21t-83 -40.5t-87 -63.5q-26 -23 -36.5 -48.5t-10.5 -51.5q0 -27 10 -50.5t27 -39.5q25 -25 59.5 -35 t76.5 -10q39 0 82.5 8t87 21t85 29.5t75.5 32.5h9q5 -5 6 -10.5t1 -11.5q0 -11 -2.5 -21t-2.5 -18q0 -31 40 -31q5 0 11 2t13 2q5 0 7 -1q8 -3 15 -4t14 -1q17 0 29.5 8t20.5 20t11.5 27t3.5 30v9zM224 99h-22q-31 10 -31 26t25 33.5t59 32.5t69.5 25t56.5 10h4h1 q11 1 20 1.5t20 0.5q38 0 69.5 -8t35.5 -28l-2 -5q-62 -40 -139.5 -64t-165.5 -24zM455 565h3q9 0 19.5 4t30.5 24q6 7 21 16l36 21l33 21q14 9 24.5 18.5t18 21t14.5 27.5q1 5 2 9t1 13q0 20 -11 28.5t-31 8.5q-14 0 -32 -5.5t-38 -15.5q-16 -9 -34 -23.5t-34.5 -32 t-31 -35.5t-24.5 -34q-14 -23 -14 -33q0 -14 10 -19.5t32 -12.5z" />
<glyph unicode="&#xe2;" horiz-adv-x="751" d="M735 248q5 24 9 45.5t10.5 45.5t17 52.5t30.5 66.5q-4 18 -17.5 30.5t-33.5 20t-45 10.5t-52 3q-22 0 -40.5 -1t-32.5 -3l-113 -11l-100 -10q-49 -5 -95.5 -11.5t-93.5 -15.5q-18 -16 -22.5 -29t-4.5 -33v-25q0 -11 12.5 -14.5t31.5 -3.5q49 0 97.5 7t97.5 15l82 11 q41 5 83 5h26q7 0 13.5 -0.5t13.5 -1.5h2q15 -4 20.5 -8t5.5 -8q0 -2 -1 -5t-2 -5q-5 -17 -7.5 -35.5t-20.5 -31.5l-7 -2q-50 13 -92.5 21t-94.5 9h-6q-44 0 -85 -6t-82 -21t-83 -40.5t-87 -63.5q-26 -23 -36.5 -48.5t-10.5 -51.5q0 -27 10 -50.5t27 -39.5q25 -25 59.5 -35 t76.5 -10q39 0 82.5 8t87 21t85 29.5t75.5 32.5h9q5 -5 6 -10.5t1 -11.5q0 -11 -2.5 -21t-2.5 -18q0 -31 40 -31q5 0 11 2t13 2q5 0 7 -1q8 -3 15 -4t14 -1q17 0 29.5 8t20.5 20t11.5 27t3.5 30v9zM224 99h-22q-31 10 -31 26t25 33.5t59 32.5t69.5 25t56.5 10h4h1 q11 1 20 1.5t20 0.5q38 0 69.5 -8t35.5 -28l-2 -5q-62 -40 -139.5 -64t-165.5 -24zM658 672v1q4 -9 7 -18t3 -20q0 -28 -23 -42q-14 -9 -26 -9q-10 0 -17.5 3t-15.5 7q-32 19 -50.5 27t-44.5 10q-8 -5 -12.5 -9t-9.5 -8q-10 -8 -18.5 -15.5t-22.5 -18.5q-10 -6 -18 -9 t-17 -3q-27 0 -43 26q-6 10 -6 26q0 18 9 32.5t20 22.5q4 5 15 11l23 10q11 5 20 10t9 10q6 21 16.5 30t28.5 9h4q33 0 61 -10.5t48 -22.5t30 -21.5t7 -7.5q7 -3 12 -7t11 -14z" />
<glyph unicode="&#xe3;" horiz-adv-x="751" d="M735 248q5 24 9 45.5t10.5 45.5t17 52.5t30.5 66.5q-4 18 -17.5 30.5t-33.5 20t-45 10.5t-52 3q-22 0 -40.5 -1t-32.5 -3l-113 -11l-100 -10q-49 -5 -95.5 -11.5t-93.5 -15.5q-18 -16 -22.5 -29t-4.5 -33v-25q0 -11 12.5 -14.5t31.5 -3.5q49 0 97.5 7t97.5 15l82 11 q41 5 83 5h26q7 0 13.5 -0.5t13.5 -1.5h2q15 -4 20.5 -8t5.5 -8q0 -2 -1 -5t-2 -5q-5 -17 -7.5 -35.5t-20.5 -31.5l-7 -2q-50 13 -92.5 21t-94.5 9h-6q-44 0 -85 -6t-82 -21t-83 -40.5t-87 -63.5q-26 -23 -36.5 -48.5t-10.5 -51.5q0 -27 10 -50.5t27 -39.5q25 -25 59.5 -35 t76.5 -10q39 0 82.5 8t87 21t85 29.5t75.5 32.5h9q5 -5 6 -10.5t1 -11.5q0 -11 -2.5 -21t-2.5 -18q0 -31 40 -31q5 0 11 2t13 2q5 0 7 -1q8 -3 15 -4t14 -1q17 0 29.5 8t20.5 20t11.5 27t3.5 30v9zM224 99h-22q-31 10 -31 26t25 33.5t59 32.5t69.5 25t56.5 10h4h1 q11 1 20 1.5t20 0.5q38 0 69.5 -8t35.5 -28l-2 -5q-62 -40 -139.5 -64t-165.5 -24zM692 658v2q0 12 -16.5 21t-35.5 9q-15 0 -28.5 -5.5t-20.5 -17.5q-1 -2 -1.5 -5t-2.5 -5q-2 -6 -5 -12.5t-8 -6.5q-6 0 -12 5l-11 11v-1q-11 11 -26.5 22t-47.5 11q-20 0 -44 -6.5 t-45 -17.5t-36.5 -24.5t-16.5 -27.5v-2q0 -14 14.5 -24t39.5 -10q16 0 27.5 7t22.5 16q6 5 13.5 10t12.5 5l3 -3q3 -3 8 -6q12 -11 31.5 -22t54.5 -11q58 0 91.5 18t38.5 70z" />
<glyph unicode="&#xe4;" horiz-adv-x="751" d="M735 248q5 24 9 45.5t10.5 45.5t17 52.5t30.5 66.5q-4 18 -17.5 30.5t-33.5 20t-45 10.5t-52 3q-22 0 -40.5 -1t-32.5 -3l-113 -11l-100 -10q-49 -5 -95.5 -11.5t-93.5 -15.5q-18 -16 -22.5 -29t-4.5 -33v-25q0 -11 12.5 -14.5t31.5 -3.5q49 0 97.5 7t97.5 15l82 11 q41 5 83 5h26q7 0 13.5 -0.5t13.5 -1.5h2q15 -4 20.5 -8t5.5 -8q0 -2 -1 -5t-2 -5q-5 -17 -7.5 -35.5t-20.5 -31.5l-7 -2q-50 13 -92.5 21t-94.5 9h-6q-44 0 -85 -6t-82 -21t-83 -40.5t-87 -63.5q-26 -23 -36.5 -48.5t-10.5 -51.5q0 -27 10 -50.5t27 -39.5q25 -25 59.5 -35 t76.5 -10q39 0 82.5 8t87 21t85 29.5t75.5 32.5h9q5 -5 6 -10.5t1 -11.5q0 -11 -2.5 -21t-2.5 -18q0 -31 40 -31q5 0 11 2t13 2q5 0 7 -1q8 -3 15 -4t14 -1q17 0 29.5 8t20.5 20t11.5 27t3.5 30v9zM224 99h-22q-31 10 -31 26t25 33.5t59 32.5t69.5 25t56.5 10h4h1 q11 1 20 1.5t20 0.5q38 0 69.5 -8t35.5 -28l-2 -5q-62 -40 -139.5 -64t-165.5 -24zM507 631v-1q0 -23 -31 -36.5t-82 -13.5q-45 1 -72 16.5t-34 38.5q0 23 29 37t77 14h3q50 0 78 -16t32 -39zM752 631v-1q0 -23 -32.5 -36.5t-80.5 -13.5q-48 1 -75 17t-28 39q0 23 28 36.5 t74 13.5h6q47 0 76 -16t32 -39z" />
<glyph unicode="&#xe5;" horiz-adv-x="751" d="M735 248q5 24 9 45.5t10.5 45.5t17 52.5t30.5 66.5q-4 18 -17.5 30.5t-33.5 20t-45 10.5t-52 3q-22 0 -40.5 -1t-32.5 -3l-113 -11l-100 -10q-49 -5 -95.5 -11.5t-93.5 -15.5q-18 -16 -22.5 -29t-4.5 -33v-25q0 -11 12.5 -14.5t31.5 -3.5q49 0 97.5 7t97.5 15l82 11 q41 5 83 5h26q7 0 13.5 -0.5t13.5 -1.5h2q15 -4 20.5 -8t5.5 -8q0 -2 -1 -5t-2 -5q-5 -17 -7.5 -35.5t-20.5 -31.5l-7 -2q-50 13 -92.5 21t-94.5 9h-6q-44 0 -85 -6t-82 -21t-83 -40.5t-87 -63.5q-26 -23 -36.5 -48.5t-10.5 -51.5q0 -27 10 -50.5t27 -39.5q25 -25 59.5 -35 t76.5 -10q39 0 82.5 8t87 21t85 29.5t75.5 32.5h9q5 -5 6 -10.5t1 -11.5q0 -11 -2.5 -21t-2.5 -18q0 -31 40 -31q5 0 11 2t13 2q5 0 7 -1q8 -3 15 -4t14 -1q17 0 29.5 8t20.5 20t11.5 27t3.5 30v9zM224 99h-22q-31 10 -31 26t25 33.5t59 32.5t69.5 25t56.5 10h4h1 q11 1 20 1.5t20 0.5q38 0 69.5 -8t35.5 -28l-2 -5q-62 -40 -139.5 -64t-165.5 -24zM657 689q0 3 0.5 6t0.5 6q0 31 -22.5 54.5t-68.5 23.5q-39 0 -69.5 -13t-52 -32.5t-34 -43.5t-13.5 -45v-5q0 -15 5 -29t16 -24.5t29.5 -16.5t44.5 -6q30 0 59 10t51.5 27t37 39.5 t16.5 47.5v1zM516 644q-5 0 -5 10q1 14 13 27.5t35 13.5q5 0 5 -7v-4q-1 -16 -14.5 -28t-33.5 -12z" />
<glyph unicode="&#xe6;" horiz-adv-x="1317" d="M1240 49q20 8 29.5 29t9.5 41t-10 33.5t-32 13.5q-19 0 -43.5 -6.5t-49.5 -14.5l-35 -10q-17 -5 -43 -10q-52 -9 -98.5 -16t-88.5 -7q-45 0 -79.5 10.5t-55.5 46.5v1q9 7 22 11t28.5 5.5t31 2t29.5 0.5q60 1 119.5 4.5t115 15.5t104 36.5t85.5 68.5q19 19 26 43t7 52 q0 29 -13.5 56.5t-44.5 38.5q-35 13 -81 19.5t-98 6.5q-60 -4 -129.5 -11.5t-129.5 -27.5q-18 23 -55.5 32t-81.5 9q-22 0 -40.5 -1t-32.5 -3l-113 -11l-101 -10q-48 -5 -94.5 -11.5t-93.5 -15.5q-18 -16 -22.5 -29t-4.5 -33v-25q0 -11 12.5 -14.5t31.5 -3.5q49 0 97.5 7 t97.5 15l82 11q41 5 83 5h26q7 0 13.5 -0.5t13.5 -1.5h2q15 -4 20.5 -8t5.5 -8q0 -2 -1 -5t-2 -5q-4 -12 -5.5 -25t-7.5 -24q-1 -2 -1 -3t-1 -2q-6 -7 -13 -13l-7 -2q-50 13 -93 21t-100 9q-44 0 -85 -6t-82 -21t-83 -40.5t-87 -63.5q-26 -23 -36.5 -48.5t-10.5 -51.5 q0 -27 10 -50.5t27 -39.5q25 -25 59.5 -35t76.5 -10q39 0 82.5 8t87 21t85 29.5t75.5 32.5h9q5 -5 6 -10.5t1 -11.5q0 -11 -2.5 -21t-2.5 -18q0 -31 40 -31q5 0 11 2t13 2q5 0 7 -1q8 -3 15 -4t14 -1q29 0 44 19.5t19 43.5q42 -19 88 -25.5t98 -6.5q78 0 161 14.5t168 36.5 h1zM1136 320q-17 -12 -29 -18.5t-29 -10.5t-45 -6.5t-77 -6.5q-62 4 -97.5 7t-54 5.5t-23.5 4.5t-6 5v3q1 19 21 37.5t47 32.5t55.5 23t48.5 10q26 7 42.5 9.5t29.5 2.5q12 0 20 -2t16 -3h14q21 0 40.5 -2.5t35.5 -7.5t25.5 -12t9.5 -16v-4zM249 99h-22q-31 10 -31 26 t25 33.5t59.5 32.5t71 25t59.5 10q11 1 20 1.5t20 0.5q38 0 69.5 -8t35.5 -28l-2 -5q-62 -40 -139.5 -64t-165.5 -24z" />
<glyph unicode="&#xe7;" horiz-adv-x="767" d="M559 365h1q26 -7 47 -17l45 -25l2 -1q-2 0 -1 0t2 -1h2q14 -8 21.5 -13.5t25.5 -5.5q17 0 38.5 8t41 19t32.5 23.5t13 21.5v1q-5 2 -5 6v1q-47 54 -133.5 86.5t-195.5 32.5q-33 0 -68 -3.5t-72 -11.5q-121 -33 -194 -84t-102 -117q-4 -9 -8 -26t-7.5 -35t-6 -34.5 t-2.5 -24.5q7 -24 13.5 -43t17 -35.5t28 -31t46.5 -29.5q56 -30 115 -39l-93 -56q-14 -7 -18.5 -10t-4.5 -14q0 -1 31 -1h74h23q10 0 12 -1q-41 -9 -69.5 -21t-46 -24t-25.5 -23t-8 -17q0 -17 31 -25t78 -8q40 0 85 5.5t83.5 15.5t63.5 24t25 31v11q0 20 -16 35t-39 27 q-22 8 -41 14t-45 8l41 28q8 1 15.5 1.5t15.5 2.5q49 7 87 14.5t73 17.5t69.5 24.5t75.5 36.5q9 4 14 14t5 21q0 10 -3.5 20.5t-10 19.5t-16 14.5t-20.5 5.5h-6q-24 -3 -49 -11t-50 -17l-50 -18q-25 -9 -49 -14q-36 -7 -74.5 -11t-76.5 -4q-9 -2 -19 -2h-17q-30 0 -53.5 6.5 t-39.5 16t-25 20.5t-11 21q-15 19 -15 44q0 20 9.5 39.5t23.5 35t29.5 26t27.5 12.5q45 25 93.5 40.5t105.5 15.5q26 0 52 -4t52 -9z" />
<glyph unicode="&#xe8;" horiz-adv-x="704" d="M686 30h-1q-84 -22 -167.5 -36.5t-161.5 -14.5q-60 0 -112 9.5t-100 35.5q-37 20 -65 47.5t-28 67.5q-1 5 -1 10v11q0 54 21 102.5t51 87.5t63 66t57 38q31 13 66.5 21t72 13.5t72.5 8t68 4.5q52 0 98 -6.5t81 -19.5q31 -11 45 -38.5t14 -56.5q0 -28 -7.5 -52t-26.5 -43 q-37 -44 -85.5 -68.5t-104 -36.5t-115 -15.5t-119.5 -4.5q-14 0 -29.5 -0.5t-30.5 -2t-28.5 -5.5t-22.5 -11q22 -37 56 -47.5t79 -10.5q42 0 89 7t98 16q26 5 43 10l35 10q26 8 50.5 14.5t43.5 6.5q21 0 31 -13.5t10 -33.5t-9.5 -41t-29.5 -29zM582 301l44 51v4q0 9 -9.5 16 t-25.5 12t-35.5 7.5t-40.5 2.5h-14q-8 1 -16 3t-20 2t-29 -2.5t-42 -9.5q-20 -1 -49 -10t-56 -23t-47 -32.5t-21 -37.5v-3q1 -3 6.5 -5t24 -4.5t54 -5.5t96.5 -7q49 4 77 6.5t45 6.5t29 10.5t29 18.5zM491 542q23 7 34 13t11 20q0 10 -14 33q-10 16 -24.5 34t-31.5 35.5 t-35 32t-34 23.5q-19 10 -37 15.5t-32 5.5q-20 0 -31 -8.5t-11 -28.5q0 -9 0.5 -13t2.5 -9q7 -16 14.5 -27.5t18 -21t24 -18.5t33.5 -21l36 -21q15 -9 21 -16q19 -19 33 -23.5t19 -4.5h3z" />
<glyph unicode="&#xe9;" horiz-adv-x="704" d="M686 30h-1q-84 -22 -167.5 -36.5t-161.5 -14.5q-60 0 -112 9.5t-100 35.5q-37 20 -65 47.5t-28 67.5q-1 5 -1 10v11q0 54 21 102.5t51 87.5t63 66t57 38q31 13 66.5 21t72 13.5t72.5 8t68 4.5q52 0 98 -6.5t81 -19.5q31 -11 45 -38.5t14 -56.5q0 -28 -7.5 -52t-26.5 -43 q-37 -44 -85.5 -68.5t-104 -36.5t-115 -15.5t-119.5 -4.5q-14 0 -29.5 -0.5t-30.5 -2t-28.5 -5.5t-22.5 -11q22 -37 56 -47.5t79 -10.5q42 0 89 7t98 16q26 5 43 10l35 10q26 8 50.5 14.5t43.5 6.5q21 0 31 -13.5t10 -33.5t-9.5 -41t-29.5 -29zM582 301l44 51v4q0 9 -9.5 16 t-25.5 12t-35.5 7.5t-40.5 2.5h-14q-8 1 -16 3t-20 2t-29 -2.5t-42 -9.5q-20 -1 -49 -10t-56 -23t-47 -32.5t-21 -37.5v-3q1 -3 6.5 -5t24 -4.5t54 -5.5t96.5 -7q49 4 77 6.5t45 6.5t29 10.5t29 18.5zM418 556h3q9 0 19.5 4t30.5 24q6 7 21 16l36 21l33 21q14 9 24.5 18.5 t18 21t14.5 27.5q1 5 2 9t1 13q0 20 -11 28.5t-31 8.5q-14 0 -32 -5.5t-38 -15.5q-16 -9 -34 -23.5t-34.5 -32t-31 -35.5t-24.5 -34q-14 -23 -14 -33q0 -14 10 -19.5t32 -12.5z" />
<glyph unicode="&#xea;" horiz-adv-x="704" d="M686 30h-1q-84 -22 -167.5 -36.5t-161.5 -14.5q-60 0 -112 9.5t-100 35.5q-37 20 -65 47.5t-28 67.5q-1 5 -1 10v11q0 54 21 102.5t51 87.5t63 66t57 38q31 13 66.5 21t72 13.5t72.5 8t68 4.5q52 0 98 -6.5t81 -19.5q31 -11 45 -38.5t14 -56.5q0 -28 -7.5 -52t-26.5 -43 q-37 -44 -85.5 -68.5t-104 -36.5t-115 -15.5t-119.5 -4.5q-14 0 -29.5 -0.5t-30.5 -2t-28.5 -5.5t-22.5 -11q22 -37 56 -47.5t79 -10.5q42 0 89 7t98 16q26 5 43 10l35 10q26 8 50.5 14.5t43.5 6.5q21 0 31 -13.5t10 -33.5t-9.5 -41t-29.5 -29zM582 301l44 51v4q0 9 -9.5 16 t-25.5 12t-35.5 7.5t-40.5 2.5h-14q-8 1 -16 3t-20 2t-29 -2.5t-42 -9.5q-20 -1 -49 -10t-56 -23t-47 -32.5t-21 -37.5v-3q1 -3 6.5 -5t24 -4.5t54 -5.5t96.5 -7q49 4 77 6.5t45 6.5t29 10.5t29 18.5zM645 663v1q4 -9 7 -18t3 -20q0 -28 -23 -42q-14 -9 -26 -9 q-10 0 -17.5 3t-15.5 7q-32 19 -50.5 27t-44.5 10q-8 -5 -12.5 -9t-9.5 -8q-10 -8 -18.5 -15.5t-22.5 -18.5q-10 -6 -18 -9t-17 -3q-27 0 -43 26q-6 10 -6 26q0 18 9 32.5t20 22.5q4 5 16 10l22 11q11 5 20 10t9 10q6 21 16.5 30t28.5 9h4q33 0 61 -10.5t48 -22.5t30 -21.5 t7 -7.5q7 -3 12 -7t11 -14z" />
<glyph unicode="&#xeb;" horiz-adv-x="704" d="M686 30h-1q-84 -22 -167.5 -36.5t-161.5 -14.5q-60 0 -112 9.5t-100 35.5q-37 20 -65 47.5t-28 67.5q-1 5 -1 10v11q0 54 21 102.5t51 87.5t63 66t57 38q31 13 66.5 21t72 13.5t72.5 8t68 4.5q52 0 98 -6.5t81 -19.5q31 -11 45 -38.5t14 -56.5q0 -28 -7.5 -52t-26.5 -43 q-37 -44 -85.5 -68.5t-104 -36.5t-115 -15.5t-119.5 -4.5q-14 0 -29.5 -0.5t-30.5 -2t-28.5 -5.5t-22.5 -11q22 -37 56 -47.5t79 -10.5q42 0 89 7t98 16q26 5 43 10l35 10q26 8 50.5 14.5t43.5 6.5q21 0 31 -13.5t10 -33.5t-9.5 -41t-29.5 -29zM582 301l44 51v4q0 9 -9.5 16 t-25.5 12t-35.5 7.5t-40.5 2.5h-14q-8 1 -16 3t-20 2t-29 -2.5t-42 -9.5q-20 -1 -49 -10t-56 -23t-47 -32.5t-21 -37.5v-3q1 -3 6.5 -5t24 -4.5t54 -5.5t96.5 -7q49 4 77 6.5t45 6.5t29 10.5t29 18.5zM472 626v-1q0 -23 -31 -36.5t-82 -13.5q-45 1 -72 16.5t-34 38.5 q0 23 29 37t77 14h3q50 0 78 -16t32 -39zM717 626v-1q0 -23 -32.5 -36.5t-80.5 -13.5q-48 1 -75 17t-28 39q0 23 28 36.5t74 13.5h6q47 0 76 -16t32 -39z" />
<glyph unicode="&#xec;" horiz-adv-x="290" d="M210 233l14 40l16 45q8 24 18 57l23 80q0 2 1 3q0 2 1 2.5t1 2.5q0 19 -18 27.5t-41 8.5q-15 0 -30.5 -3t-28 -8.5t-21.5 -13.5t-11 -18l-36 -108l-34 -109q-10 -29 -17.5 -53.5t-14 -48t-12 -48t-11.5 -54.5q0 -2 -1 -2.5t-1 -2.5v-5q0 -21 17 -28t38 -7q37 0 54 7.5 t26 25t15.5 47t23.5 73.5zM275 548q23 7 34 13t11 20q0 10 -14 33q-10 16 -24.5 34t-31.5 35.5t-35 32t-34 23.5q-19 10 -37 15.5t-32 5.5q-20 0 -31 -8.5t-11 -28.5q0 -9 0.5 -13t2.5 -9q7 -16 14.5 -27.5t18 -21t24 -18.5t33.5 -21l36 -21q15 -9 21 -16q19 -19 33 -23.5 t19 -4.5h3z" />
<glyph unicode="&#xed;" horiz-adv-x="290" d="M210 233l14 40l16 45q8 24 18 57l23 80q0 2 1 3q0 2 1 2.5t1 2.5q0 19 -18 27.5t-41 8.5q-15 0 -30.5 -3t-28 -8.5t-21.5 -13.5t-11 -18l-36 -108l-34 -109q-10 -29 -17.5 -53.5t-14 -48t-12 -48t-11.5 -54.5q0 -2 -1 -2.5t-1 -2.5v-5q0 -21 17 -28t38 -7q37 0 54 7.5 t26 25t15.5 47t23.5 73.5zM163 550h3q9 0 19.5 4t30.5 24q6 7 21 16l36 21l33 21q14 9 24.5 18.5t18 21t14.5 27.5q1 5 2 9t1 13q0 20 -11 28.5t-31 8.5q-14 0 -32 -5.5t-38 -15.5q-16 -9 -34 -23.5t-34.5 -32t-31 -35.5t-24.5 -34q-14 -23 -14 -33q0 -14 10 -19.5t32 -12.5 z" />
<glyph unicode="&#xee;" horiz-adv-x="290" d="M210 233l14 40l16 45q8 24 18 57l23 80q0 2 1 3q0 2 1 2.5t1 2.5q0 19 -18 27.5t-41 8.5q-15 0 -30.5 -3t-28 -8.5t-21.5 -13.5t-11 -18l-36 -108l-34 -109q-10 -29 -17.5 -53.5t-14 -48t-12 -48t-11.5 -54.5q0 -2 -1 -2.5t-1 -2.5v-5q0 -21 17 -28t38 -7q37 0 54 7.5 t26 25t15.5 47t23.5 73.5zM372 667v1q4 -9 7 -18t3 -20q0 -28 -23 -42q-14 -9 -26 -9q-10 0 -17.5 3t-15.5 7q-32 19 -50.5 27t-44.5 10q-8 -5 -12.5 -9t-9.5 -8q-10 -8 -18.5 -15.5t-22.5 -18.5q-10 -6 -18 -9t-17 -3q-27 0 -43 26q-6 10 -6 26q0 18 9 32.5t20 22.5 q4 5 15 10l23 11q11 5 20 10t9 10q6 21 16.5 30t28.5 9h4q33 0 61 -10.5t48 -22.5t30 -21.5t7 -7.5q7 -3 12 -7t11 -14z" />
<glyph unicode="&#xef;" horiz-adv-x="290" d="M210 233l14 40l16 45q8 24 18 57l23 80q0 2 1 3q0 2 1 2.5t1 2.5q0 19 -18 27.5t-41 8.5q-15 0 -30.5 -3t-28 -8.5t-21.5 -13.5t-11 -18l-36 -108l-34 -109q-10 -29 -17.5 -53.5t-14 -48t-12 -48t-11.5 -54.5q0 -2 -1 -2.5t-1 -2.5v-5q0 -21 17 -28t38 -7q37 0 54 7.5 t26 25t15.5 47t23.5 73.5zM245 631v-1q0 -23 -31 -36.5t-82 -13.5q-45 1 -72 16.5t-34 38.5q0 23 29 37t77 14h3q50 0 78 -16t32 -39zM490 631v-1q0 -23 -32.5 -36.5t-80.5 -13.5q-48 1 -75 17t-28 39q0 23 28 36.5t74 13.5h6q47 0 76 -16t32 -39z" />
<glyph unicode="&#xf0;" horiz-adv-x="786" d="M480 487h4q8 0 18.5 4t31.5 24q13 -17 24.5 -36t21.5 -43q1 -5 3 -8.5t4 -8.5q14 -33 22.5 -60.5t0.5 -50.5q-28 35 -59.5 69.5t-68 66t-77.5 58.5t-88 46l-16 6q-48 17 -86 16t-83 -26q-19 -11 -32 -24.5t-24 -30.5q-30 -46 -26 -107q2 -60 15.5 -106.5t38.5 -84.5 t61.5 -71t85.5 -67q26 -17 51.5 -30t48.5 -23q86 -35 153.5 -22.5t121.5 61.5q18 16 32.5 31.5t25.5 33.5q16 24 25.5 49.5t17.5 57.5q15 51 17.5 97t-6 90t-28 87.5t-50.5 89.5l-7 9q-3 3 -6 7q11 10 18.5 21t14.5 28q1 5 2.5 9t1.5 13q0 20 -11.5 28.5t-31.5 8.5 q-14 0 -32 -5.5t-38 -15.5q-5 -3 -6 -4l-20 15l-21 16v-1q-18 14 -35 21q-23 9 -44 7t-38 -19h2q-2 -2 -4.5 -3.5t-4.5 -5.5q-9 -13 -7.5 -29t10 -32.5t21.5 -31.5t28 -24q3 -2 6 -4.5t7 -4.5q-6 -7 -10 -13l-8 -12q-13 -24 -13 -33q0 -14 9.5 -19.5t31.5 -12.5zM171 397 l6 8q10 17 30.5 15.5t43.5 -11.5q26 -11 54 -25t51 -31q5 -2 8 -4t7 -4q57 -35 89.5 -82t53.5 -92q2 -16 -0.5 -24.5t-4.5 -14.5q-8 -12 -24.5 -15t-36 0t-38.5 9t-33 11q-27 12 -67 40t-73 68q-15 19 -28.5 41t-23.5 43t-14 39t0 29z" />
<glyph unicode="&#xf1;" horiz-adv-x="746" d="M630 -9v2q8 1 15.5 1.5t14.5 0.5q19 0 29.5 3t14.5 21l15 93q7 45 13 72q4 14 5 18.5t4 14.5t9 33l20 77q2 4 9 27t14 50l13 48q5 23 5 26q0 18 -14.5 31t-40.5 13h-10q-59 0 -114 -11.5t-110 -28.5l-111 -36q-56 -18 -115 -33l6 34q3 17 3 34q0 11 -18 17.5t-42 6.5 q-15 0 -31 -3.5t-29 -12t-21.5 -22t-8.5 -33.5v-6q-4 -11 -11 -34l-14 -49q-8 -26 -14 -50.5t-9 -39.5q-4 -9 -10 -32t-13.5 -55t-14.5 -71t-12 -80v-4q0 -14 16 -19t31 -5q20 0 39.5 7.5t38.5 17.5q18 13 21.5 29t3.5 33l20 70l13 48q6 19 10 33l10 29q6 7 31 17.5t57 21.5 l62 21l51 16q12 5 30 10t39 9.5t41.5 7.5t37.5 3q5 0 9 -0.5t9 -1.5q7 -8 7 -20q0 -9 -4 -22.5t-12 -34.5l-18 -51l-23 -72q-14 -32 -24 -61.5t-14 -69.5v-1q0 -40 47 -40q16 0 43 6zM708 650v2q0 12 -16.5 21t-35.5 9q-15 0 -28.5 -5.5t-20.5 -17.5q-1 -2 -1.5 -5t-2.5 -5 q-2 -6 -5 -12.5t-8 -6.5q-6 0 -12 5l-11 11v-1q-11 11 -26.5 22t-47.5 11q-20 0 -44 -6.5t-45 -17.5t-36.5 -24.5t-16.5 -27.5v-2q0 -14 14.5 -24t39.5 -10q16 0 27.5 7t22.5 16q6 5 13.5 10t12.5 5l3 -3q3 -3 8 -6q12 -11 31.5 -22t54.5 -11q58 0 91.5 18t38.5 70z" />
<glyph unicode="&#xf2;" horiz-adv-x="760" d="M741 435l53 -52q9 -13 13.5 -28.5t6.5 -31t2.5 -29.5t0.5 -24q0 -60 -44 -113.5t-148 -103.5q-26 -12 -61 -22.5t-72 -18t-73.5 -11.5t-66.5 -4q-76 0 -145 25q-19 3 -43 16t-45 28t-35.5 28t-14.5 17q0 -3 -6 5t-13.5 22.5t-13.5 31t-6 30.5q0 6 1 9q8 78 73.5 145 t172.5 112q96 34 185 34q28 0 55.5 -3t57.5 -8q42 -7 67.5 -13t43 -12t29.5 -13t26 -16zM676 266q11 45 -17.5 67.5t-86.5 38.5q-17 8 -45.5 11t-56.5 3q-23 0 -42.5 -2t-28.5 -5q-27 0 -47.5 -4.5t-38.5 -12.5t-37 -20l-41 -28q-29 -14 -43.5 -38.5t-14.5 -50.5 q0 -32 21.5 -61.5t66.5 -46.5q46 -11 96 -11q63 0 122.5 17t110.5 51l2 2l6 6q30 23 52 42.5t22 41.5zM519 538q23 7 34 13t11 20q0 10 -14 33q-10 16 -24.5 34t-31.5 35.5t-35 32t-34 23.5q-19 10 -37 15.5t-32 5.5q-20 0 -31 -8.5t-11 -28.5q0 -9 0.5 -13t2.5 -9 q7 -16 14.5 -27.5t18 -21t24 -18.5t33.5 -21l36 -21q15 -9 21 -16q19 -19 33 -23.5t19 -4.5h3z" />
<glyph unicode="&#xf3;" horiz-adv-x="760" d="M741 435l53 -52q9 -13 13.5 -28.5t6.5 -31t2.5 -29.5t0.5 -24q0 -60 -44 -113.5t-148 -103.5q-26 -12 -61 -22.5t-72 -18t-73.5 -11.5t-66.5 -4q-76 0 -145 25q-19 3 -43 16t-45 28t-35.5 28t-14.5 17q0 -3 -6 5t-13.5 22.5t-13.5 31t-6 30.5q0 6 1 9q8 78 73.5 145 t172.5 112q96 34 185 34q28 0 55.5 -3t57.5 -8q42 -7 67.5 -13t43 -12t29.5 -13t26 -16zM676 266q11 45 -17.5 67.5t-86.5 38.5q-17 8 -45.5 11t-56.5 3q-23 0 -42.5 -2t-28.5 -5q-27 0 -47.5 -4.5t-38.5 -12.5t-37 -20l-41 -28q-29 -14 -43.5 -38.5t-14.5 -50.5 q0 -32 21.5 -61.5t66.5 -46.5q46 -11 96 -11q63 0 122.5 17t110.5 51l2 2l6 6q30 23 52 42.5t22 41.5zM364 544h3q9 0 19.5 4t30.5 24q6 7 21 16l36 21l33 21q14 9 24.5 18.5t18 21t14.5 27.5q1 5 2 9t1 13q0 20 -11 28.5t-31 8.5q-14 0 -32 -5.5t-38 -15.5 q-16 -9 -34 -23.5t-34.5 -32t-31 -35.5t-24.5 -34q-14 -23 -14 -33q0 -14 10 -19.5t32 -12.5z" />
<glyph unicode="&#xf4;" horiz-adv-x="760" d="M741 435l53 -52q9 -13 13.5 -28.5t6.5 -31t2.5 -29.5t0.5 -24q0 -60 -44 -113.5t-148 -103.5q-26 -12 -61 -22.5t-72 -18t-73.5 -11.5t-66.5 -4q-76 0 -145 25q-19 3 -43 16t-45 28t-35.5 28t-14.5 17q0 -3 -6 5t-13.5 22.5t-13.5 31t-6 30.5q0 6 1 9q8 78 73.5 145 t172.5 112q96 34 185 34q28 0 55.5 -3t57.5 -8q42 -7 67.5 -13t43 -12t29.5 -13t26 -16zM676 266q11 45 -17.5 67.5t-86.5 38.5q-17 8 -45.5 11t-56.5 3q-23 0 -42.5 -2t-28.5 -5q-27 0 -47.5 -4.5t-38.5 -12.5t-37 -20l-41 -28q-29 -14 -43.5 -38.5t-14.5 -50.5 q0 -32 21.5 -61.5t66.5 -46.5q46 -11 96 -11q63 0 122.5 17t110.5 51l2 2l6 6q30 23 52 42.5t22 41.5zM590 637v1q4 -9 7 -18t3 -20q0 -28 -23 -42q-14 -9 -26 -9q-10 0 -17.5 3t-15.5 7q-32 19 -50.5 27t-44.5 10q-8 -5 -12.5 -9t-9.5 -8q-10 -8 -18.5 -15.5t-22.5 -18.5 q-10 -6 -18 -9t-17 -3q-27 0 -43 26q-6 10 -6 26q0 18 9 32.5t20 22.5q4 5 15 10l23 11q11 5 20 10t9 10q6 21 16.5 30t28.5 9h4q33 0 61 -10.5t48 -22.5t30 -21.5t7 -7.5q7 -3 12 -7t11 -14z" />
<glyph unicode="&#xf5;" horiz-adv-x="760" d="M741 435l53 -52q9 -13 13.5 -28.5t6.5 -31t2.5 -29.5t0.5 -24q0 -60 -44 -113.5t-148 -103.5q-26 -12 -61 -22.5t-72 -18t-73.5 -11.5t-66.5 -4q-76 0 -145 25q-19 3 -43 16t-45 28t-35.5 28t-14.5 17q0 -3 -6 5t-13.5 22.5t-13.5 31t-6 30.5q0 6 1 9q8 78 73.5 145 t172.5 112q96 34 185 34q28 0 55.5 -3t57.5 -8q42 -7 67.5 -13t43 -12t29.5 -13t26 -16zM676 266q11 45 -17.5 67.5t-86.5 38.5q-17 8 -45.5 11t-56.5 3q-23 0 -42.5 -2t-28.5 -5q-27 0 -47.5 -4.5t-38.5 -12.5t-37 -20l-41 -28q-29 -14 -43.5 -38.5t-14.5 -50.5 q0 -32 21.5 -61.5t66.5 -46.5q46 -11 96 -11q63 0 122.5 17t110.5 51l2 2l6 6q30 23 52 42.5t22 41.5zM618 629v2q0 12 -16.5 21t-35.5 9q-15 0 -28.5 -5.5t-20.5 -17.5q-1 -2 -1.5 -5t-2.5 -5q-2 -6 -5 -12.5t-8 -6.5q-6 0 -12 5l-11 11v-1q-11 11 -26.5 22t-47.5 11 q-20 0 -44 -6.5t-45 -17.5t-36.5 -24.5t-16.5 -27.5v-2q0 -14 14.5 -24t39.5 -10q16 0 27.5 7t22.5 16q6 5 13.5 10t12.5 5l3 -3q3 -3 8 -6q12 -11 31.5 -22t54.5 -11q58 0 91.5 18t38.5 70z" />
<glyph unicode="&#xf6;" horiz-adv-x="760" d="M741 435l53 -52q9 -13 13.5 -28.5t6.5 -31t2.5 -29.5t0.5 -24q0 -60 -44 -113.5t-148 -103.5q-26 -12 -61 -22.5t-72 -18t-73.5 -11.5t-66.5 -4q-76 0 -145 25q-19 3 -43 16t-45 28t-35.5 28t-14.5 17q0 -3 -6 5t-13.5 22.5t-13.5 31t-6 30.5q0 6 1 9q8 78 73.5 145 t172.5 112q96 34 185 34q28 0 55.5 -3t57.5 -8q42 -7 67.5 -13t43 -12t29.5 -13t26 -16zM676 266q11 45 -17.5 67.5t-86.5 38.5q-17 8 -45.5 11t-56.5 3q-23 0 -42.5 -2t-28.5 -5q-27 0 -47.5 -4.5t-38.5 -12.5t-37 -20l-41 -28q-29 -14 -43.5 -38.5t-14.5 -50.5 q0 -32 21.5 -61.5t66.5 -46.5q46 -11 96 -11q63 0 122.5 17t110.5 51l2 2l6 6q30 23 52 42.5t22 41.5zM437 602v-1q0 -23 -31 -36.5t-82 -13.5q-45 1 -72 16.5t-34 38.5q0 23 29 37t77 14h3q50 0 78 -16t32 -39zM682 602v-1q0 -23 -32.5 -36.5t-80.5 -13.5q-48 1 -75 17 t-28 39q0 23 28 36.5t74 13.5h6q47 0 76 -16t32 -39z" />
<glyph unicode="&#xf7;" horiz-adv-x="671" d="M56 272q11 -12 35.5 -16t60.5 -4q15 0 31.5 0.5t35.5 0.5l32 2q16 1 34 1h2h21q17 0 40 0.5t49 1.5t49 2t41 2t25 2h25q32 0 47.5 1.5t27.5 8.5q11 4 14.5 8.5t3.5 12.5q-7 11 -12.5 21t-12.5 14q-33 24 -83 30.5t-107 6.5h-54q-12 0 -25.5 -1t-25.5 -1q-31 0 -67.5 -0.5 t-69 -1.5t-56.5 -2t-31 -2h1q-25 -4 -38.5 -8.5t-13.5 -19.5v-4q0 -4 1 -6v-7l8 -21q4 -13 12 -21zM190 152v-8q0 -11 4 -19t11 -15q26 -15 47.5 -20.5t32.5 -5.5q18 0 34 3.5t28 8.5q24 10 39.5 26t17.5 35q0 34 -47 49q-12 5 -25.5 8.5t-27.5 3.5q-9 0 -14 -0.5t-13 -1.5 q-34 -5 -58.5 -23t-28.5 -41zM252 477v-8q0 -11 4.5 -19t10.5 -15q26 -15 47.5 -20.5t32.5 -5.5q18 0 34.5 3.5t28.5 8.5q23 10 39 26t17 35q0 34 -46 49q-12 5 -26 8.5t-28 3.5q-8 0 -13 -0.5t-13 -1.5q-34 -5 -59 -23t-29 -41z" />
<glyph unicode="&#xf8;" horiz-adv-x="760" d="M889 610q-4 23 -26.5 33t-51.5 10q-19 0 -38 -4t-33 -12q-59 -32 -98.5 -69.5t-76.5 -77.5q-27 5 -52.5 7.5t-50.5 2.5q-89 0 -185 -34q-107 -45 -172.5 -112t-73.5 -145q-1 -3 -1 -9q0 -13 5.5 -29t12.5 -29.5t13 -23t8 -8.5q1 -5 16.5 -18t35.5 -27q-18 -18 -35 -37 l-36 -40l-22 -22l-21 -22q-22 -25 -22 -47q0 -24 21 -37.5t54 -13.5q23 0 50 10t49 31l58 58l59 58q37 -6 76 -6q30 0 66.5 4t73.5 11.5t72 18t61 22.5q104 50 148 103.5t44 113.5q0 10 -0.5 24t-2.5 29.5t-6.5 31t-13.5 28.5l-50 49q1 1 1.5 2t1.5 2q13 11 23 17l21 13 q17 10 34.5 22t32 26.5t23.5 33t9 41.5v10q0 9 -1 11zM676 266q0 -22 -22 -41.5t-52 -42.5l-6 -6l-2 -2q-47 -32 -101.5 -48.5t-111.5 -19.5l127 120l133 119q23 -14 32.5 -32t2.5 -47zM460 386l-5 -4v1l-23 -19l-23 -21l-51 -44q-26 -22 -48 -45l1 1l-57 -55l-47 -47 q-15 16 -22.5 34.5t-7.5 37.5q0 26 14.5 50.5t43.5 38.5l41 28q19 12 37 20t38.5 12.5t47.5 4.5q8 2 24.5 4t36.5 3z" />
<glyph unicode="&#xf9;" horiz-adv-x="661" d="M750 443q9 12 9 28t-10 29t-33 13q-5 0 -15 -2q-4 0 -7 0.5t-7 0.5q-25 0 -49 -10.5t-33 -39.5q-12 -38 -20 -60.5l-13 -37.5l-9 -28q-4 -11 -8.5 -25.5t-10.5 -36.5l-14 -58q-11 -26 -21 -39t-24 -19.5t-34 -10.5t-52 -12q-9 -2 -33 -6l-54 -9l-57 -7.5t-44 -3.5 q-1 -1 -4 -1q-7 0 -7 11t4.5 25t6.5 21l19 62l11 37l13 40l22 71q3 3 8 16.5t10 28.5l8 29q3 13 3 16q0 14 -16 22t-42 8q-56 0 -83 -21.5t-38 -56.5q-3 -6 -8 -29l-12 -58q-8 -34 -16 -75l-16 -83l-13 -79t-10 -66q0 -3 -0.5 -5.5t-0.5 -4.5q0 -18 7 -29.5t18 -13.5 q12 0 15.5 -1t6 -1.5t8.5 0.5t23 3.5t50 8.5l89 16l77 14q33 5 56 8t38 4t26 1t18 -0.5t15 -0.5l1 -10q1 -9 7 -20.5t17.5 -21t32.5 -9.5h4q35 2 53.5 9.5t18.5 25.5q0 12 -7 27l11 49q5 22 11 42l11 40l14 52l11 40l14 46q6 23 13 42.5t13 30.5zM486 530q23 7 34 13t11 20 q0 10 -14 33q-10 16 -24.5 34t-31.5 35.5t-35 32t-34 23.5q-19 10 -37 15.5t-32 5.5q-20 0 -31 -8.5t-11 -28.5q0 -9 0.5 -13t2.5 -9q7 -16 14.5 -27.5t18 -21t24 -18.5t33.5 -21l36 -21q15 -9 21 -16q19 -19 33 -23.5t19 -4.5h3z" />
<glyph unicode="&#xfa;" horiz-adv-x="661" d="M750 443q9 12 9 28t-10 29t-33 13q-5 0 -15 -2q-4 0 -7 0.5t-7 0.5q-25 0 -49 -10.5t-33 -39.5q-12 -38 -20 -60.5l-13 -37.5l-9 -28q-4 -11 -8.5 -25.5t-10.5 -36.5l-14 -58q-11 -26 -21 -39t-24 -19.5t-34 -10.5t-52 -12q-9 -2 -33 -6l-54 -9l-57 -7.5t-44 -3.5 q-1 -1 -4 -1q-7 0 -7 11t4.5 25t6.5 21l19 62l11 37l13 40l22 71q3 3 8 16.5t10 28.5l8 29q3 13 3 16q0 14 -16 22t-42 8q-56 0 -83 -21.5t-38 -56.5q-3 -6 -8 -29l-12 -58q-8 -34 -16 -75l-16 -83l-13 -79t-10 -66q0 -3 -0.5 -5.5t-0.5 -4.5q0 -18 7 -29.5t18 -13.5 q12 0 15.5 -1t6 -1.5t8.5 0.5t23 3.5t50 8.5l89 16l77 14q33 5 56 8t38 4t26 1t18 -0.5t15 -0.5l1 -10q1 -9 7 -20.5t17.5 -21t32.5 -9.5h4q35 2 53.5 9.5t18.5 25.5q0 12 -7 27l11 49q5 22 11 42l11 40l14 52l11 40l14 46q6 23 13 42.5t13 30.5zM424 532h3q9 0 19.5 4 t30.5 24q6 7 21 16l36 21l33 21q14 9 24.5 18.5t18 21t14.5 27.5q1 5 2 9t1 13q0 20 -11 28.5t-31 8.5q-14 0 -32 -5.5t-38 -15.5q-16 -9 -34 -23.5t-34.5 -32t-31 -35.5t-24.5 -34q-14 -23 -14 -33q0 -14 10 -19.5t32 -12.5z" />
<glyph unicode="&#xfb;" horiz-adv-x="661" d="M750 443q9 12 9 28t-10 29t-33 13q-5 0 -15 -2q-4 0 -7 0.5t-7 0.5q-25 0 -49 -10.5t-33 -39.5q-12 -38 -20 -60.5l-13 -37.5l-9 -28q-4 -11 -8.5 -25.5t-10.5 -36.5l-14 -58q-11 -26 -21 -39t-24 -19.5t-34 -10.5t-52 -12q-9 -2 -33 -6l-54 -9l-57 -7.5t-44 -3.5 q-1 -1 -4 -1q-7 0 -7 11t4.5 25t6.5 21l19 62l11 37l13 40l22 71q3 3 8 16.5t10 28.5l8 29q3 13 3 16q0 14 -16 22t-42 8q-56 0 -83 -21.5t-38 -56.5q-3 -6 -8 -29l-12 -58q-8 -34 -16 -75l-16 -83l-13 -79t-10 -66q0 -3 -0.5 -5.5t-0.5 -4.5q0 -18 7 -29.5t18 -13.5 q12 0 15.5 -1t6 -1.5t8.5 0.5t23 3.5t50 8.5l89 16l77 14q33 5 56 8t38 4t26 1t18 -0.5t15 -0.5l1 -10q1 -9 7 -20.5t17.5 -21t32.5 -9.5h4q35 2 53.5 9.5t18.5 25.5q0 12 -7 27l11 49q5 22 11 42l11 40l14 52l11 40l14 46q6 23 13 42.5t13 30.5zM611 648v1q4 -9 7 -18 t3 -20q0 -28 -23 -42q-14 -9 -26 -9q-10 0 -17.5 3t-15.5 7q-32 19 -50.5 27t-44.5 10q-8 -5 -12.5 -9t-9.5 -8q-10 -8 -18.5 -15.5t-22.5 -18.5q-10 -6 -18 -9t-17 -3q-27 0 -43 26q-6 10 -6 26q0 18 9 32.5t20 22.5q4 5 16 11l22 10q11 5 20 10t9 10q6 21 16.5 30t28.5 9 h4q33 0 61 -10.5t48 -22.5t30 -21.5t7 -7.5q7 -3 12 -7t11 -14z" />
<glyph unicode="&#xfc;" horiz-adv-x="661" d="M750 443q9 12 9 28t-10 29t-33 13q-5 0 -15 -2q-4 0 -7 0.5t-7 0.5q-25 0 -49 -10.5t-33 -39.5q-12 -38 -20 -60.5l-13 -37.5l-9 -28q-4 -11 -8.5 -25.5t-10.5 -36.5l-14 -58q-11 -26 -21 -39t-24 -19.5t-34 -10.5t-52 -12q-9 -2 -33 -6l-54 -9l-57 -7.5t-44 -3.5 q-1 -1 -4 -1q-7 0 -7 11t4.5 25t6.5 21l19 62l11 37l13 40l22 71q3 3 8 16.5t10 28.5l8 29q3 13 3 16q0 14 -16 22t-42 8q-56 0 -83 -21.5t-38 -56.5q-3 -6 -8 -29l-12 -58q-8 -34 -16 -75l-16 -83l-13 -79t-10 -66q0 -3 -0.5 -5.5t-0.5 -4.5q0 -18 7 -29.5t18 -13.5 q12 0 15.5 -1t6 -1.5t8.5 0.5t23 3.5t50 8.5l89 16l77 14q33 5 56 8t38 4t26 1t18 -0.5t15 -0.5l1 -10q1 -9 7 -20.5t17.5 -21t32.5 -9.5h4q35 2 53.5 9.5t18.5 25.5q0 12 -7 27l11 49q5 22 11 42l11 40l14 52l11 40l14 46q6 23 13 42.5t13 30.5zM470 618v-1 q0 -23 -31 -36.5t-82 -13.5q-45 1 -72 16.5t-34 38.5q0 23 29 37t77 14h3q50 0 78 -16t32 -39zM715 618v-1q0 -23 -32.5 -36.5t-80.5 -13.5q-48 1 -75 17t-28 39q0 23 28 36.5t74 13.5h6q47 0 76 -16t32 -39z" />
<glyph unicode="&#xfd;" horiz-adv-x="615" d="M772 480l-37 -59q-8 -9 -14.5 -17.5t-14.5 -16.5q-29 -38 -61 -75l-73 -82q-66 -74 -119 -125t-98.5 -88t-86.5 -66l-86 -60q-32 -23 -62 -35.5t-66 -12.5q-22 0 -37 19.5t-15 42.5q0 14 8 27q37 40 80 68t82 50t70.5 41.5t46.5 43.5l1 2v1q0 4 -7.5 16t-19 27t-25.5 31 t-27 28q-10 15 -27 35l-37 45q-20 24 -41 52.5t-40 61.5l-1 1q-4 5 -4 12q0 17 21 34t48 24q11 3 20 4t17 1q17 0 31 -6t22 -21q11 -27 26 -57t35.5 -61t46 -62t57.5 -59l9 -1q42 31 75 64t57 63.5t39 56.5t21 44q14 24 33 44t48 20q14 0 29 -3.5t29 -8.5q20 -7 33.5 -18 t13.5 -25zM384 564h3q9 0 19.5 4t30.5 24q6 7 21 16l36 21l33 21q14 9 24.5 18.5t18 21t14.5 27.5q1 5 2 9t1 13q0 20 -11 28.5t-31 8.5q-14 0 -32 -5.5t-38 -15.5q-16 -9 -34 -23.5t-34.5 -32t-31 -35.5t-24.5 -34q-14 -23 -14 -33q0 -14 10 -19.5t32 -12.5z" />
<glyph unicode="&#xfe;" horiz-adv-x="746" d="M24 -141q0 -10 4.5 -16.5t18.5 -12.5q24 -8 45 -8q41 0 82 24q12 8 16 17t4 19v34q0 27 5.5 53.5t24.5 45.5l2 2q22 6 59 12q56 4 106.5 19t110.5 31q78 27 139 55t102.5 59t63.5 65.5t22 74.5q0 46 -22.5 78t-60.5 52t-88 29t-106 9q-51 0 -98.5 -4.5t-94.5 -9.5l21 68 l31 103q0 2 1 3q0 2 1 2.5t1 2.5q0 19 -18 27.5t-41 8.5q-15 0 -30.5 -3t-28 -8.5t-21.5 -13.5t-11 -18l-66 -198l-67 -199q-32 -100 -60 -200.5t-47 -202.5zM275 145h-11q-5 0 -10 2l-4 4l65 208q21 8 48.5 13.5t56.5 8.5t58 4.5t54 1.5q60 0 107 -9t66 -31 q-15 -36 -51 -65.5t-82.5 -53.5t-99 -42t-101.5 -32z" />
<glyph unicode="&#xff;" horiz-adv-x="615" d="M772 480l-37 -59q-8 -9 -14.5 -17.5t-14.5 -16.5q-29 -38 -61 -75l-73 -82q-66 -74 -119 -125t-98.5 -88t-86.5 -66l-86 -60q-32 -23 -62 -35.5t-66 -12.5q-22 0 -37 19.5t-15 42.5q0 14 8 27q37 40 80 68t82 50t70.5 41.5t46.5 43.5l1 2v1q0 4 -7.5 16t-19 27t-25.5 31 t-27 28q-10 15 -27 35l-37 45q-20 24 -41 52.5t-40 61.5l-1 1q-4 5 -4 12q0 17 21 34t48 24q11 3 20 4t17 1q17 0 31 -6t22 -21q11 -27 26 -57t35.5 -61t46 -62t57.5 -59l9 -1q42 31 75 64t57 63.5t39 56.5t21 44q14 24 33 44t48 20q14 0 29 -3.5t29 -8.5q20 -7 33.5 -18 t13.5 -25zM416 627v-1q0 -23 -31 -36.5t-82 -13.5q-45 1 -72 16.5t-34 38.5q0 23 29 37t77 14h3q50 0 78 -16t32 -39zM661 627v-1q0 -23 -32.5 -36.5t-80.5 -13.5q-48 1 -75 17t-28 39q0 23 28 36.5t74 13.5h6q47 0 76 -16t32 -39z" />
<glyph unicode="&#x152;" horiz-adv-x="1480" d="M679 5q15 -8 31 -19l33 -20q17 -9 31.5 -15.5t25.5 -6.5q17 0 32 1t30 3l32 4q17 2 37 5h3l386 44q26 2 37 5t14 5q8 6 11 11.5t3 16.5v8q0 5 -1 11h-7q-6 6 -16.5 9t-23 5t-25.5 3t-23 2q-28 0 -58 -4t-59 -4q-5 0 -8.5 0.5t-8.5 0.5q-2 0 -13.5 -1t-26.5 -1.5t-30 -1.5 t-25 -1l-93 -4q-47 -2 -92 -7l-5 1l-11 9l-2 4q1 13 8 41t16 58l16 55q8 25 12 33l2 1h1l8 2h24q8 -1 15 -1h13h27q20 0 40.5 0.5t47.5 2t63.5 4t88.5 6.5q5 0 17 0.5t25 1.5t24 1.5t15 0.5q34 4 41.5 17t7.5 27v19q-7 20 -36.5 24.5t-66.5 4.5h-140q-48 0 -95 0.5t-76 3.5 l-9 10l-1 4q2 9 9 31l15 47l15 46q8 21 12 29h-1l4 2l6 2q13 1 21 1.5t14.5 1t14 1t20.5 0.5h50l235 8h47q12 0 13 1q3 3 5 3q29 5 39 14.5t10 18.5v8q-6 10 -14 16t-19.5 9.5t-28.5 5.5t-42 4q-32 1 -75 3t-86.5 3.5t-84 2.5t-68.5 1h-97h-24q-12 0 -26 1q-26 0 -43.5 -1.5 t-29 -6.5t-19 -14t-13.5 -24q-39 29 -78.5 42t-73.5 17h-81q-87 -8 -148 -19.5t-99 -28.5q-33 -15 -52.5 -25t-30.5 -15q-55 -32 -99 -74t-75.5 -88.5t-48.5 -95.5t-17 -94v-15q0 -10 1 -13q4 -23 13 -47.5t35 -53.5v1q21 -28 47 -48.5t59 -35.5t73.5 -25t90.5 -16 q27 -5 52 -6.5t54 -1.5q76 0 140 11.5t113 37.5zM610 573q37 0 72 -18q32 -18 48 -52.5t22 -68.5q3 -17 3 -33q0 -6 -0.5 -12t-0.5 -12l-15 -72q-15 -48 -45 -95.5t-75.5 -86t-107.5 -63t-141 -26.5q-14 0 -36 6.5t-45 15.5q-51 13 -77 42t-28 65q-2 1 -2 4q1 32 14 71.5 t36 80.5t55.5 81t72.5 73.5t87 58t100 34.5q13 3 28.5 5t34.5 2z" />
<glyph unicode="&#x153;" horiz-adv-x="1366" d="M1299 48q20 8 29 29t9 41t-9.5 33.5t-31.5 13.5q-19 0 -43.5 -6.5t-50.5 -14.5l-34 -10q-17 -5 -43 -10q-52 -9 -99 -16t-89 -7q-44 0 -78.5 10.5t-56.5 47.5q18 14 51 16.5t61 2.5q59 1 119 4.5t115 15.5t103.5 36.5t85.5 68.5q19 19 26.5 43t7.5 52q0 29 -13.5 56.5 t-45.5 38.5q-35 13 -81 19.5t-97 6.5q-32 -2 -68 -4.5t-73 -8t-72.5 -13.5t-65.5 -21q-18 -8 -40.5 -25t-45.5 -40l-28 28q-14 9 -26 16t-29.5 13t-43 12t-67.5 13q-30 5 -57.5 8t-55.5 3q-89 0 -185 -34q-107 -45 -172.5 -112t-73.5 -145q-1 -3 -1 -9q0 -14 6 -30.5 t13.5 -31t13.5 -22.5t6 -5q0 2 -1 4l-3 8q16 -20 31 -35.5t31.5 -27.5t35.5 -21t44 -17q69 -25 145 -25q30 0 66.5 4t73.5 11.5t72 18t61 22.5q19 9 35 18l31 18q27 -28 65 -47q48 -26 100.5 -35.5t112.5 -9.5q78 0 161 14.5t167 36.5h2zM675 260q-1 -4 -2.5 -7.5t-2.5 -6.5 q-8 -16 -26 -31l-42 -33l-6 -6l-2 -2h-2q-49 -34 -108.5 -51t-122.5 -17q-50 0 -96 11q-45 17 -66.5 46.5t-21.5 61.5q0 26 14.5 50.5t43.5 38.5l41 28q19 12 37 20t38.5 12.5t47.5 4.5q9 3 28.5 5t42.5 2q28 0 56.5 -3t45.5 -11q20 -5 38.5 -12t33 -15.5t23.5 -19t9 -23.5z M1195 319q-17 -12 -29 -18.5t-29 -10.5t-45 -6.5t-77 -6.5q-62 4 -97.5 7t-54 5.5t-23.5 4.5t-6 5v3q1 19 21 37.5t47 32.5t55.5 23t48.5 10q26 7 42.5 9.5t28.5 2.5q13 0 21 -2t16 -3h13q21 0 41 -2.5t35.5 -7.5t25.5 -12t10 -16v-4z" />
<glyph unicode="&#x178;" horiz-adv-x="720" d="M731 667q-8 11 -28 17.5t-43 6.5q-36 0 -61 -22l-163 -143q-78 -71 -147 -143l1 1h-1q-11 14 -24 38l-28 56q-12 25 -25.5 50.5t-28 48t-30.5 40.5t-34 29q-9 2 -20.5 3t-22.5 1q-19 0 -37 -2t-29 -9q-11 -6 -15 -15.5t-4 -22.5v-5q0 -16 8.5 -33t19.5 -33 q18 -21 36.5 -56t35 -73t29.5 -74.5t19 -60.5v-4l-52 -238q3 -23 37 -39l11 -9q54 -16 84 -16q26 0 38.5 14.5t21.5 47.5t20.5 86t36.5 129l7 27q3 11 8.5 21t13.5 21t22 25q45 53 117.5 118.5t185.5 149.5l14 9l16 11q9 6 15 13t6 15v3v1q0 1 -0.5 1.5t-0.5 1.5zM357 748 v-1q0 -23 -31 -36.5t-82 -13.5q-45 1 -72 16.5t-34 38.5q0 23 29 37t77 14h3q50 0 78 -16t32 -39zM602 748v-1q0 -23 -32.5 -36.5t-80.5 -13.5q-48 1 -75 17t-28 39q0 23 28 36.5t74 13.5h6q47 0 76 -16t32 -39z" />
<glyph unicode="&#x2c6;" horiz-adv-x="426" d="M374 697v1q4 -9 7 -18t3 -20q0 -28 -23 -42q-14 -9 -26 -9q-10 0 -17.5 3t-15.5 7q-32 19 -50.5 27t-44.5 10q-8 -5 -12.5 -9t-9.5 -8q-10 -8 -18.5 -15.5t-22.5 -18.5q-10 -6 -18 -9t-17 -3q-27 0 -43 26q-6 10 -6 26q0 18 9 32.5t20 22.5q4 5 15 11l23 10q11 5 20 10 t9 10q6 21 16.5 30t28.5 9h4q33 0 61 -10.5t48 -22.5t30 -21.5t7 -7.5q7 -3 12 -7t11 -14z" />
<glyph unicode="&#x2dc;" horiz-adv-x="557" d="M467 675v2q0 12 -16.5 21t-35.5 9q-15 0 -28.5 -5.5t-20.5 -17.5q-1 -2 -1.5 -5t-2.5 -5q-2 -6 -5 -12.5t-8 -6.5q-6 0 -12 5l-11 11v-1q-11 11 -26.5 22t-47.5 11q-20 0 -44 -6.5t-45 -17.5t-36.5 -24.5t-16.5 -27.5v-2q0 -14 14.5 -24t39.5 -10q16 0 27.5 7t22.5 16 q6 5 13.5 10t12.5 5l3 -3q3 -3 8 -6q12 -11 31.5 -22t54.5 -11q58 0 91.5 18t38.5 70z" />
<glyph unicode="&#x2000;" horiz-adv-x="470" />
<glyph unicode="&#x2001;" horiz-adv-x="940" />
<glyph unicode="&#x2002;" horiz-adv-x="470" />
<glyph unicode="&#x2003;" horiz-adv-x="940" />
<glyph unicode="&#x2004;" horiz-adv-x="313" />
<glyph unicode="&#x2005;" horiz-adv-x="235" />
<glyph unicode="&#x2006;" horiz-adv-x="156" />
<glyph unicode="&#x2007;" horiz-adv-x="156" />
<glyph unicode="&#x2008;" horiz-adv-x="117" />
<glyph unicode="&#x2009;" horiz-adv-x="188" />
<glyph unicode="&#x200a;" horiz-adv-x="52" />
<glyph unicode="&#x2010;" horiz-adv-x="671" d="M56 220q11 -12 35.5 -16t60.5 -4q15 0 31.5 0.5t35.5 0.5l32 2q16 1 34 1h2h21q17 0 40 0.5t49 1.5t49 2t41 2t25 2h25q32 0 47.5 1.5t27.5 8.5q11 4 14.5 8.5t3.5 12.5q-7 11 -12.5 21t-12.5 14q-33 24 -83 30.5t-107 6.5h-54q-12 0 -25.5 -1t-25.5 -1q-31 0 -67.5 -0.5 t-69 -1.5t-56.5 -2t-31 -2h1q-25 -4 -38.5 -8.5t-13.5 -19.5v-4q0 -4 1 -6v-7l8 -21q4 -13 12 -21z" />
<glyph unicode="&#x2011;" horiz-adv-x="671" d="M56 220q11 -12 35.5 -16t60.5 -4q15 0 31.5 0.5t35.5 0.5l32 2q16 1 34 1h2h21q17 0 40 0.5t49 1.5t49 2t41 2t25 2h25q32 0 47.5 1.5t27.5 8.5q11 4 14.5 8.5t3.5 12.5q-7 11 -12.5 21t-12.5 14q-33 24 -83 30.5t-107 6.5h-54q-12 0 -25.5 -1t-25.5 -1q-31 0 -67.5 -0.5 t-69 -1.5t-56.5 -2t-31 -2h1q-25 -4 -38.5 -8.5t-13.5 -19.5v-4q0 -4 1 -6v-7l8 -21q4 -13 12 -21z" />
<glyph unicode="&#x2012;" horiz-adv-x="671" d="M56 220q11 -12 35.5 -16t60.5 -4q15 0 31.5 0.5t35.5 0.5l32 2q16 1 34 1h2h21q17 0 40 0.5t49 1.5t49 2t41 2t25 2h25q32 0 47.5 1.5t27.5 8.5q11 4 14.5 8.5t3.5 12.5q-7 11 -12.5 21t-12.5 14q-33 24 -83 30.5t-107 6.5h-54q-12 0 -25.5 -1t-25.5 -1q-31 0 -67.5 -0.5 t-69 -1.5t-56.5 -2t-31 -2h1q-25 -4 -38.5 -8.5t-13.5 -19.5v-4q0 -4 1 -6v-7l8 -21q4 -13 12 -21z" />
<glyph unicode="&#x2013;" horiz-adv-x="719" d="M725 375q0 -17 -14 -33l1 1q-10 -14 -31 -20t-40 -8q-18 -2 -45 -3t-60 -2q-26 -2 -53.5 -3t-52.5 -2.5t-46 -3t-34 -3.5q-15 -3 -33 -5.5t-33 -3.5q-35 -4 -73.5 -8t-69.5 -12q-4 -1 -10 -1h-9q-10 0 -23.5 1.5t-21.5 3.5q-47 29 -47 65q0 18 10 31t26 21.5t36.5 13 t41.5 6.5q8 1 22 1.5t31 0.5q19 1 40.5 2t42 1.5t36.5 1.5t24 2q22 2 60 5l79 6q41 3 79 5t61 2q16 0 34.5 -5t34.5 -13t26.5 -19.5t10.5 -24.5z" />
<glyph unicode="&#x2014;" horiz-adv-x="947" d="M949 385q0 -11 -4.5 -18t-10.5 -15q-11 -14 -32.5 -19.5t-40.5 -7.5t-57.5 -3t-84.5 -3q-33 -1 -67.5 -2.5t-64.5 -3t-53.5 -3t-36.5 -3.5q-14 -2 -25 -3l-24 -2q-12 -1 -26 -2.5t-32 -2.5q-33 -3 -69.5 -6l-70.5 -6l-62 -7q-28 -3 -44 -6q-8 -2 -10 -2h-9 q-11 0 -24.5 1.5t-21.5 3.5q-48 30 -48 66q0 18 10 31t26.5 22t37 13.5t41.5 6.5h21q9 0 18.5 0.5t20.5 1.5q35 1 79 3l86 4q42 2 74 4t42 3q15 1 42.5 3t61.5 4t71 3l72 4q35 1 63 2t43 1q16 0 35 -5t35.5 -13t27.5 -19.5t11 -24.5z" />
<glyph unicode="&#x2018;" horiz-adv-x="335" d="M304 443q-7 8 -10.5 9.5t-6.5 1.5h-3q-3 0 -4 1q-3 0 -3 1q-14 26 -23.5 55t-14.5 58q-2 2 -2 9v10v39q0 20 -4.5 40.5t-22.5 37.5h1q-7 7 -17.5 10t-21.5 3t-23 -2.5t-24 -6.5t-21.5 -9t-14.5 -9q-20 -14 -27.5 -33.5t-7.5 -42.5q0 -24 7.5 -50t18.5 -50.5t22 -45.5 l19 -36q3 -2 3.5 -4.5t2.5 -4.5l-1 3l22 -37q11 -20 27 -35q24 -25 50 -25q15 0 28 6t27 16q12 9 23 28t11 36q0 16 -10 28v-1z" />
<glyph unicode="&#x2019;" horiz-adv-x="326" d="M320 684q0 13 -13 23t-30 17.5t-35 11.5t-28 4q-41 0 -70 -25t-49.5 -60t-33 -72t-19.5 -61q-1 -5 -1.5 -6t-0.5 -4l-9 -39q-5 -19 -5 -36q0 -38 21 -49t59 -11q11 0 26.5 5t29.5 13t23.5 18.5t9.5 21.5q0 6 -3 10.5t-6 8.5q-1 0 -2 1v1v2q10 28 23 55t32 53 q6 8 12.5 14.5t14.5 13.5q22 19 38 39.5t16 50.5z" />
<glyph unicode="&#x201a;" horiz-adv-x="326" d="M320 148q0 13 -13 23t-30 17.5t-35 11.5t-28 4q-41 0 -70 -25t-49.5 -60t-33 -72t-19.5 -61q-1 -5 -1.5 -6t-0.5 -4l-9 -39q-5 -19 -5 -36q0 -38 21 -49t59 -11q11 0 26.5 5t29.5 13t23.5 18.5t9.5 21.5q0 6 -3 10.5t-6 8.5q-1 0 -2 1v1v2q10 28 23 55t32 53 q6 8 12.5 14.5t14.5 13.5q22 19 38 39.5t16 50.5z" />
<glyph unicode="&#x201c;" horiz-adv-x="565" d="M549 375q2 5 2 18q0 16 -5.5 37.5t-13 44.5t-16.5 45l-17 41l-12 39q-5 13 -8.5 20.5t-6 11.5t-5.5 12q0 13 -1 24.5t-5.5 23.5t-14.5 26t-29 32q-22 22 -48 22q-27 0 -50 -19q-18 -13 -26 -33.5t-8 -46.5q0 -45 20 -99t50.5 -100.5t66.5 -78t68 -31.5zM251 606l1 2v4 q0 9 -3.5 28t-11 38t-20 33.5t-30.5 14.5q-11 0 -25 -3t-26.5 -7t-23.5 -9t-16 -9q-22 -14 -30.5 -34t-8.5 -43q0 -24 8.5 -50t20.5 -51t24.5 -46t20.5 -36q3 -2 3.5 -4.5t2.5 -4.5l-1 3q11 -19 23.5 -38.5t30.5 -35.5q24 -24 54 -24q27 0 45.5 11.5t25.5 41.5z" />
<glyph unicode="&#x201d;" horiz-adv-x="566" d="M537 654q0 32 -17 43.5t-55 11.5q-41 0 -71 -13t-49 -45q-8 -14 -17 -26l-19 -27l-31 -45q-15 -23 -27 -47t-19 -49t-7 -52q0 -10 4.5 -17t11.5 -12q1 -2 3 -3.5t6 -9.5q23 -13 36 -18t28 -5h28q14 0 29.5 1.5t29.5 11.5l11 11l12.5 15t11 16t4.5 15q0 11 -4 14.5t-9 8.5 l-2 2h-1v-1q6 20 13 41t19 38q8 11 17 19t17 16q10 10 18.5 19.5t15 21t10 27t3.5 38.5zM340 691q0 13 -13.5 24t-32 18.5t-37.5 11.5t-30 4q-43 0 -74 -25.5t-52.5 -61.5t-35 -73.5t-20.5 -61.5q0 -4 -0.5 -5t-2.5 -6l2 1q-7 -19 -12 -38.5t-5 -36.5q0 -38 22.5 -49 t64.5 -11q12 0 28.5 5t30.5 13t24 18.5t10 21.5q0 6 -3 10.5t-7 8.5l-1 2v2q11 28 24.5 55.5t33.5 53.5q6 9 14 16l16 13v-1q21 20 38.5 40.5t17.5 50.5z" />
<glyph unicode="&#x201e;" horiz-adv-x="566" d="M537 131q0 32 -17 43.5t-55 11.5q-41 0 -71 -13t-49 -45q-8 -14 -17 -26l-19 -27l-31 -45q-15 -23 -27 -47t-19 -49t-7 -52q0 -10 4.5 -17t11.5 -12q1 -2 3 -3.5t6 -9.5q23 -13 36 -18t28 -5h28q14 0 29.5 1.5t29.5 11.5l11 11l12.5 15t11 16t4.5 15q0 11 -4 14.5t-9 8.5 l-2 2h-1v-1q6 20 13 41t19 38q8 11 17 19t17 16q10 10 18.5 19.5t15 21t10 27t3.5 38.5zM340 168q0 13 -13.5 24t-32 18.5t-37.5 11.5t-30 4q-43 0 -74 -25.5t-52.5 -61.5t-35 -73.5t-20.5 -61.5q0 -4 -0.5 -5t-2.5 -6l2 1q-7 -19 -12 -38.5t-5 -36.5q0 -38 22.5 -49 t64.5 -11q12 0 28.5 5t30.5 13t24 18.5t10 21.5q0 6 -3 10.5t-7 8.5l-1 2v2q11 28 24.5 55.5t33.5 53.5q6 9 14 16l16 13v-1q21 20 38.5 40.5t17.5 50.5z" />
<glyph unicode="&#x2022;" horiz-adv-x="345" d="M350 387q0 54 -37.5 81t-100.5 27q-45 0 -77.5 -16t-53 -40.5t-30.5 -55t-10 -60.5q0 -22 10.5 -40.5t27.5 -31.5t40 -20t48 -7q41 0 74.5 14t57.5 37t37.5 52t13.5 60z" />
<glyph unicode="&#x2026;" horiz-adv-x="836" d="M-20 72v-8q0 -11 4 -19t11 -15q26 -15 47.5 -20.5t32.5 -5.5q18 0 34 3.5t28 8.5q24 10 39.5 26t17.5 35q0 34 -47 49q-12 5 -25.5 8.5t-27.5 3.5q-9 0 -14 -0.5t-13 -1.5q-34 -5 -58.5 -23t-28.5 -41zM275 69v-8q0 -11 4 -19t11 -15q26 -15 47.5 -20.5t32.5 -5.5 q18 0 34 3.5t28 8.5q24 10 39.5 26t17.5 35q0 34 -47 49q-12 5 -25.5 8.5t-27.5 3.5q-9 0 -14 -0.5t-13 -1.5q-34 -5 -58.5 -23t-28.5 -41zM571 67v-8q0 -11 4 -19t11 -15q26 -15 47.5 -20.5t32.5 -5.5q18 0 34 3.5t29 8.5q23 10 39 26t17 35q0 34 -46 49q-13 5 -26.5 8.5 t-27.5 3.5q-8 0 -13 -0.5t-13 -1.5q-34 -5 -59 -23t-29 -41z" />
<glyph unicode="&#x202f;" horiz-adv-x="188" />
<glyph unicode="&#x2039;" horiz-adv-x="294" d="M295 450h-4q-20 0 -41 -11l-149 -78q-20 -7 -36 -20t-20 -30q-3 -20 3.5 -28t17.5 -13l120 -115l4 -3v1q8 -11 16.5 -17t24.5 -9h11q14 0 25.5 8t23.5 32v-1q3 4 3.5 6.5t1.5 5.5q2 11 -4 22t-26 26l-79 76l97 50q28 11 40 27t13 25q2 2 2 6t-4 7q-6 19 -14 25t-26 8z " />
<glyph unicode="&#x203a;" horiz-adv-x="294" d="M67 126h4q20 0 41 11l149 78q20 7 36 20t20 30q3 20 -3.5 28t-17.5 13l-120 115l-4 3v-1q-8 11 -16.5 17t-24.5 9h-11q-14 0 -25.5 -8t-23.5 -32v1q-3 -4 -3.5 -6.5t-1.5 -5.5q-2 -11 4 -22t26 -26l79 -76l-96 -50q-29 -11 -41 -27t-13 -25q-1 -2 -1.5 -6t3.5 -7 q6 -19 14.5 -25t25.5 -8z" />
<glyph unicode="&#x205f;" horiz-adv-x="235" />
<glyph unicode="&#x20ac;" horiz-adv-x="781" d="M60 338l4 -4l3 -3q-18 -38 -30 -80q-6 0 -10.5 -0.5t-6.5 -0.5h1q-26 -4 -39 -8.5t-13 -19.5q4 -21 8.5 -36t12.5 -23q11 -12 36 -17q3 -21 8 -36.5t16 -30.5l27 -26q22 -24 51 -40.5t61.5 -28t67.5 -18t70 -10.5l41 -4q20 -2 43 -2q47 0 88 6.5t79 19t75 30.5t76 42 q21 14 30 23t16 17q0 49 -58 49q-1 0 -11.5 -2t-25.5 -6t-31 -10t-28 -14q-33 -14 -72.5 -28.5t-103.5 -28.5q-12 -3 -46 -3q-20 0 -50.5 5t-86.5 23q-20 15 -37.5 33t-28.5 40q11 0 32 0.5t46 0.5q26 0 53.5 0.5t51.5 1t42 1.5t25 2q25 0 42 1t27.5 2.5t17.5 4t13 5.5 q11 4 14.5 8.5t3.5 12.5l-13 21q-6 10 -12 14q-33 24 -83 30.5t-107 6.5q-26 0 -43.5 -0.5t-29.5 -0.5q-11 0 -18.5 -0.5t-13.5 -0.5h-34l11 22l11 22q3 5 6.5 10t6.5 10q11 1 22 1.5t22 0.5h2h21q17 0 40 0.5t49 1.5t49 2t41 2t25 2h25q32 0 47.5 1.5t27.5 8.5 q11 4 14.5 8.5t3.5 12.5l-13 21q-6 10 -12 14q-33 24 -83 30.5t-107 6.5h-54q-8 0 -17 -0.5t-17 -1.5q32 35 68 62q35 30 75.5 50.5t85.5 20.5h4l112 -65q2 -1 15 -7l28 -12q16 -6 17 -6q29 11 46.5 26.5t17.5 27.5q0 4 -1 6q-8 32 -36 52.5t-71 37.5q-34 14 -58.5 23 t-44.5 14.5t-37 8t-35 2.5q-20 0 -47 -3.5t-60 -11.5q-88 -43 -160 -101t-124 -129q-14 -1 -23 -1t-13 -1h1q-26 -4 -39 -8.5t-13 -19.5q4 -21 8.5 -36t12.5 -23z" />
<glyph unicode="&#x2122;" horiz-adv-x="911" d="M924 308q-20 -5 -34 -5q-23 0 -41 10t-23 35q-4 19 -6.5 36.5t-4.5 33.5q-7 -8 -10 -17t-10 -17v1q-8 -18 -17 -29.5t-24 -21.5q-11 -6 -29 -11.5t-38 -5.5q-21 0 -39 7.5t-32 27.5q-3 23 -4.5 42t-5.5 36v-1q-1 -3 -4.5 -12.5t-6.5 -20.5q-3 -5 -5 -11l-6 -12l-7 -17 l-12 -25q-15 -14 -33.5 -23.5t-44.5 -9.5h-11q-3 0 -5.5 0.5t-5.5 1.5q-33 2 -44.5 18.5t-11.5 33.5q0 2 0.5 5t0.5 5q1 5 1.5 9.5t3.5 9.5l-1 -1q23 57 50 108l57 108q8 17 18 33l20 35l-3 -3q8 35 36.5 49.5t57.5 14.5t53.5 -13.5t28.5 -32.5v1q3 -6 3 -12t-1 -9 q-2 -14 -3 -26.5t-1 -24.5q0 -7 0.5 -14t0.5 -15l23 36l25 43q4 5 5 9t3 8q3 6 5 12.5t6.5 13t11.5 13.5t20 16q25 11 55 11q29 0 55 -11t32 -34q3 -8 3 -14v-11q-1 -4 -2 -6.5t-2 -4.5q0 -5 -1 -9.5t-3 -9.5q-2 -32 -2.5 -51.5t-0.5 -42.5l1 1q0 -9 0.5 -20t0.5 -24 q0 -24 0.5 -40t2 -28t3.5 -22l4 -19v-10q4 -7 4 -15q0 -2 -0.5 -4t-0.5 -4q-6 -39 -55 -54zM490 605h-1q-18 -5 -33.5 -6t-33.5 -1h-16q-10 0 -15 -1q-7 -29 -14.5 -71.5t-12.5 -82.5q-3 -17 -5 -32.5t-2 -30.5v-12q0 -5 2 -11q-9 -22 -25 -40.5t-53 -21.5h-5 q-29 0 -46 11.5t-24 37.5l8 97q3 47 10 89l5 44q-2 0 -3 -1h-1q-14 -4 -27 -6.5t-28 -4.5q-3 0 -6 -0.5t-5 -0.5q-20 0 -33.5 8.5t-21 20t-10.5 22.5t-3 16q1 13 4 21t8.5 13t13.5 9.5t19 9.5q3 1 5 2.5t5 2.5q34 8 74.5 16.5t83.5 15t85.5 11t80.5 4.5q12 0 24.5 -0.5 t29.5 -2.5q17 -11 22 -20.5t5 -19.5v-5q-1 -3 -1 -10q0 -5 -3 -9q-5 -15 -18 -34.5t-39 -26.5z" />
<glyph unicode="&#xe000;" horiz-adv-x="520" d="M0 520h520v-520h-520v520z" />
<glyph unicode="&#xfb01;" horiz-adv-x="837" d="M773 233l14 40l15 45q9 24 18 57l24 80q0 2 2 3q0 2 0.5 2.5t0.5 2.5q0 19 -18 27.5t-41 8.5q-15 0 -30.5 -3t-28 -8.5t-21.5 -13.5t-11 -18l-19 -56l-16 -52l-16 -53l-19 -56q-10 -29 -17.5 -53.5t-14 -48t-12 -48t-11.5 -54.5q0 -2 -0.5 -2.5t-0.5 -2.5v-5 q0 -21 16.5 -28t38.5 -7q37 0 54 7.5t26 25t15.5 47t22.5 73.5zM921 601q2 8 2 7v4q0 22 -29 32.5t-71 10.5q-19 0 -40 -5t-39 -15t-29.5 -24.5t-11.5 -33.5q0 -23 24.5 -33.5t66.5 -10.5q60 5 88 19t35 32zM685 695q-6 1 -11 1h-10h-42q-17 0 -30.5 -0.5t-25.5 -0.5h-24 q-19 0 -57 -0.5t-80.5 -1.5t-82 -1.5t-60.5 -0.5q-19 -3 -33.5 -9t-26.5 -22.5t-22 -46t-20 -80.5q-4 -56 -14 -102.5t-23 -88t-26.5 -80.5t-25 -79t-19 -84.5t-7.5 -96.5q0 -16 10 -27.5t39 -11.5q22 0 37 4q35 6 53.5 17.5t26.5 27t10 33.5t4 38q4 24 7 52t8 58t12.5 62 t19.5 64q20 7 43 7q7 0 13.5 -0.5t15.5 -0.5q6 0 12.5 0.5t14.5 1.5q36 4 63 6t47 4.5t33 7.5t21 15q10 13 10 26q0 10 -2.5 19.5t-2.5 17.5q0 26 -12 30.5t-41 4.5q-21 -3 -45 -6l-46 -4q-23 -3 -43 -4t-34 -1l3 23q3 22 9 48.5t14.5 49t20.5 22.5q19 0 47 -0.5t57 -2.5 t55.5 -5.5t41.5 -9.5q1 0 16.5 -1t33.5 -2.5t34 -3t20 -2.5t7 -1.5t7 -0.5q14 0 26 6.5t21 17t14.5 23.5t5.5 26t-5.5 24t-19.5 18z" />
<glyph unicode="&#xfb02;" horiz-adv-x="833" d="M772 109q16 139 51 269t88 248q2 5 2.5 7.5t0.5 3.5q0 21 -21.5 31t-53.5 10q-17 0 -66 -11q-14 -5 -20 -9t-9 -10t-4.5 -15.5t-5.5 -24.5q0 -3 -4 -20l-8 -40q-5 -23 -12 -50l-12 -49q-5 -23 -9.5 -39.5t-5.5 -19.5l-9 -37q-3 -12 -5 -19l-4 -14l-6 -20q-8 -23 -13 -44 l-12 -44l-12 -46q-6 -25 -16 -55l-14 -41q-8 -21 -8 -44q0 -21 13.5 -37.5t54.5 -16.5h12q45 5 74.5 24.5t29.5 57.5zM685 695q-6 1 -11 1h-10h-42q-17 0 -30.5 -0.5t-25.5 -0.5h-24q-19 0 -57 -0.5t-80.5 -1.5t-82 -1.5t-60.5 -0.5q-19 -3 -33.5 -9t-26.5 -22.5t-22 -46 t-20 -80.5q-4 -56 -14 -102.5t-23 -88t-26.5 -80.5t-25 -79t-19 -84.5t-7.5 -96.5q0 -16 10 -27.5t39 -11.5q22 0 37 4q35 6 53.5 17.5t26.5 27t10 33.5t4 38q4 24 7 52t8 58t12.5 62t19.5 64q20 7 43 7q7 0 13.5 -0.5t15.5 -0.5q6 0 12.5 0.5t14.5 1.5q36 4 63 6t47 4.5 t33 7.5t21 15q10 13 10 26q0 10 -2.5 19.5t-2.5 17.5q0 26 -12 30.5t-41 4.5q-21 -3 -45 -6l-46 -4q-23 -3 -43 -4t-34 -1l3 23q3 22 9 48.5t14.5 49t20.5 22.5q19 0 47 -0.5t57 -2.5t55.5 -5.5t41.5 -9.5q1 0 16.5 -1t33.5 -2.5t34 -3t20 -2.5t7 -1.5t7 -0.5q14 0 26 6.5 t21 17t14.5 23.5t5.5 26t-5.5 24t-19.5 18z" />
<glyph unicode="&#xfb03;" horiz-adv-x="1379" d="M1315 233l14 40l15 45q9 24 18 57l24 80q0 2 2 3q0 2 0.5 2.5t0.5 2.5q0 19 -18 27.5t-41 8.5q-15 0 -30.5 -3t-28 -8.5t-21.5 -13.5t-11 -18l-19 -56l-16 -52l-16 -53l-19 -56q-10 -29 -17.5 -53.5t-14 -48t-12 -48t-11.5 -54.5q0 -2 -0.5 -2.5t-0.5 -2.5v-5 q0 -21 16.5 -28t38.5 -7q37 0 54 7.5t26 25t15.5 47t22.5 73.5zM1463 601q2 8 2 7v4q0 22 -29 32.5t-71 10.5q-19 0 -40 -5t-39 -15t-29.5 -24.5t-11.5 -33.5q0 -23 24.5 -33.5t66.5 -10.5q60 5 88 19t35 32zM1227 695q-6 1 -11 1h-10h-42q-17 0 -30.5 -0.5t-25.5 -0.5h-24 q-19 0 -57 -0.5t-80.5 -1.5t-82 -1.5t-60.5 -0.5q-19 -3 -33.5 -9t-26.5 -22.5t-22 -46t-20 -80.5q-4 -56 -14 -102.5t-23 -88t-26.5 -80.5t-25 -79t-19 -84.5t-7.5 -96.5q0 -16 10 -27.5t39 -11.5q22 0 37 4q35 6 53.5 17.5t26.5 27t10 33.5t4 38q4 24 7 52t8 58t12.5 62 t19.5 64q20 7 43 7q7 0 13.5 -0.5t15.5 -0.5q6 0 12.5 0.5t14.5 1.5q36 4 63 6t47 4.5t33 7.5t21 15q10 13 10 26q0 10 -2.5 19.5t-2.5 17.5q0 26 -12 30.5t-41 4.5q-21 -3 -45 -6l-46 -4q-23 -3 -43 -4t-34 -1l3 23q3 22 9 48.5t14.5 49t20.5 22.5q19 0 47 -0.5t57 -2.5 t55.5 -5.5t41.5 -9.5q1 0 16.5 -1t33.5 -2.5t34 -3t20 -2.5t7 -1.5t7 -0.5q14 0 26 6.5t21 17t14.5 23.5t5.5 26t-5.5 24t-19.5 18zM685 695q-6 1 -11 1h-10h-42q-17 0 -30.5 -0.5t-25.5 -0.5h-24q-19 0 -57 -0.5t-80.5 -1.5t-82 -1.5t-60.5 -0.5q-19 -3 -33.5 -9 t-26.5 -22.5t-22 -46t-20 -80.5q-4 -56 -14 -102.5t-23 -88t-26.5 -80.5t-25 -79t-19 -84.5t-7.5 -96.5q0 -16 10 -27.5t39 -11.5q22 0 37 4q35 6 53.5 17.5t26.5 27t10 33.5t4 38q4 24 7 52t8 58t12.5 62t19.5 64q20 7 43 7q7 0 13.5 -0.5t15.5 -0.5q6 0 12.5 0.5t14.5 1.5 q36 4 63 6t47 4.5t33 7.5t21 15q10 13 10 26q0 10 -2.5 19.5t-2.5 17.5q0 26 -12 30.5t-41 4.5q-21 -3 -45 -6l-46 -4q-23 -3 -43 -4t-34 -1l3 23q3 22 9 48.5t14.5 49t20.5 22.5q19 0 47 -0.5t57 -2.5t55.5 -5.5t41.5 -9.5q1 0 16.5 -1t33.5 -2.5t34 -3t20 -2.5t7 -1.5 t7 -0.5q14 0 26 6.5t21 17t14.5 23.5t5.5 26t-5.5 24t-19.5 18z" />
<glyph unicode="&#xfb04;" horiz-adv-x="1375" d="M1314 109q16 139 51 269t88 248q2 5 2.5 7.5t0.5 3.5q0 21 -21.5 31t-53.5 10q-17 0 -66 -11q-14 -5 -20 -9t-9 -10t-4.5 -15.5t-5.5 -24.5q0 -3 -4 -20l-8 -40q-5 -23 -12 -50l-12 -49q-5 -23 -9.5 -39.5t-5.5 -19.5l-9 -37q-3 -12 -5 -19l-4 -14l-6 -20q-8 -23 -13 -44 l-12 -44l-12 -46q-6 -25 -16 -55l-14 -41q-8 -21 -8 -44q0 -21 13.5 -37.5t54.5 -16.5h12q45 5 74.5 24.5t29.5 57.5zM1227 695q-6 1 -11 1h-10h-42q-17 0 -30.5 -0.5t-25.5 -0.5h-24q-19 0 -57 -0.5t-80.5 -1.5t-82 -1.5t-60.5 -0.5q-19 -3 -33.5 -9t-26.5 -22.5t-22 -46 t-20 -80.5q-4 -56 -14 -102.5t-23 -88t-26.5 -80.5t-25 -79t-19 -84.5t-7.5 -96.5q0 -16 10 -27.5t39 -11.5q22 0 37 4q35 6 53.5 17.5t26.5 27t10 33.5t4 38q4 24 7 52t8 58t12.5 62t19.5 64q20 7 43 7q7 0 13.5 -0.5t15.5 -0.5q6 0 12.5 0.5t14.5 1.5q36 4 63 6t47 4.5 t33 7.5t21 15q10 13 10 26q0 10 -2.5 19.5t-2.5 17.5q0 26 -12 30.5t-41 4.5q-21 -3 -45 -6l-46 -4q-23 -3 -43 -4t-34 -1l3 23q3 22 9 48.5t14.5 49t20.5 22.5q19 0 47 -0.5t57 -2.5t55.5 -5.5t41.5 -9.5q1 0 16.5 -1t33.5 -2.5t34 -3t20 -2.5t7 -1.5t7 -0.5q14 0 26 6.5 t21 17t14.5 23.5t5.5 26t-5.5 24t-19.5 18zM685 695q-6 1 -11 1h-10h-42q-17 0 -30.5 -0.5t-25.5 -0.5h-24q-19 0 -57 -0.5t-80.5 -1.5t-82 -1.5t-60.5 -0.5q-19 -3 -33.5 -9t-26.5 -22.5t-22 -46t-20 -80.5q-4 -56 -14 -102.5t-23 -88t-26.5 -80.5t-25 -79t-19 -84.5 t-7.5 -96.5q0 -16 10 -27.5t39 -11.5q22 0 37 4q35 6 53.5 17.5t26.5 27t10 33.5t4 38q4 24 7 52t8 58t12.5 62t19.5 64q20 7 43 7q7 0 13.5 -0.5t15.5 -0.5q6 0 12.5 0.5t14.5 1.5q36 4 63 6t47 4.5t33 7.5t21 15q10 13 10 26q0 10 -2.5 19.5t-2.5 17.5q0 26 -12 30.5 t-41 4.5q-21 -3 -45 -6l-46 -4q-23 -3 -43 -4t-34 -1l3 23q3 22 9 48.5t14.5 49t20.5 22.5q19 0 47 -0.5t57 -2.5t55.5 -5.5t41.5 -9.5q1 0 16.5 -1t33.5 -2.5t34 -3t20 -2.5t7 -1.5t7 -0.5q14 0 26 6.5t21 17t14.5 23.5t5.5 26t-5.5 24t-19.5 18z" />
</font>
</defs>
</svg>
